<?xml version="1.0" encoding="UTF-8"?>
<svg id="Layer_1" data-name="Layer 1" xmlns="http://www.w3.org/2000/svg" viewBox="0 0 74 74">
  <path d="M26.66754,1.49721v5.42093c3.24567-1.1186,6.71163-1.75535,10.33246-1.75535,17.55693,0,31.83721,14.28028,31.83721,31.83721s-14.28028,31.83721-31.83721,31.83721S5.16279,54.55693,5.16279,37c0-8.17442,3.13209-15.60884,8.21916-21.25005,1.63488,1.46623,3.34893,2.84298,5.23851,4.04074,2.79479-5.53451,4.36084-11.18949,4.61209-17.2093-6.19191.34763-11.87098,1.82074-17.2093,4.61209,1.13926,1.73814,2.39209,3.32484,3.70344,4.83926C3.68967,18.61702,0,27.38344,0,37c0,20.40335,16.59665,37,37,37s37-16.59665,37-37S57.40335,0,37,0c-3.58642,0-7.04893.54037-10.33246,1.49721Z" fill="#c5003e" fill-rule="evenodd"/>
</svg>