<svg xmlns="http://www.w3.org/2000/svg" viewBox="0 0 37 37" height="52" width="52">
<path fill="#D19000" d="M37,0v37H0V0H37z M11.4,7.7c-0.4,0-0.4,0.3-0.5,0.5c-1.4,4.3-2.7,8.6-4.1,13
	c-0.1,0.2-0.1,0.4-0.1,0.7c0,2.1,0,4.2,0,6.3c0,0.4,0.1,0.6,0.5,0.6c0.5,0,0.5-0.3,0.5-0.6c0-1.7,0-3.3,0-5c0-0.3,0-0.6,0.1-0.9
	c0.1-0.5,0.4-0.8,0.9-0.9c0.4-0.1,0.8,0.1,1,0.5c0.3,0.5,0.5,0.4,0.9,0c0.5-0.6,1.2-0.6,1.7,0c0.4,0.5,0.5,0.5,0.9,0
	c0.5-0.7,1.4-0.6,1.8,0.1c0.1,0.2,0.2,0.5,0.2,0.8c0,1.8,0,3.6,0,5.4c0,0.4,0,0.6,0.5,0.6c0.5,0,0.5-0.2,0.5-0.6c0-1.1,0-2.1,0-3.2
	l0,0c0-1.1,0-2.1,0-3.2c0-0.2,0-0.4-0.1-0.6c-1.4-4.4-2.8-8.7-4.1-13.1C11.9,7.9,11.8,7.7,11.4,7.7z M23.6,8.2l-2.2,0
	c-0.6,0-0.7,0-0.7,0.7c0,3.2,0,6.4,0,9.6l0,4.8l0,0l0,4.8c0,0.7,0,0.7,0.8,0.7c1.4,0,2.8,0,4.2,0c2.6,0,4.5-1.9,4.5-4.6
	c0-3.8,0-7.6,0-11.5c0-2.7-1.9-4.6-4.6-4.6c-1.4,0-2.9,0-4.3,0L23.6,8.2z M24.8,9.2l1.3,0c1.5,0,2.9,1.2,3.1,2.8
	c0,0.3,0.1,0.6,0.1,0.9c0,3.8,0,7.5,0,11.3c0,2-1.4,3.5-3.4,3.5c-1.3,0-2.7,0-4,0l0,0V9.3c0.1,0,0.1,0,0.2,0c1.3,0,2.7,0,4,0
	L24.8,9.2z M10.5,12.7c0.2-0.5,0.3-0.5,0.8-0.3c0.3,0.2,0.6,0.3,0.9,0.4c0.1,0.1,0.2,0.1,0.3,0.2c0.8,2.5,1.6,5,2.4,7.6
	c-0.8-0.3-1.5-0.1-2.1,0.4c-0.9-0.7-1.8-0.7-2.6,0c-0.6-0.5-1.3-0.7-2.1-0.4c0.3-1,0.6-1.9,0.8-2.7C9.4,16.2,10,14.4,10.5,12.7z"/>
</svg>
