<svg xmlns="http://www.w3.org/2000/svg" width="51.9" height="51.95" viewBox="0 0 37 37">
  <path id="Combined-Shape" d="M18.5,0c10.217,0,18.5,8.283,18.5,18.5s-8.283,18.5-18.5,18.5S0,28.717,0,18.5,8.283,0,18.5,0ZM9.916,12.199H4.435v12.957h5.48c3.032,0,4.107-1.271,4.47-2.443,.555,1.591,1.791,2.715,3.876,2.715,1.807,0,2.952-.727,3.61-2.019,.558,1.385,1.842,2.019,3.558,2.019,1.742,0,3.756-.781,3.756-2.813,0-1.633-1.361-2.396-2.667-2.595h0l-1.524-.345c-.781-.2-1.942-.563-1.942-1.579,0-1.216,1.198-1.615,2.214-1.615,1.307,0,2.395,.635,2.45,2.05h1.143c-.026-.727-.235-1.317-.577-1.778h1.411v6.585c.024,1.456,.566,1.926,2.032,1.926,.345,0,.671-.036,1.016-.036h0v-.98c-.327,.036-.653,.055-.98,.055-.817-.055-.926-.49-.926-1.234h0v-6.315h1.905v-.962h-1.905v-2.813h-1.143v2.813h-1.633v.696c-.627-.649-1.566-.968-2.631-.968-1.6,0-3.4,.685-3.51,2.461-.591-1.424-1.766-2.461-3.658-2.461-2.665,0-3.944,1.994-4.183,4.182-.468-.749-1.254-1.257-2.258-1.388h0v-.037c1.343-.29,2.25-1.542,2.25-2.903,0-2.413-1.978-3.176-4.155-3.176h0Zm12.401,7.303c.456,.599,1.256,.899,2.206,1.154h0l1.47,.327c1.034,.254,2.05,.616,2.05,1.706,0,1.307-1.488,1.778-2.559,1.778-1.524,0-2.668-.799-2.758-2.341h-.395l.014-.054h-1.143c-.363,1.415-1.27,2.395-2.94,2.395-2.196,0-3.067-2.015-3.085-3.684h7.204c.015-.432-.009-.861-.065-1.281Zm-12.4-.57c2.159,0,3.411,.853,3.411,2.504,0,2.069-1.579,2.686-3.411,2.668H5.669v-5.172h4.246Zm8.346-2.45c1.851,0,2.922,1.615,2.976,3.339h-6.061c.182-1.706,1.216-3.339,3.085-3.339Zm-8.346-3.23c1.923,0,2.921,.817,2.921,2.432,0,1.216-.943,2.196-2.921,2.196H5.669v-4.627h4.247Zm16.972-2.452c-1.013,0-1.496,.895-1.483,1.817-.013,.928,.503,1.699,1.483,1.699,.797,0,1.32-.431,1.451-1.215h-.248c-.118,.621-.569,1-1.203,1-.83,0-1.248-.719-1.235-1.509h2.712c.046-.961-.425-1.79-1.477-1.79Zm-5.258-.967h-.248v1.045h-.621v.216h.621v2.346c-.026,.758,.464,.83,.974,.797h0v-.216c-.47,.013-.725-.039-.725-.582h0v-2.346h.732v-.216h-.732v-1.045Zm1.11-.262h-.248v4.665h.248v-1.817c0-.823,.457-1.404,1.209-1.404,.915,0,.954,.751,.954,1.098v2.123h.248v-2.14c-.004-.438-.069-1.297-1.196-1.297-.523,0-1.032,.294-1.202,.797h-.013v-2.026Zm4.148,1.444c.771,0,1.215,.653,1.228,1.359h-2.463c.052-.667,.49-1.359,1.235-1.359Z" fill="#fff" fill-rule="evenodd"/>
</svg>
