<?xml version="1.0" encoding="UTF-8"?>
<svg width="99px" height="72px" viewBox="0 0 99 72" version="1.1" xmlns="http://www.w3.org/2000/svg" xmlns:xlink="http://www.w3.org/1999/xlink">
    <title>Omar</title>
    <g id="Website" stroke="none" stroke-width="1" fill="none" fill-rule="evenodd" fill-opacity="0.5">
        <g id="about" transform="translate(-501.000000, -4426.000000)" fill="#153C63">
            <path d="M559.187844,4485.00312 C560.644517,4485.00312 561.94844,4485.04693 563.242761,4484.96591 C563.51885,4484.9509 563.769732,4484.49475 564.025715,4484.23547 C563.777234,4483.97288 563.535656,4483.48132 563.275771,4483.46932 C561.67055,4483.4006 560.057226,4483.44261 558.447203,4483.42754 C557.855411,4483.4222 557.552612,4483.7238 557.552612,4484.38852 C557.552612,4488.38642 557.539708,4492.39452 557.577821,4496.40202 C557.580221,4496.66671 557.955643,4497.07364 558.212527,4497.14956 C558.840931,4497.32812 559.231658,4497.08894 559.201948,4496.21056 C559.154833,4494.55252 559.187844,4492.89238 559.187844,4491.16712 C560.522377,4491.16712 561.681354,4491.15872 562.845732,4491.16712 C563.328589,4491.17402 563.742723,4491.15872 563.76463,4490.44329 C563.790739,4489.66063 563.371503,4489.60871 562.832828,4489.61172 C561.648043,4489.64383 560.465359,4489.62882 559.187844,4489.62882 L559.187844,4486.28243 L559.187844,4485.00312 L559.187844,4485.00312 Z M545.904028,4485.00312 C547.300382,4485.00312 548.563792,4484.99292 549.824502,4485.00642 C550.352974,4485.02322 550.693884,4484.88518 550.684581,4484.20336 C550.68038,4483.51313 550.31096,4483.4174 549.804395,4483.4222 C548.329716,4483.44261 546.859539,4483.47622 545.38486,4483.4174 C544.470763,4483.38049 544.190472,4483.79613 544.200675,4484.76064 C544.231885,4488.53797 544.217481,4492.31349 544.209978,4496.08392 C544.207277,4496.71862 544.231885,4497.18498 544.994433,4497.20688 C545.804696,4497.22699 545.864416,4496.75734 545.856913,4496.06381 C545.831705,4494.46639 545.851811,4492.88068 545.851811,4491.16712 C547.124525,4491.16712 548.2808,4491.15872 549.434075,4491.16712 C549.946642,4491.17402 550.424697,4491.19413 550.437301,4490.41148 C550.448105,4489.61172 549.983554,4489.61172 549.462584,4489.62342 C548.285902,4489.64052 547.105919,4489.62882 545.904028,4489.62882 L545.904028,4485.00312 L545.904028,4485.00312 Z M520.162567,4494.34365 C519.6509,4494.66686 519.215459,4494.96305 518.762912,4495.20883 C516.344126,4496.48635 513.936144,4495.33157 513.420276,4492.48545 C513.173596,4491.1047 513.168495,4489.5697 513.43198,4488.19616 C514.044479,4485.02322 516.618415,4483.93597 519.137434,4485.60061 C519.439632,4485.80258 519.745731,4485.98624 520.08094,4486.19811 C520.414949,4484.84317 520.306313,4484.50496 519.449535,4483.97288 C516.69584,4482.26953 513.283732,4483.55545 512.04493,4486.7905 C511.354705,4488.59859 511.266177,4490.4922 511.592983,4492.39932 C512.314117,4496.6361 515.882876,4498.55522 519.353804,4496.61749 C520.181773,4496.14964 520.552993,4495.52844 520.162567,4494.34365 L520.162567,4494.34365 Z M586.510219,4484.97761 C587.986098,4484.97761 589.353042,4484.9611 590.713084,4484.98121 C591.228052,4484.99292 591.595371,4484.87498 591.59267,4484.19165 C591.588469,4483.50653 591.209746,4483.4174 590.705582,4483.4222 C589.095559,4483.44261 587.485536,4483.46602 585.880314,4483.4174 C585.061648,4483.4006 584.815519,4483.78592 584.82097,4484.6478 C584.847979,4488.42843 584.847979,4492.19916 584.815519,4495.96808 C584.810767,4496.88848 585.153178,4497.17327 585.924429,4497.14956 C587.49964,4497.11745 589.070951,4497.14116 590.648563,4497.13786 C591.116415,4497.13786 591.641586,4497.2588 591.660792,4496.41403 C591.678498,4495.50833 591.133221,4495.59776 590.616453,4495.60256 L586.539328,4495.60256 L586.539328,4490.72268 C587.730415,4490.72268 588.847078,4490.72268 589.970643,4490.72958 C590.436995,4490.72958 590.878138,4490.75989 590.88474,4490.01565 C590.892543,4489.2684 590.471806,4489.2582 589.997652,4489.2582 C588.844677,4489.2651 587.691703,4489.2651 586.510219,4489.2651 L586.510219,4484.97761 L586.510219,4484.97761 Z M572.584195,4490.72268 C573.788486,4490.72268 574.87784,4490.72958 575.969295,4490.72268 C576.438047,4490.72268 576.990827,4490.85592 576.994428,4490.01925 C576.998629,4489.19608 576.468357,4489.2651 575.988501,4489.2651 C574.868237,4489.2582 573.744672,4489.2651 572.609403,4489.2651 L572.609403,4484.97101 C574.117693,4484.97101 575.550359,4485.00642 576.980923,4484.9389 C577.218301,4484.92899 577.607827,4484.46955 577.610528,4484.21536 C577.61533,4483.96268 577.231805,4483.47622 577.008833,4483.46932 C575.263165,4483.4072 573.511797,4483.43601 571.76763,4483.43601 C571.170136,4483.42761 570.893446,4483.75231 570.893446,4484.41553 C570.903349,4488.3342 570.903349,4492.26788 570.900048,4496.19525 C570.893446,4496.87858 571.21245,4497.14127 571.79824,4497.14127 C573.543607,4497.13786 575.289874,4497.15136 577.038242,4497.11925 C577.255513,4497.11745 577.578418,4496.92749 577.665146,4496.73063 C577.762978,4496.49835 577.745872,4496.0422 577.600925,4495.88195 C577.423567,4495.68359 577.064951,4495.61457 576.777157,4495.60946 C575.391007,4495.58246 574.003056,4495.60256 572.584195,4495.60256 L572.584195,4490.72268 L572.584195,4490.72268 Z M535.551866,4490.25332 C535.466938,4489.49738 535.419823,4488.74173 535.282378,4487.99089 C534.908757,4485.99614 533.767786,4484.89718 532.032923,4484.80085 C530.172318,4484.70332 528.716845,4485.67984 528.342324,4487.66768 C528.060532,4489.15737 528.028422,4490.76499 528.165566,4492.29339 C528.365131,4494.54562 529.669655,4495.7256 531.59448,4495.75591 C532.895703,4495.78442 533.93254,4495.24905 534.593354,4494.24762 C534.922261,4493.74766 535.157237,4493.13156 535.28688,4492.41463 C535.417122,4491.7091 535.466938,4490.99036 535.551866,4490.25332 L535.551866,4490.25332 Z M537.236013,4490.05106 C537.209904,4490.55282 537.192198,4491.00897 537.161889,4491.47022 C536.806873,4496.05721 533.310738,4498.52641 529.412171,4496.941 C527.231363,4496.05721 526.495824,4494.05406 526.310664,4491.73461 C526.219134,4490.57653 526.265349,4489.36624 526.447808,4488.21146 C527.157239,4483.86185 531.496048,4481.76777 534.893752,4484.07732 C536.33632,4485.06524 536.896903,4486.62755 537.127377,4488.38132 C537.202402,4488.947 537.203902,4489.52259 537.236013,4490.05106 L537.236013,4490.05106 Z M586.986474,4465.05984 C589.119267,4464.69462 591.19204,4464.3285 593.206294,4463.98579 C592.782857,4462.1774 592.282894,4460.50736 592.017608,4458.7887 C591.598672,4456.08032 591.278768,4453.35934 591.049794,4450.63085 C590.97837,4449.76897 591.322282,4448.86598 591.496939,4447.87116 C592.6076,4449.18228 593.450273,4450.32685 594.439995,4451.29137 C595.508042,4452.3165 596.292497,4452.26338 597.19699,4451.0693 C598.067573,4449.92292 598.728988,4448.58389 599.446221,4447.4006 C598.771002,4446.68697 598.250633,4446.19361 597.787282,4445.63993 C597.300824,4445.05144 596.883089,4444.39183 596.413736,4443.78833 C594.818718,4441.73206 593.56401,4441.78428 592.122042,4444.0095 C591.555758,4444.89329 591.065099,4445.8452 590.536327,4446.7653 C590.436995,4446.7818 590.33196,4446.79711 590.235329,4446.81391 C589.887516,4445.60692 589.576915,4444.38072 589.166982,4443.20254 C589.063448,4442.89014 588.601598,4442.4721 588.385228,4442.51982 C586.588244,4442.94236 584.808366,4443.46092 582.980172,4443.95759 C585.225802,4450.89074 586.047169,4457.95803 586.986474,4465.05984 L586.986474,4465.05984 Z M575.74032,4448.98632 C575.626584,4448.9323 575.512246,4448.88098 575.398509,4448.82697 C574.87784,4449.65704 574.25994,4450.42979 573.866812,4451.32858 C572.898097,4453.5319 572.5995,4455.90777 572.713837,4458.34456 C572.775057,4459.63798 573.335639,4460.42844 574.087984,4460.44854 C575.036892,4460.47045 576.819171,4458.55133 576.710836,4457.46227 C576.436247,4454.62755 576.070428,4451.81504 575.74032,4448.98632 L575.74032,4448.98632 Z M568.794264,4465.27621 C568.766355,4465.22729 568.741147,4465.19128 568.709337,4465.15317 C566.186117,4461.08325 565.785487,4456.70483 567.171337,4452.07432 C568.860586,4446.42679 573.051447,4443.45732 578.367974,4444.13254 C579.34179,4444.26458 580.315307,4444.50106 581.40376,4444.71983 C581.226102,4451.692 582.268941,4458.42859 583.468431,4465.32993 C581.522299,4465.80318 579.447725,4466.31305 577.306829,4466.83252 C577.218301,4465.78788 577.130672,4464.74594 577.018736,4463.42551 C576.458454,4464.0188 576.050021,4464.43534 575.651792,4464.86808 C575.428219,4465.10185 575.213349,4465.36024 574.991277,4465.59431 C572.805367,4467.95098 571.374802,4467.96868 569.170586,4465.66154 C569.046946,4465.53039 568.919705,4465.40915 568.794264,4465.27621 L568.794264,4465.27621 Z M568.794264,4465.27621 C568.766355,4465.22729 568.741147,4465.19128 568.709337,4465.15317 C568.016712,4464.56168 567.156332,4464.11903 566.670174,4463.36639 C565.8257,4462.04596 565.116269,4460.58659 564.516374,4459.10621 C563.614582,4456.84197 562.903651,4454.48981 561.997356,4452.22827 C561.498294,4450.99007 560.875292,4449.76897 560.111844,4448.72103 C559.150631,4447.41141 557.978451,4447.56896 557.181992,4449.01153 C556.680529,4449.91782 556.318612,4450.91775 555.905377,4451.87296 C555.684806,4452.37562 555.478639,4452.88729 555.354698,4453.20209 C554.391085,4452.23157 553.472187,4451.27036 552.513375,4450.36047 C551.188745,4449.11746 550.613158,4449.2396 549.841307,4450.93125 C549.472788,4451.75022 549.185594,4452.6076 548.856688,4453.44367 C548.67813,4453.89801 548.487868,4454.34576 548.302708,4454.80191 C547.596578,4453.65974 547.174941,4452.54397 546.737399,4451.43541 C546.053177,4449.72096 545.239913,4449.35724 543.713317,4450.18551 C542.855638,4450.65276 542.073884,4451.28236 541.257444,4451.83604 C541.254918,4451.83604 541.284328,4451.80393 541.284328,4451.80393 C541.572121,4455.48373 541.795094,4459.17103 542.181619,4462.83282 C542.427399,4465.17088 542.872444,4467.49063 543.343897,4469.78788 C543.575272,4470.92224 544.197974,4471.1074 544.999235,4470.34666 C545.588626,4469.78788 546.176817,4469.13006 546.549538,4468.38612 C547.778437,4465.88541 548.918808,4463.32528 550.087087,4460.79275 C550.231734,4460.47555 550.349673,4460.13614 550.586149,4459.56055 C550.735898,4460.43174 550.784814,4461.04183 550.949567,4461.59491 C551.643393,4463.89516 552.248389,4466.23832 553.139679,4468.44914 C553.690958,4469.80618 554.791716,4469.79118 555.556964,4468.53677 C556.116646,4467.60737 556.542484,4466.53452 556.872291,4465.46827 C557.272922,4464.17185 557.510299,4462.81601 557.88482,4461.19338 C558.110193,4461.92892 558.225731,4462.39858 558.405189,4462.84542 C559.032693,4464.48245 559.54556,4466.20771 560.360024,4467.72291 C561.571218,4469.97634 563.595375,4470.36676 565.442775,4468.77475 C566.647967,4467.73641 567.682403,4466.44929 568.794264,4465.27621 L568.794264,4465.27621 Z M508.125356,4464.95391 C508.090845,4469.43736 510.060985,4471.18843 513.414274,4469.97124 C515.019196,4469.39445 516.621716,4468.56528 518.003665,4467.49573 C526.406695,4460.96771 531.926988,4451.91677 535.948294,4441.60482 C536.739351,4439.56416 537.199101,4437.40706 537.002837,4435.14462 C536.729448,4431.9825 534.891351,4430.4694 532.102845,4431.12572 C529.237214,4431.79223 526.857741,4433.51599 524.646023,4435.52995 C518.060984,4441.51479 513.512706,4449.20089 509.972756,4457.69395 C508.948524,4460.15295 508.19858,4462.73438 508.125356,4464.95391 L508.125356,4464.95391 Z M541.284328,4451.80393 C541.090765,4452.15235 540.869293,4452.48486 540.709641,4452.85518 C537.703865,4459.47052 534.042975,4465.47578 528.407145,4469.71195 C524.766362,4472.44584 520.908909,4474.63895 516.519683,4475.4015 C508.728852,4476.73813 502.99459,4471.88496 501.992264,4463.15692 C501.207809,4456.37322 502.802827,4450.1645 506.116204,4444.57098 C510.405197,4437.32273 516.034125,4431.66559 523.234364,4428.13915 C526.624566,4426.47781 530.196626,4425.90702 533.883023,4426.61675 C539.090015,4427.62028 542.03007,4430.83432 543.096616,4436.65621 C543.944692,4441.26661 543.202551,4445.67504 541.789392,4450.01145 C541.594929,4450.60895 541.434076,4451.22174 541.257619,4451.83604 C541.254918,4451.83604 541.284328,4451.80393 541.284328,4451.80393 L541.284328,4451.80393 Z M598.166005,4458.43219 L598.318155,4458.43219 C598.495212,4458.43219 598.638659,4458.37307 598.638659,4458.22962 C598.638659,4458.10298 598.545929,4458.01865 598.343363,4458.01865 C598.259035,4458.01865 598.199916,4458.02706 598.166005,4458.03546 L598.166005,4458.43219 Z M598.157603,4459.21724 L597.836798,4459.21724 L597.836798,4457.83289 C597.96374,4457.80768 598.140797,4457.79088 598.368871,4457.79088 C598.630256,4457.79088 598.748795,4457.83289 598.849627,4457.89201 C598.925852,4457.95113 598.984971,4458.06097 598.984971,4458.19571 C598.984971,4458.34786 598.866733,4458.4658 598.697778,4458.51651 L598.697778,4458.53362 C598.833122,4458.58404 598.909047,4458.68547 598.95106,4458.87123 C598.993374,4459.0822 599.018582,4459.16653 599.052493,4459.21724 L598.706181,4459.21724 C598.664167,4459.16653 598.638659,4459.03988 598.596645,4458.87963 C598.571437,4458.72778 598.486809,4458.65996 598.309452,4458.65996 L598.157603,4458.65996 L598.157603,4459.21724 Z M597.305026,4458.49131 C597.305026,4459.10741 597.760874,4459.59687 598.385377,4459.59687 C598.993374,4459.59687 599.440819,4459.10741 599.440819,4458.49971 C599.440819,4457.88361 598.993374,4457.38545 598.377274,4457.38545 C597.760874,4457.38545 597.305026,4457.88361 597.305026,4458.49131 L597.305026,4458.49131 Z M599.795234,4458.49131 C599.795234,4459.27636 599.178834,4459.89246 598.377274,4459.89246 C597.583816,4459.89246 596.950911,4459.27636 596.950911,4458.49131 C596.950911,4457.72306 597.583816,4457.10696 598.377274,4457.10696 C599.178834,4457.10696 599.795234,4457.72306 599.795234,4458.49131 L599.795234,4458.49131 Z" id="Omar"></path>
        </g>
    </g>
</svg>