<?xml version="1.0" encoding="UTF-8"?>
<svg width="217px" height="30px" viewBox="0 0 217 30" version="1.1" xmlns="http://www.w3.org/2000/svg" xmlns:xlink="http://www.w3.org/1999/xlink">
    <title>wadsworth</title>
    <g id="Website" stroke="none" stroke-width="1" fill="none" fill-rule="evenodd" fill-opacity="0.5">
        <g id="about" transform="translate(-1041.000000, -4284.000000)" fill="#153C63">
            <g id="5" transform="translate(108.000000, 3230.000000)">
                <path d="M994.537617,1068.30544 L993.027932,1068.30544 L991.322657,1062.68244 L989.617382,1068.30544 L988.107386,1068.30544 L985.634675,1059.03806 L987.521858,1059.03806 L988.953804,1064.88214 L990.645708,1059.03806 L991.999605,1059.03806 L993.691198,1064.88214 L995.136515,1059.03806 L997.023388,1059.03806 L994.537617,1068.30544 Z M1001.85021,1061.77144 L1000.67885,1065.14281 L1002.98271,1065.14281 L1001.85021,1061.77144 Z M1004.01104,1068.30553 L1003.46407,1066.66524 L1000.17137,1066.66524 L999.611339,1068.30553 L997.723844,1068.30553 L1001.09521,1059.03784 L1002.51379,1059.03784 L1005.89822,1068.30553 L1004.01104,1068.30553 Z M1012.40414,1061.22484 C1012.10469,1060.84735 1011.66189,1060.65175 1011.05024,1060.65175 L1009.67022,1060.65175 L1009.67022,1066.69143 L1011.05024,1066.69143 C1011.66189,1066.69143 1012.10469,1066.49615 1012.40414,1066.11865 C1012.74214,1065.71503 1012.78164,1065.1295 1012.78164,1063.67175 C1012.78164,1062.21399 1012.74214,1061.62815 1012.40414,1061.22484 M1014.00462,1066.95201 C1013.34104,1067.87585 1012.46881,1068.30559 1011.20634,1068.30559 L1007.8614,1068.30559 L1007.8614,1059.03821 L1011.20634,1059.03821 C1012.46881,1059.03821 1013.34104,1059.46764 1014.00462,1060.3918 C1014.57771,1061.18597 1014.59046,1062.13594 1014.59046,1063.67175 C1014.59046,1065.20786 1014.57771,1066.15783 1014.00462,1066.95201 M1019.80812,1068.38349 C1018.4023,1068.38349 1017.33541,1068.08373 1016.424,1067.15988 L1017.59568,1065.98851 C1018.18121,1066.57435 1018.97507,1066.76994 1019.82087,1066.76994 C1020.90144,1066.76994 1021.47391,1066.35357 1021.47391,1065.61101 C1021.47391,1065.29882 1021.3828,1065.03824 1021.18783,1064.84327 C1021.00561,1064.67411 1020.82339,1064.59575 1020.35478,1064.53045 L1019.2484,1064.36191 C1018.42842,1064.24406 1017.8687,1063.99747 1017.45233,1063.59416 C1017.00953,1063.16411 1016.78813,1062.55246 1016.78813,1061.77135 C1016.78813,1060.11862 1018.01236,1058.96001 1020.01646,1058.96001 C1021.292,1058.96001 1022.21584,1059.27252 1023.01033,1060.04057 L1021.86477,1061.17276 C1021.292,1060.61335 1020.57649,1060.53499 1019.96391,1060.53499 C1019.00119,1060.53499 1018.54502,1061.06859 1018.54502,1061.70605 C1018.54502,1061.95357 1018.61063,1062.18772 1018.8056,1062.36993 C1018.98813,1062.5394 1019.26146,1062.66969 1019.65202,1062.72162 L1020.75809,1062.89078 C1021.6042,1063.00832 1022.12473,1063.2291 1022.52866,1063.61966 C1023.02308,1064.07552 1023.24417,1064.73848 1023.24417,1065.57183 C1023.24417,1067.36822 1021.76061,1068.38349 1019.80812,1068.38349 M1033.66839,1068.30544 L1032.15871,1068.30544 L1030.45375,1062.68244 L1028.74816,1068.30544 L1027.23879,1068.30544 L1024.76545,1059.03806 L1026.65264,1059.03806 L1028.08458,1064.88214 L1029.7768,1059.03806 L1031.13069,1059.03806 L1032.82198,1064.88214 L1034.26729,1059.03806 L1036.15448,1059.03806 L1033.66839,1068.30544 Z M1042.26943,1061.06843 C1042.00916,1060.7693 1041.60554,1060.57339 1041.11081,1060.57339 C1040.61671,1060.57339 1040.21278,1060.7693 1039.93945,1061.06843 C1039.60113,1061.45899 1039.49727,1061.90148 1039.49727,1063.67175 C1039.49727,1065.44139 1039.60113,1065.87144 1039.93945,1066.26138 C1040.21278,1066.56114 1040.61671,1066.76979 1041.11081,1066.76979 C1041.60554,1066.76979 1042.00916,1066.56114 1042.26943,1066.26138 C1042.60806,1065.87144 1042.72498,1065.44139 1042.72498,1063.67175 C1042.72498,1061.90148 1042.60806,1061.45899 1042.26943,1061.06843 M1043.58415,1067.40693 C1042.95944,1068.03226 1042.17801,1068.38333 1041.11081,1068.38333 C1040.04424,1068.38333 1039.24975,1068.03226 1038.62504,1067.40693 C1037.7012,1066.48309 1037.68814,1065.44139 1037.68814,1063.67175 C1037.68814,1061.90148 1037.7012,1060.86009 1038.62504,1059.93625 C1039.24975,1059.31185 1040.04424,1058.96016 1041.11081,1058.96016 C1042.17801,1058.96016 1042.95944,1059.31185 1043.58415,1059.93625 C1044.5083,1060.86009 1044.53411,1061.90148 1044.53411,1063.67175 C1044.53411,1065.44139 1044.5083,1066.48309 1043.58415,1067.40693 M1050.71533,1060.65182 L1049.01006,1060.65182 L1049.01006,1063.09903 L1050.71533,1063.09903 C1051.50889,1063.09903 1052.02974,1062.59155 1052.02974,1061.87542 C1052.02974,1061.15929 1051.50889,1060.65182 1050.71533,1060.65182 L1050.71533,1060.65182 Z M1052.12085,1068.30565 L1050.3114,1064.60903 L1049.01006,1064.60903 L1049.01006,1068.30565 L1047.20061,1068.30565 L1047.20061,1059.03827 L1050.83225,1059.03827 C1052.71943,1059.03827 1053.83887,1060.32656 1053.83887,1061.87542 C1053.83887,1063.17739 1053.04469,1063.98432 1052.14666,1064.30958 L1054.21606,1068.30565 L1052.12085,1068.30565 Z M1059.87665,1060.65182 L1059.87665,1068.30565 L1058.06751,1068.30565 L1058.06751,1060.65182 L1055.64642,1060.65182 L1055.64642,1059.03827 L1062.29712,1059.03827 L1062.29712,1060.65182 L1059.87665,1060.65182 Z M1069.53294,1068.30544 L1069.53294,1064.42659 L1066.39603,1064.42659 L1066.39603,1068.30544 L1064.58689,1068.30544 L1064.58689,1059.03806 L1066.39603,1059.03806 L1066.39603,1062.82548 L1069.53294,1062.82548 L1069.53294,1059.03806 L1071.34207,1059.03806 L1071.34207,1068.30544 L1069.53294,1068.30544 Z M1081.27057,1061.77144 L1080.09889,1065.14281 L1082.40276,1065.14281 L1081.27057,1061.77144 Z M1083.43108,1068.30553 L1082.8838,1066.66524 L1079.59142,1066.66524 L1079.03139,1068.30553 L1077.1442,1068.30553 L1080.51526,1059.03784 L1081.93415,1059.03784 L1085.31889,1068.30553 L1083.43108,1068.30553 Z M1089.9111,1060.65182 L1089.9111,1068.30565 L1088.10196,1068.30565 L1088.10196,1060.65182 L1085.68087,1060.65182 L1085.68087,1059.03827 L1092.33219,1059.03827 L1092.33219,1060.65182 L1089.9111,1060.65182 Z M1099.56739,1068.30544 L1099.56739,1064.42659 L1096.43048,1064.42659 L1096.43048,1068.30544 L1094.62135,1068.30544 L1094.62135,1059.03806 L1096.43048,1059.03806 L1096.43048,1062.82548 L1099.56739,1062.82548 L1099.56739,1059.03806 L1101.37684,1059.03806 L1101.37684,1068.30544 L1099.56739,1068.30544 Z M1104.35528,1068.30544 L1104.35528,1059.03806 L1110.45994,1059.03806 L1110.45994,1060.65191 L1106.16442,1060.65191 L1106.16442,1062.82548 L1109.82155,1062.82548 L1109.82155,1064.43965 L1106.16442,1064.43965 L1106.16442,1066.69127 L1110.45994,1066.69127 L1110.45994,1068.30544 L1104.35528,1068.30544 Z M1118.52772,1068.30544 L1114.85753,1062.61714 L1114.85753,1068.30544 L1113.04808,1068.30544 L1113.04808,1059.03806 L1114.66225,1059.03806 L1118.33276,1064.71298 L1118.33276,1059.03806 L1120.14189,1059.03806 L1120.14189,1068.30544 L1118.52772,1068.30544 Z M1123.12068,1068.30544 L1123.12068,1059.03806 L1129.22472,1059.03806 L1129.22472,1060.65191 L1124.93012,1060.65191 L1124.93012,1062.82548 L1128.58695,1062.82548 L1128.58695,1064.43965 L1124.93012,1064.43965 L1124.93012,1066.69127 L1129.22472,1066.69127 L1129.22472,1068.30544 L1123.12068,1068.30544 Z M1135.08058,1068.38349 C1133.18003,1068.38349 1131.67066,1067.09458 1131.67066,1065.12935 L1131.67066,1059.03806 L1133.47917,1059.03806 L1133.47917,1065.06405 C1133.47917,1066.13155 1134.10388,1066.76994 1135.08058,1066.76994 C1136.05698,1066.76994 1136.69475,1066.13155 1136.69475,1065.06405 L1136.69475,1059.03806 L1138.49051,1059.03806 L1138.49051,1065.12935 C1138.49051,1067.09458 1136.98083,1068.38349 1135.08058,1068.38349 M1147.91294,1068.30544 L1147.91294,1062.90384 L1146.14298,1066.41825 L1144.91844,1066.41825 L1143.13636,1062.90384 L1143.13636,1068.30544 L1141.32629,1068.30544 L1141.32629,1059.03806 L1143.10993,1059.03806 L1145.53102,1064.04909 L1147.93812,1059.03806 L1149.72145,1059.03806 L1149.72145,1068.30544 L1147.91294,1068.30544 Z M993.222745,1083.92148 L993.222745,1078.51958 L991.45248,1082.0343 L990.229496,1082.0343 L988.446171,1078.51958 L988.446171,1083.92148 L986.637037,1083.92148 L986.637037,1074.65379 L988.420051,1074.65379 L990.841143,1079.66514 L993.248865,1074.65379 L995.03219,1074.65379 L995.03219,1083.92148 L993.222745,1083.92148 Z M1001.2775,1083.99984 C999.377563,1083.99984 997.867256,1082.71125 997.867256,1080.7457 L997.867256,1074.65379 L999.676701,1074.65379 L999.676701,1080.6804 C999.676701,1081.74791 1000.3011,1082.38568 1001.2775,1082.38568 C1002.25389,1082.38568 1002.89135,1081.74791 1002.89135,1080.6804 L1002.89135,1074.65379 L1004.68774,1074.65379 L1004.68774,1080.7457 C1004.68774,1082.71125 1003.17774,1083.99984 1001.2775,1083.99984 M1010.07409,1083.99984 C1008.66827,1083.99984 1007.60138,1083.70008 1006.69028,1082.77531 L1007.86196,1081.60487 C1008.44749,1082.19071 1009.24135,1082.38568 1010.08746,1082.38568 C1011.16772,1082.38568 1011.74019,1081.96869 1011.74019,1081.22675 C1011.74019,1080.91486 1011.64908,1080.65459 1011.4538,1080.45869 C1011.27189,1080.28922 1011.08967,1080.21211 1010.62075,1080.14649 L1009.51437,1079.97734 C1008.6947,1079.86011 1008.13529,1079.6129 1007.71861,1079.20959 C1007.2755,1078.77985 1007.0541,1078.16851 1007.0541,1077.38677 C1007.0541,1075.73498 1008.27833,1074.57543 1010.28243,1074.57543 C1011.55797,1074.57543 1012.48212,1074.88825 1013.27661,1075.65693 L1012.13106,1076.78912 C1011.55797,1076.22878 1010.84277,1076.15073 1010.23019,1076.15073 C1009.26747,1076.15073 1008.8113,1076.68464 1008.8113,1077.32209 C1008.8113,1077.56992 1008.8766,1077.80376 1009.07188,1077.98598 C1009.25441,1078.15545 1009.52805,1078.28574 1009.9183,1078.33767 L1011.02437,1078.50652 C1011.87048,1078.62344 1012.39101,1078.84546 1012.79494,1079.23571 C1013.28905,1079.69157 1013.51014,1080.35483 1013.51014,1081.18819 C1013.51014,1082.98396 1012.02689,1083.99984 1010.07409,1083.99984 M1016.03385,1083.92148 L1016.03385,1074.65379 L1022.1382,1074.65379 L1022.1382,1076.26796 L1017.84298,1076.26796 L1017.84298,1078.44153 L1021.50043,1078.44153 L1021.50043,1080.05539 L1017.84298,1080.05539 L1017.84298,1082.30794 L1022.1382,1082.30794 L1022.1382,1083.92148 L1016.03385,1083.92148 Z M1027.99406,1083.99984 C1026.09351,1083.99984 1024.58351,1082.71125 1024.58351,1080.7457 L1024.58351,1074.65379 L1026.39296,1074.65379 L1026.39296,1080.6804 C1026.39296,1081.74791 1027.01767,1082.38568 1027.99406,1082.38568 C1028.97015,1082.38568 1029.60761,1081.74791 1029.60761,1080.6804 L1029.60761,1074.65379 L1031.4043,1074.65379 L1031.4043,1080.7457 C1031.4043,1082.71125 1029.89369,1083.99984 1027.99406,1083.99984 M1040.82582,1083.92148 L1040.82582,1078.51958 L1039.05556,1082.0343 L1037.83226,1082.0343 L1036.04894,1078.51958 L1036.04894,1083.92148 L1034.24012,1083.92148 L1034.24012,1074.65379 L1036.02344,1074.65379 L1038.44422,1079.66514 L1040.85194,1074.65379 L1042.63496,1074.65379 L1042.63496,1083.92148 L1040.82582,1083.92148 Z M1053.72161,1076.68479 C1053.46134,1076.38472 1053.05741,1076.18975 1052.5633,1076.18975 C1052.06857,1076.18975 1051.66496,1076.38472 1051.39163,1076.68479 C1051.05331,1077.07473 1050.94914,1077.51753 1050.94914,1079.2881 C1050.94914,1081.05806 1051.05331,1081.48749 1051.39163,1081.87805 C1051.66496,1082.17749 1052.06857,1082.38552 1052.5633,1082.38552 C1053.05741,1082.38552 1053.46134,1082.17749 1053.72161,1081.87805 C1054.05962,1081.48749 1054.17716,1081.05806 1054.17716,1079.2881 C1054.17716,1077.51753 1054.05962,1077.07473 1053.72161,1076.68479 M1055.0357,1083.0236 C1054.411,1083.648 1053.6305,1084 1052.5633,1084 C1051.4958,1084 1050.70193,1083.648 1050.07691,1083.0236 C1049.15306,1082.09913 1049.14,1081.05806 1049.14,1079.2881 C1049.14,1077.51753 1049.15306,1076.47583 1050.07691,1075.55167 C1050.70193,1074.9279 1051.4958,1074.57621 1052.5633,1074.57621 C1053.6305,1074.57621 1054.411,1074.9279 1055.0357,1075.55167 C1055.96017,1076.47583 1055.98567,1077.51753 1055.98567,1079.2881 C1055.98567,1081.05806 1055.96017,1082.09913 1055.0357,1083.0236 M1060.46211,1076.26786 L1060.46211,1078.54561 L1064.11925,1078.54561 L1064.11925,1080.15977 L1060.46211,1080.15977 L1060.46211,1083.92139 L1058.65298,1083.92139 L1058.65298,1074.65401 L1064.75733,1074.65401 L1064.75733,1076.26786 L1060.46211,1076.26786 Z M1074.10008,1077.38749 L1072.92903,1080.75886 L1075.23258,1080.75886 L1074.10008,1077.38749 Z M1076.26091,1083.92158 L1075.71394,1082.2816 L1072.42124,1082.2816 L1071.86152,1083.92158 L1069.97403,1083.92158 L1073.3454,1074.65389 L1074.76397,1074.65389 L1078.14809,1083.92158 L1076.26091,1083.92158 Z M1083.62549,1076.26786 L1081.92115,1076.26786 L1081.92115,1078.71446 L1083.62549,1078.71446 C1084.41998,1078.71446 1084.94052,1078.20667 1084.94052,1077.49147 C1084.94052,1076.77565 1084.41998,1076.26786 1083.62549,1076.26786 L1083.62549,1076.26786 Z M1085.03132,1083.92139 L1083.2225,1080.22507 L1081.92115,1080.22507 L1081.92115,1083.92139 L1080.11171,1083.92139 L1080.11171,1074.65401 L1083.74303,1074.65401 C1085.63053,1074.65401 1086.74965,1075.94292 1086.74965,1077.49147 C1086.74965,1078.79282 1085.95548,1079.60005 1085.05744,1079.92593 L1087.12715,1083.92139 L1085.03132,1083.92139 Z M1092.78743,1076.26786 L1092.78743,1083.92139 L1090.9783,1083.92139 L1090.9783,1076.26786 L1088.5572,1076.26786 L1088.5572,1074.65401 L1095.20852,1074.65401 L1095.20852,1076.26786 L1092.78743,1076.26786 Z M960.613805,1054 L960.613805,1058.40654 L955.113328,1056.4581 L949.613163,1058.40654 L949.613163,1054 L945.273169,1054 L945.273169,1062.07207 L937.863743,1062.07207 L937.863743,1059.3052 L933.599,1059.3052 L933.599,1083.99997 L955.113328,1083.99997 L976.628278,1083.99997 L976.628278,1059.3052 L972.362603,1059.3052 L972.362603,1062.07207 L964.953798,1062.07207 L964.953798,1054 L960.613805,1054 Z" id="wadsworth"></path>
            </g>
        </g>
    </g>
</svg>