<svg id="Layer_1" data-name="Layer 1" xmlns="http://www.w3.org/2000/svg" viewBox="0 0 440.93 116.66" opacity=".5" width="162" height="43">
  <path d="M343.7,62.07c0,14.24-2.3,17.37-20.57,17.37s-20.41-3.13-20.41-17.37v-23c0-2.23-.91-2.64-2.72-2.64v-14.93h19.42v40.41c0,2.14.83,2.71,3.21,2.71h2.47c2.39,0,3-.57,3-2.71V21.5h18.35v14.91c-1.89,0-2.72.41-2.72,2.64l-.03,23.02Z" fill="#153c63" stroke-width="0"/>
  <path d="M352.51,60.59h15.88v2.06c0,2.63,1.2,2.76,3.2,2.76h2.56c2,0,3.37-.16,3.37-2.71v-2.29c0-2.8-3.21-3-5.68-3.46l-7.25-1.22c-7.41-1.23-12.27-4.69-12.27-13.25v-6.5c0-12.26,7.08-14.48,20.58-14.48h20.74v18.35h-15.45v-2.39c0-2.47-1.15-2.71-3.13-2.71h-2.63c-1.9,0-3.29.16-3.29,2.71v2.47c0,2.22,1.64,2.88,3.45,3.13l12.59,1.64c6.42.91,9.8,4.45,9.8,11.2v7.74c0,13.49-8.81,15-21.07,15h-21.4v-18.05Z" fill="#153c63" stroke-width="0"/>
  <path d="M421.59,61.91v-22.88c0-2.23-.49-2.64-3.46-2.64v-14.89h22.8v14.91c-1.81,0-2.71.41-2.71,2.64v24c0,11.69-2.39,16.38-18.69,16.38-18.76,0-19.83-4.69-19.83-17.37v-3.65h14.29v3.5c0,2.14.49,2.71,2.8,2.71h1.89c2.31,0,2.91-.57,2.91-2.71Z" fill="#153c63" stroke-width="0"/>
  <path d="M8.66,43.21c-5.7,0-8.66-3.68-8.66-10v-13.41h3.46v13.27c0,4.35,1.81,6.69,5.27,6.69,3.62,0,5.33-2.24,5.33-6.46v-13.5h3.46v13.44c0,6.45-3.13,9.97-8.86,9.97Z" fill="#153c63" stroke-width="0"/>
  <path d="M37.59,42.85l-9.21-14.44c-.56-.86-1.35-2.24-1.71-2.84v17.28h-3.33v-23h3.52l8.73,14.01c.6,1,1.58,2.67,1.91,3.26v-17.32h3.36v23l-3.27.05Z" fill="#153c63" stroke-width="0"/>
  <path d="M47.01,42.85v-23h3.46v23h-3.46Z" fill="#153c63" stroke-width="0"/>
  <path d="M66.83,42.85h-3.65l-8-23h3.75l4.81,14.69c.43,1.35,1.08,3.39,1.28,4.21.2-.82.86-2.89,1.29-4.24l4.74-14.66h3.68l-7.9,23Z" fill="#153c63" stroke-width="0"/>
  <path d="M79.27,42.85v-23h14.86v3.36h-11.4v5.7h6.62v3.36h-6.62v7.27h11.86v3.36l-15.32-.05Z" fill="#153c63" stroke-width="0"/>
  <path d="M111.97,33.41l4.71,9.42h-4l-4.57-9.12h-5.21v9.12h-3.39v-23h10.08c4,0,7.41,2.14,7.41,6.88.04,3.7-1.9,5.93-5.03,6.7ZM109.59,23.06h-6.72v7.41h6.72c2.31,0,3.92-1.18,3.92-3.69s-1.54-3.72-3.92-3.72Z" fill="#153c63" stroke-width="0"/>
  <path d="M129.28,43.21c-3.149.032-6.15-1.33-8.2-3.72l2.47-2.4c1.547,1.687,3.712,2.672,6,2.73,3.22,0,4.77-1.12,4.77-3.36,0-1.77-1.35-2.66-5.2-3.82-4.88-1.44-7.21-2.66-7.21-6.78s3.36-6.42,7.6-6.42c2.837-.039,5.564,1.094,7.54,3.13l-2.46,2.47c-1.386-1.479-3.344-2.286-5.37-2.21-2.7,0-3.85,1.32-3.85,2.87s1.05,2.4,5,3.59c4.54,1.38,7.37,2.83,7.37,6.94s-2.56,6.98-8.46,6.98Z" fill="#153c63" stroke-width="0"/>
  <path d="M143.14,42.85v-23h3.45v23h-3.45Z" fill="#153c63" stroke-width="0"/>
  <path d="M161.48,23.19v19.66h-3.46v-19.66h-6.71v-3.39h16.89v3.39h-6.72Z" fill="#153c63" stroke-width="0"/>
  <path d="M182.81,33.73v9.12h-3.45v-9.12l-8.27-13.93h4.05l3.59,6.36c.79,1.41,2,3.72,2.37,4.57.4-.85,1.55-3.06,2.37-4.54l3.62-6.39h4l-8.28,13.93Z" fill="#153c63" stroke-width="0"/>
  <path d="M212.97,43.21c-5.83,0-9.78-4.67-9.78-11.85s4-11.92,9.84-11.92,9.82,4.68,9.82,11.85-4.02,11.92-9.88,11.92ZM212.97,22.86c-3.66,0-6.23,3.2-6.23,8.43s2.67,8.5,6.36,8.5,6.25-3.19,6.25-8.43-2.76-8.5-6.41-8.5h.03Z" fill="#153c63" stroke-width="0"/>
  <path d="M231.17,23.19v6h6.62v3.42h-6.62v10.24h-3.45v-23h14.87v3.39l-11.42-.05Z" fill="#153c63" stroke-width="0"/>
  <path d="M12.77,82.72c-3.141.025-6.134-1.336-8.18-3.72l2.46-2.4c1.549,1.683,3.713,2.668,6,2.73,3.22,0,4.77-1.12,4.77-3.36,0-1.78-1.35-2.67-5.2-3.82-4.87-1.45-7.21-2.67-7.21-6.78s3.36-6.42,7.6-6.42c2.848-.044,5.588,1.084,7.58,3.12l-2.44,2.47c-1.387-1.476-3.346-2.278-5.37-2.2-2.7,0-3.85,1.31-3.85,2.86s1.05,2.41,5,3.59c4.54,1.38,7.37,2.83,7.37,7s-2.63,6.93-8.53,6.93Z" fill="#153c63" stroke-width="0"/>
  <path d="M41.68,82.41l-1.94-5.47h-9.22l-1.93,5.47h-3.57l8.3-23h3.65l8.4,23h-3.69ZM36.84,68.49c-.56-1.64-1.48-4.31-1.74-5.3-.27,1-1.09,3.63-1.68,5.34l-1.83,5.27h7.11l-1.86-5.31Z" fill="#153c63" stroke-width="0"/>
  <path d="M50.07,82.41v-23h3.46v23h-3.46Z" fill="#153c63" stroke-width="0"/>
  <path d="M73.91,82.41l-9.19-14.51c-.56-.85-1.35-2.24-1.71-2.83v17.34h-3.32v-23h3.52l8.76,14c.59,1,1.58,2.67,1.91,3.26v-17.36h3.36v23.1h-3.33Z" fill="#153c63" stroke-width="0"/>
  <path d="M91.92,62.7v19.71h-3.46v-19.71h-6.72v-3.39h16.85v3.39h-6.67Z" fill="#153c63" stroke-width="0"/>
  <path d="M117.89,82.72c-4.31,0-6.88-2.27-8-6.12l3.36-1c.88,2.37,2.27,3.65,4.77,3.65,3.33,0,4.64-1.87,4.64-6.25v-13.69h3.46v14c-.03,6.15-2.66,9.41-8.23,9.41Z" fill="#153c63" stroke-width="0"/>
  <path d="M140.59,82.72c-5.82,0-9.78-4.68-9.78-11.85s4-11.92,9.85-11.92,9.81,4.67,9.81,11.85-4.03,11.92-9.88,11.92ZM140.59,62.41c-3.65,0-6.22,3.19-6.22,8.43s2.67,8.5,6.35,8.5,6.26-3.2,6.26-8.43-2.75-8.5-6.39-8.5Z" fill="#153c63" stroke-width="0"/>
  <path d="M162.24,82.72c-3.148.031-6.149-1.331-8.2-3.72l2.47-2.4c1.547,1.686,3.713,2.671,6,2.73,3.23,0,4.77-1.12,4.77-3.36,0-1.78-1.35-2.67-5.2-3.82-4.87-1.45-7.21-2.67-7.21-6.78s3.36-6.42,7.61-6.42c2.835-.038,5.561,1.09,7.54,3.12l-2.43,2.47c-1.387-1.476-3.346-2.278-5.37-2.2-2.7,0-3.85,1.31-3.85,2.86s1.05,2.41,5,3.59c4.54,1.38,7.38,2.83,7.38,7s-2.62,6.93-8.51,6.93Z" fill="#153c63" stroke-width="0"/>
  <path d="M175.93,82.41v-23h14.85v3.36h-11.39v5.64h6.62v3.36h-6.62v7.28h11.89v3.36h-15.35Z" fill="#153c63" stroke-width="0"/>
  <path d="M205.59,73.76h-6v8.65h-3.39v-23h9.65c4.24,0,7.4,2.43,7.4,7.21s-3.18,7.14-7.66,7.14ZM205.76,62.57h-6.17v7.93h6.19c2.63,0,4-1.51,4-4,.178-1.997-1.296-3.76-3.293-3.938-.242-.022-.486-.019-.727.008Z" fill="#153c63" stroke-width="0"/>
  <path d="M231.74,82.41v-10.33h-10.61v10.33h-3.46v-23h3.46v9.32h10.61v-9.42h3.45v23.1h-3.45Z" fill="#153c63" stroke-width="0"/>
  <line x1="270.84" x2="270.84" y2="116.66" fill="none" stroke="#153c63" stroke-width="2.74"/>
  <path d="M117.01,108.06c-2.48,0-4.11-2.25-4.11-5.22s1.7-5.25,4.15-5.25c1.287-.054,2.511.558,3.24,1.62l-.9.68c-.498-.826-1.407-1.313-2.37-1.27-1.74,0-3,1.72-3,4.19s1.29,4.22,3,4.22c1.007.006,1.95-.494,2.51-1.33l.78.68c-.759,1.066-1.991,1.694-3.3,1.68Z" fill="#153c63" stroke-width="0"/>
  <path d="M128.84,108.06c-2.53,0-4.2-2.16-4.2-5.22s1.7-5.25,4.23-5.25,4.2,2.16,4.2,5.22-1.71,5.25-4.23,5.25ZM128.84,98.62c-1.75,0-3,1.64-3,4.19s1.34,4.22,3.11,4.22,3.06-1.64,3.06-4.19-1.42-4.22-3.19-4.22h.02Z" fill="#153c63" stroke-width="0"/>
  <path d="M144.47,107.9l-4.44-6.95c-.22-.34-.6-1-.73-1.27v8.22h-1.09v-10.15h1.11l4.39,7.08c.22.35.6,1,.73,1.28v-8.36h1.09v10.15h-1.06Z" fill="#153c63" stroke-width="0"/>
  <path d="M157.36,107.9l-4.44-6.95c-.22-.34-.6-1-.73-1.27v8.22h-1.09v-10.15h1.11l4.39,7.08c.22.35.6,1,.73,1.28v-8.36h1.09v10.15h-1.06Z" fill="#153c63" stroke-width="0"/>
  <path d="M163.99,107.9v-10.15h6.14v1h-5v3.19h2.91v1h-2.91v3.87h5.23v1l-6.37.09Z" fill="#153c63" stroke-width="0"/>
  <path d="M178.68,108.06c-2.48,0-4.1-2.25-4.1-5.22s1.69-5.25,4.15-5.25c1.284-.054,2.506.558,3.23,1.62l-.9.68c-.493-.826-1.399-1.314-2.36-1.27-1.74,0-3,1.72-3,4.19s1.29,4.22,3,4.22c1.007.006,1.95-.494,2.51-1.33l.78.68c-.761,1.069-1.998,1.697-3.31,1.68Z" fill="#153c63" stroke-width="0"/>
  <path d="M190.35,98.78v9.12h-1.13v-9.12h-3v-1h7.11v1h-2.98Z" fill="#153c63" stroke-width="0"/>
  <path d="M198.37,107.9v-10.15h1.13v10.15h-1.13Z" fill="#153c63" stroke-width="0"/>
  <path d="M208.82,108.06c-2.49,0-4.11-2.25-4.11-5.22s1.7-5.25,4.15-5.25c1.287-.054,2.511.558,3.24,1.62l-.9.68c-.498-.826-1.407-1.313-2.37-1.27-1.74,0-3,1.72-3,4.19s1.29,4.22,3,4.22c1.01.009,1.958-.491,2.52-1.33l.78.68c-.761,1.069-1.998,1.697-3.31,1.68Z" fill="#153c63" stroke-width="0"/>
  <path d="M220.65,108.06c-2.43,0-3.67-1.46-3.67-4.28v-6h1.13v6c0,2.2.84,3.28,2.6,3.28s2.45-1.06,2.45-3.25v-6h1.13v6c0,2.76-1.21,4.25-3.64,4.25Z" fill="#153c63" stroke-width="0"/>
  <path d="M233.29,98.78v9.12h-1.13v-9.12h-3v-1h7.11v1h-2.98Z" fill="#153c63" stroke-width="0"/>
</svg>
