<?xml version="1.0" encoding="UTF-8"?>
<svg width="181px" height="60px" viewBox="0 0 181 60" version="1.1" xmlns="http://www.w3.org/2000/svg" xmlns:xlink="http://www.w3.org/1999/xlink">
    <title>lifeway</title>
    <g id="Website" stroke="none" stroke-width="1" fill="none" fill-rule="evenodd" fill-opacity="0.5">
        <g id="about" transform="translate(-1059.000000, -4432.000000)" fill="#153C63">
            <path d="M1202.05366,4471.40254 C1198.134,4482.25194 1187.76173,4490.04232 1175.57744,4490.04232 C1163.39293,4490.04232 1153.02088,4482.25194 1149.101,4471.40254 L1147.79037,4471.40254 C1151.76275,4482.94463 1162.70381,4491.2731 1175.57744,4491.2731 C1188.45108,4491.2731 1199.39213,4482.94463 1203.36451,4471.40254 L1202.05366,4471.40254 Z M1149.14482,4452.21754 C1153.09763,4441.43019 1163.43764,4433.69676 1175.57744,4433.69676 C1187.71702,4433.69676 1198.05725,4441.43019 1202.01006,4452.21754 L1203.32091,4452.21754 C1199.31405,4440.73773 1188.40637,4432.46598 1175.57744,4432.46598 C1162.74852,4432.46598 1151.84083,4440.73773 1147.83397,4452.21754 L1149.14482,4452.21754 Z M1238.32535,4455.51325 L1239.66022,4455.51325 L1234.19993,4468.55816 C1233.08838,4471.20211 1231.80333,4472.14038 1229.99977,4472.14038 C1229.03659,4472.14038 1228.3448,4471.96776 1227.50441,4471.59695 L1227.92416,4470.53501 C1228.59193,4470.85599 1229.13536,4471.00459 1230.07362,4471.00459 C1231.38358,4471.00459 1232.248,4470.23805 1233.18693,4468.03965 L1227.1336,4455.51325 L1228.54233,4455.51325 L1233.78018,4466.77951 L1238.32535,4455.51325 Z M1219.25558,4464.87741 L1219.25558,4456.62568 L1217.42732,4456.62568 L1217.42732,4455.51325 L1219.25558,4455.51325 L1219.25558,4451.48637 L1220.46611,4451.48637 L1220.46611,4455.51325 L1224.88849,4455.51325 L1224.88849,4456.62568 L1220.46611,4456.62568 L1220.46611,4464.75373 C1220.46611,4466.55729 1221.52872,4467.19948 1222.98616,4467.19948 C1223.60344,4467.19948 1224.12284,4467.07581 1224.83866,4466.75482 L1224.83866,4467.89128 C1224.19669,4468.18735 1223.57852,4468.33594 1222.78796,4468.33594 C1220.8367,4468.33594 1219.25558,4467.27334 1219.25558,4464.87741 L1219.25558,4464.87741 Z M1213.30902,4468.1135 L1214.51933,4468.1135 L1214.51933,4455.51325 L1213.30902,4455.51325 L1213.30902,4468.1135 Z M1213.16065,4452.22822 L1214.66792,4452.22822 L1214.66792,4450.57236 L1213.16065,4450.57236 L1213.16065,4452.22822 Z M1207.75152,4468.1135 L1208.96183,4468.1135 L1208.96183,4450.07853 L1207.75152,4450.07853 L1207.75152,4468.1135 Z M1202.19335,4468.1135 L1203.40366,4468.1135 L1203.40366,4455.51325 L1202.19335,4455.51325 L1202.19335,4468.1135 Z M1197.36145,4461.86287 L1197.36145,4461.81371 C1197.36145,4458.50287 1195.06429,4456.37833 1192.42034,4456.37833 C1189.80152,4456.37833 1187.28192,4458.57761 1187.28192,4461.78879 L1187.28192,4461.83795 C1187.28192,4465.07471 1189.80152,4467.24909 1192.42034,4467.24909 C1195.16306,4467.24909 1197.36145,4465.24733 1197.36145,4461.86287 L1197.36145,4461.86287 Z M1187.35577,4465.39592 L1187.35577,4468.1135 L1186.14546,4468.1135 L1186.14546,4450.07853 L1187.35577,4450.07853 L1187.35577,4458.33026 C1188.44262,4456.67462 1190.04866,4455.21695 1192.54402,4455.21695 C1195.5828,4455.21695 1198.6712,4457.66338 1198.6712,4461.7641 L1198.6712,4461.81371 C1198.6712,4465.91443 1195.5828,4468.40979 1192.54402,4468.40979 C1190.02374,4468.40979 1188.39369,4466.97704 1187.35577,4465.39592 L1187.35577,4465.39592 Z M1181.40855,4461.86287 L1181.40855,4461.81371 C1181.40855,4458.77492 1179.13563,4456.35364 1176.2203,4456.35364 C1173.23134,4456.35364 1171.08188,4458.79983 1171.08188,4461.7641 L1171.08188,4461.81371 C1171.08188,4464.85249 1173.35502,4467.27334 1176.27013,4467.27334 C1179.25909,4467.27334 1181.40855,4464.82758 1181.40855,4461.86287 L1181.40855,4461.86287 Z M1169.77214,4461.86287 L1169.77214,4461.81371 C1169.77214,4458.28065 1172.51463,4455.21695 1176.27013,4455.21695 C1180.00071,4455.21695 1182.71851,4458.23083 1182.71851,4461.7641 L1182.71851,4461.81371 C1182.71851,4465.34698 1179.9758,4468.40979 1176.2203,4468.40979 C1172.48972,4468.40979 1169.77214,4465.39592 1169.77214,4461.86287 L1169.77214,4461.86287 Z M1147.43402,4455.51325 L1148.64433,4455.51325 L1148.64433,4457.76214 C1149.4598,4456.45218 1150.59626,4455.21695 1152.84449,4455.21695 C1155.04289,4455.21695 1156.40179,4456.47709 1157.09358,4457.93476 C1157.90906,4456.52692 1159.26774,4455.21695 1161.63964,4455.21695 C1164.6286,4455.21695 1166.48177,4457.31681 1166.48177,4460.47905 L1166.48177,4468.1135 L1165.27146,4468.1135 L1165.27146,4460.62764 C1165.27146,4457.90984 1163.86295,4456.32872 1161.54088,4456.32872 C1159.41633,4456.32872 1157.56316,4457.95967 1157.56316,4460.77601 L1157.56316,4468.1135 L1156.35263,4468.1135 L1156.35263,4460.55357 C1156.35263,4457.93476 1154.91921,4456.32872 1152.67121,4456.32872 C1150.42298,4456.32872 1148.64433,4458.30557 1148.64433,4460.84986 L1148.64433,4468.1135 L1147.43402,4468.1135 L1147.43402,4455.51325 Z M1141.95971,4455.06858 L1145.07324,4455.06858 L1139.88499,4468.48431 C1138.8473,4471.15229 1137.68592,4472.14038 1135.58607,4472.14038 C1134.35084,4472.14038 1133.41191,4471.84408 1132.49768,4471.34982 L1133.51068,4469.1265 C1134.05411,4469.42346 1134.64714,4469.62077 1135.26508,4469.62077 C1136.10458,4469.62077 1136.62398,4469.25018 1137.11758,4468.13841 L1131.6822,4455.06858 L1134.89427,4455.06858 L1138.57525,4464.75373 L1141.95971,4455.06858 Z M1126.46415,4461.61551 L1126.46415,4461.56657 C1126.46415,4459.0463 1124.6855,4457.39133 1122.68374,4457.39133 C1120.63304,4457.39133 1118.92913,4458.97245 1118.92913,4461.56657 L1118.92913,4461.61551 C1118.92913,4464.13578 1120.65795,4465.79165 1122.68374,4465.79165 C1124.6855,4465.79165 1126.46415,4464.11087 1126.46415,4461.61551 L1126.46415,4461.61551 Z M1115.91437,4461.61551 L1115.91437,4461.56657 C1115.91437,4457.24296 1118.85439,4454.79721 1121.96769,4454.79721 C1124.11716,4454.79721 1125.47606,4455.85981 1126.41432,4457.09437 L1126.41432,4455.06858 L1129.40417,4455.06858 L1129.40417,4468.1135 L1126.41432,4468.1135 L1126.41432,4465.93935 C1125.45114,4467.29803 1124.09224,4468.38488 1121.96769,4468.38488 C1118.90422,4468.38488 1115.91437,4465.93935 1115.91437,4461.61551 L1115.91437,4461.61551 Z M1094.83483,4455.06858 L1097.89853,4455.06858 L1100.51734,4464.01211 L1103.40776,4455.01965 L1105.97697,4455.01965 L1108.86783,4464.01211 L1111.53581,4455.06858 L1114.54968,4455.06858 L1110.2759,4468.21227 L1107.58301,4468.21227 L1104.6679,4459.29343 L1101.72788,4468.21227 L1099.0599,4468.21227 L1094.83483,4455.06858 Z M1090.69695,4460.67725 C1090.49943,4458.75023 1089.36297,4457.24296 1087.38612,4457.24296 C1085.55853,4457.24296 1084.27348,4458.65147 1084.00144,4460.67725 L1090.69695,4460.67725 Z M1081.03739,4461.64043 L1081.03739,4461.59149 C1081.03739,4457.86091 1083.68045,4454.79721 1087.41103,4454.79721 C1091.56226,4454.79721 1093.66189,4458.05821 1093.66189,4461.81371 C1093.66189,4462.08509 1093.63698,4462.35713 1093.61206,4462.65343 L1084.02635,4462.65343 C1084.34733,4464.77798 1085.8546,4465.96404 1087.78185,4465.96404 C1089.23929,4465.96404 1090.27721,4465.42083 1091.3149,4464.40783 L1093.06864,4465.96404 C1091.83341,4467.44662 1090.12861,4468.40979 1087.73202,4468.40979 C1083.9525,4468.40979 1081.03739,4465.66797 1081.03739,4461.64043 L1081.03739,4461.64043 Z M1073.47457,4457.63846 L1071.81937,4457.63846 L1071.81937,4455.1431 L1073.47457,4455.1431 L1073.47457,4454.17926 C1073.47457,4452.74651 1073.84538,4451.65988 1074.53718,4450.96786 C1075.22897,4450.27606 1076.19215,4449.93016 1077.4772,4449.93016 C1078.51489,4449.93016 1079.2316,4450.07853 1079.89871,4450.27606 L1079.89871,4452.79567 C1079.30545,4452.59814 1078.78627,4452.47513 1078.14408,4452.47513 C1077.00762,4452.47513 1076.41459,4453.09241 1076.41459,4454.45131 L1076.41459,4455.16802 L1079.87379,4455.16802 L1079.87379,4457.63846 L1076.4642,4457.63846 L1076.4642,4468.1135 L1073.47457,4468.1135 L1073.47457,4457.63846 Z M1066.30814,4468.1135 L1069.2971,4468.1135 L1069.2971,4455.06858 L1066.30814,4455.06858 L1066.30814,4468.1135 Z M1066.18446,4453.06771 L1069.39653,4453.06771 L1069.39653,4450.22712 L1066.18446,4450.22712 L1066.18446,4453.06771 Z M1059.66022,4468.1135 L1062.64918,4468.1135 L1062.64918,4450.07853 L1059.66022,4450.07853 L1059.66022,4468.1135 Z" id="lifeway"></path>
        </g>
    </g>
</svg>