<?xml version="1.0" encoding="UTF-8"?>
<svg width="154px" height="46px" viewBox="0 0 154 46" version="1.1" xmlns="http://www.w3.org/2000/svg" xmlns:xlink="http://www.w3.org/1999/xlink">
    <title>munsons</title>
    <g id="Website" stroke="none" stroke-width="1" fill="none" fill-rule="evenodd" fill-opacity="0.5">
        <g id="about" transform="translate(-170.000000, -4591.000000)" fill="#153C63">
            <g id="5" transform="translate(108.000000, 3230.000000)">
                <path d="M212.135123,1362.79832 C213.394223,1362.79832 213.961259,1363.82549 213.895068,1365.12844 L215.491742,1365.12844 L215.576319,1361.54183 L62,1361.54183 L62,1365.09747 L63.2818987,1365.09747 C63.3282324,1364.19418 63.5966736,1363.2437 64.4615691,1362.90598 C65.5588685,1362.78284 64.9594724,1362.83003 66.0744227,1362.79832 L212.135123,1362.79832 M212.135123,1405.30156 L66.0744227,1405.30156 C64.9594724,1405.27059 65.5588685,1405.31631 64.4615691,1405.17989 C63.5797581,1404.84144 63.3282324,1403.90644 63.2818987,1403.00168 L62,1403.00168 L62,1406.54183 L215.576319,1406.54183 L215.491742,1402.97218 L213.895068,1402.97218 C213.961259,1404.27365 213.394223,1405.30156 212.135123,1405.30156 M65.3279355,1387.51083 L69.2405581,1387.51083 L69.2405581,1386.88037 C68.5948283,1386.88037 68.3793399,1386.64588 68.3793399,1386.23 C68.3793399,1386.08621 68.3984617,1385.65337 68.5153991,1385.14974 L71.1578902,1372.5096 L76.0464621,1383.2945 L77.2790853,1383.2945 L82.1720698,1372.5096 L84.7343963,1385.21979 C84.7719045,1385.40119 84.8505983,1385.74554 84.8505983,1386.10391 C84.8505983,1386.55445 84.557887,1386.84424 84.0283592,1386.86193 L84.0283592,1387.51083 L88.5278751,1387.51083 L88.5278751,1386.84424 C87.9814318,1386.75133 87.5894341,1386.58984 87.3151092,1385.29206 L84.5181724,1371.53773 C84.4777224,1371.33864 84.4416851,1371.10416 84.4416851,1370.9058 C84.4416851,1370.41987 84.7527827,1370.14851 85.3602688,1370.14851 L85.3602688,1369.48266 L81.682992,1369.48266 L77.0069668,1379.82956 L72.273576,1369.48266 L68.673522,1369.48266 L68.673522,1370.13082 C69.1817217,1370.18464 69.4185383,1370.43609 69.4185383,1370.86819 C69.4185383,1371.01493 69.3780882,1371.42934 69.2604154,1371.93371 L66.4627432,1385.32819 C66.1891538,1386.69971 65.740526,1386.82507 65.3279355,1386.82507 L65.3279355,1387.51083 M90.2120679,1370.13082 C90.8364695,1370.13082 91.1512444,1370.38374 91.30569,1370.84976 C91.3454046,1370.95889 91.3645265,1371.01493 91.3645265,1371.86144 L91.3645265,1381.09121 C91.3645265,1384.37328 91.8925834,1385.23896 92.3632749,1385.88712 C93.184043,1386.96959 94.8476431,1388.01593 98.3292888,1388.01593 C104.958683,1388.01593 105.861823,1385.20357 105.861823,1382.06602 L105.861823,1371.75379 C105.879474,1370.70818 106.036126,1370.59831 106.172185,1370.43609 C106.368551,1370.25617 106.660527,1370.11238 107.095181,1370.11238 L107.095181,1369.48266 L102.613316,1369.48266 L102.613316,1370.13082 C103.474535,1370.13082 103.865061,1370.3653 103.865061,1371.69996 L103.865061,1382.15525 C103.865061,1384.06653 103.395105,1384.80686 102.669946,1385.40119 C102.066138,1385.92325 101.108575,1386.42909 98.6234709,1386.42909 C96.4502003,1386.42909 95.2764136,1385.74554 94.6122974,1384.91452 C94.2019133,1384.37328 93.8672811,1383.85122 93.8672811,1381.59705 L93.8672811,1371.84375 C93.9084666,1370.29304 94.3372371,1370.13082 95.0241524,1370.14851 L95.0241524,1369.48266 L90.2120679,1369.48266 L90.2120679,1370.13082 M109.575872,1387.51083 L113.880493,1387.51083 L113.880493,1386.88037 C113.197255,1386.9342 112.710383,1386.78967 112.710383,1385.05757 L112.710383,1371.89684 L124.643146,1381.52479 L124.643146,1385.36506 C124.643146,1386.64588 124.110677,1386.9342 123.429645,1386.89733 L123.429645,1387.51083 L127.748239,1387.51083 L127.748239,1386.86193 C126.986307,1386.86193 126.556066,1386.64588 126.556066,1385.36506 L126.556066,1371.55617 C126.556066,1370.38374 127.084858,1370.05855 127.748239,1370.11238 L127.748239,1369.48266 L123.448031,1369.48266 L123.448031,1370.11238 C124.250413,1370.14851 124.643146,1370.4007 124.643146,1371.68079 L124.643146,1378.51481 L113.451722,1369.48266 L109.575872,1369.48266 L109.575872,1370.09395 C110.144379,1370.07625 110.554763,1370.3653 110.711415,1370.76201 C110.731273,1370.8328 110.789374,1370.95889 110.789374,1371.75379 L110.789374,1385.49041 C110.789374,1386.62745 110.320889,1386.9342 109.575872,1386.89733 L109.575872,1387.51083 M129.628063,1383.5983 C130.68197,1386.21157 133.385504,1388.03289 137.275328,1388.03289 C142.698576,1388.03289 145.218981,1385.13204 145.218981,1382.49739 C145.218981,1380.82207 144.43425,1379.39745 142.362473,1378.26189 C140.073735,1377.00023 137.395207,1376.85423 134.986591,1375.9008 C133.0722,1375.14278 132.680203,1374.31323 132.680203,1373.51981 C132.680203,1372.23972 134.089335,1370.49139 137.548182,1370.49139 C140.663571,1370.49139 141.559355,1371.84375 141.559355,1372.5096 C141.559355,1372.77948 141.463746,1373.06853 141.343131,1373.2868 L141.972681,1373.79043 L144.145216,1371.39321 C142.422044,1369.86094 140.036227,1368.92373 137.373879,1368.92373 C134.967469,1368.92373 133.03175,1369.71493 132.015351,1370.54375 C130.862892,1371.51782 130.3341,1372.63717 130.3341,1373.89882 C130.3341,1376.53052 132.657404,1377.54 133.327403,1377.84601 C133.656887,1378.00823 133.716459,1378.09893 136.689905,1378.91078 C140.779037,1380.02717 140.934218,1380.2447 141.148236,1380.37005 C142.129333,1380.9489 142.498532,1381.43483 142.698576,1382.10289 C142.775063,1382.37204 142.811836,1382.62496 142.811836,1382.89558 C142.811836,1384.51855 141.247522,1386.44753 137.451837,1386.44753 C134.28276,1386.44753 132.268348,1385.05757 132.268348,1383.79665 C132.268348,1383.34538 132.505164,1382.89558 132.93467,1382.60652 L132.486042,1381.95763 L129.628063,1383.5983 M157.328254,1386.376 L157.113501,1386.376 C153.237651,1386.376 149.916335,1383.72365 149.916335,1378.44181 C149.916335,1375.41266 151.164402,1373.21306 152.593392,1372.06054 C153.750263,1371.12185 155.407244,1370.52605 157.248089,1370.52605 C161.279856,1370.52605 164.565135,1373.21306 164.565135,1378.40642 C164.565135,1383.68826 161.139384,1386.376 157.328254,1386.376 M156.931843,1388.01593 L157.505499,1388.01593 C162.903006,1388.01593 167.402521,1383.97657 167.402521,1378.46024 C167.402521,1373.42985 163.508285,1368.90603 157.248089,1368.90603 C151.00628,1368.90603 147.036291,1373.35832 147.036291,1378.47868 C147.036291,1381.05655 148.169628,1383.56217 149.873678,1385.21979 C151.732174,1387.02416 154.27685,1388.01593 156.931843,1388.01593 M169.395606,1387.51083 L173.721554,1387.51083 L173.721554,1386.88037 C173.015517,1386.9342 172.548503,1386.78967 172.548503,1385.05757 L172.548503,1371.89684 L184.460673,1381.52479 L184.460673,1385.36506 C184.460673,1386.64588 183.931145,1386.9342 183.24423,1386.89733 L183.24423,1387.51083 L187.570914,1387.51083 L187.570914,1386.86193 C186.805305,1386.86193 186.375064,1386.64588 186.375064,1385.36506 L186.375064,1371.55617 C186.375064,1370.38374 186.906062,1370.05855 187.570914,1370.11238 L187.570914,1369.48266 L183.267765,1369.48266 L183.267765,1370.11238 C184.069411,1370.14851 184.47906,1370.4007 184.47906,1371.68079 L184.47906,1378.51481 L173.287635,1369.48266 L169.395606,1369.48266 L169.395606,1370.09395 C169.964848,1370.07625 170.375232,1370.3653 170.533355,1370.76201 C170.572334,1370.8328 170.628229,1370.95889 170.628229,1371.75379 L170.628229,1385.49041 C170.628229,1386.62745 170.138415,1386.9342 169.395606,1386.89733 L169.395606,1387.51083 M196.194128,1383.5983 C197.254655,1386.21157 199.950834,1388.03289 203.863457,1388.03289 C209.280086,1388.03289 211.80711,1385.13204 211.80711,1382.49739 C211.80711,1380.82207 211.023115,1379.39745 208.970459,1378.26189 C206.680251,1377.00023 203.963479,1376.85423 201.557069,1375.9008 C199.63753,1375.14278 199.248474,1374.31323 199.248474,1373.51981 C199.248474,1372.23972 200.656136,1370.49139 204.121602,1370.49139 C207.248758,1370.49139 208.150426,1371.84375 208.150426,1372.5096 C208.150426,1372.77948 208.071732,1373.06853 207.930525,1373.2868 L208.576255,1373.79043 L210.74879,1371.39321 C209.010909,1369.86094 206.625092,1368.92373 203.963479,1368.92373 C201.537947,1368.92373 199.600022,1369.71493 198.600538,1370.54375 C197.428958,1371.51782 196.920758,1372.63717 196.920758,1373.89882 C196.920758,1376.53052 199.230823,1377.54 199.891998,1377.84601 C200.224424,1378.00823 200.286202,1378.09893 203.279505,1378.91078 C207.365695,1380.02717 207.523083,1380.2447 207.758428,1380.37005 C208.715991,1380.9489 209.08519,1381.43483 209.304356,1382.10289 C209.385256,1382.37204 209.419822,1382.62496 209.419822,1382.89558 C209.419822,1384.51855 207.837858,1386.44753 204.017167,1386.44753 C200.851767,1386.44753 198.837355,1385.05757 198.837355,1383.79665 C198.837355,1383.34538 199.071965,1382.89558 199.500736,1382.60652 L199.071965,1381.95763 L196.194128,1383.5983 M192.51538,1367.92974 L191.886566,1367.92974 C191.228334,1368.00127 190.598048,1368.6509 190.495085,1369.30126 C190.345787,1369.99809 190.570836,1370.76496 191.07683,1371.25311 C191.254075,1371.46105 191.507807,1371.55396 191.759332,1371.6218 C192.035128,1371.73904 192.266061,1371.8784 192.241056,1372.22645 C192.035128,1372.80824 191.733591,1373.36496 191.228334,1373.76019 C191.129047,1373.80591 191.026819,1373.8767 190.974601,1373.99173 L191.202593,1374.59638 C191.886566,1374.47987 192.365348,1373.99173 192.819859,1373.45787 C193.680342,1372.41374 194.285622,1371.04295 194.135589,1369.67217 C193.982614,1368.791 193.326588,1368.00127 192.51538,1367.92974 M70.2312165,1397.38064 C70.2113592,1397.56056 70.0635327,1397.83855 69.9083516,1397.98971 C69.6274076,1398.25959 69.1243561,1398.46311 68.4896582,1398.46311 C67.3783851,1398.46311 66.3097685,1397.82233 66.3097685,1396.37412 C66.3097685,1394.94213 67.3497023,1394.32937 68.442589,1394.32937 C69.3883846,1394.32937 69.9966062,1394.70101 70.1775282,1395.34474 L71.696979,1395.28354 C71.5851898,1394.72313 71.2998331,1394.33895 70.8644435,1394.02852 C70.3562439,1393.65983 69.5751903,1393.3929 68.4242026,1393.3929 C65.4735557,1393.3929 64.6829412,1395.24888 64.6829412,1396.37707 C64.6829412,1398.33628 66.4031713,1399.47922 68.4322926,1399.47922 C70.1091309,1399.47922 71.6815345,1398.72119 71.8190646,1397.41161 L70.2312165,1397.38064 M80.9570976,1399.28676 L82.5471521,1399.28676 L82.5471521,1396.76419 L85.6147364,1396.76419 L85.6147364,1399.28676 L87.1989073,1399.28676 L87.1989073,1393.57724 L85.6081173,1393.57724 L85.6081173,1395.83141 L82.5471521,1395.83141 L82.5471521,1393.57945 L80.9666585,1393.57724 L80.9570976,1399.28676 M99.2213962,1398.5044 C97.3562813,1398.5044 97.0554801,1396.96918 97.0554801,1396.44638 C97.0554801,1395.01439 98.1571922,1394.36476 99.1860943,1394.36476 C100.210584,1394.36476 101.318915,1395.01734 101.318915,1396.44638 C101.318915,1397.06725 101.067389,1397.57752 100.729815,1397.91671 C100.345907,1398.3149 99.8443269,1398.49924 99.2213962,1398.5044 M99.1860943,1399.47111 C101.887422,1399.47111 102.95898,1397.73311 102.95898,1396.42057 C102.95898,1395.05052 101.780781,1393.39953 99.2441953,1393.39953 C97.8836028,1393.39953 96.92604,1393.78592 96.2486856,1394.46578 C95.7544596,1394.96499 95.417621,1395.67877 95.417621,1396.44638 C95.417621,1398.0288 96.7848325,1399.47111 99.1860943,1399.47111 M116.837023,1397.38064 C116.815695,1397.56056 116.664191,1397.83855 116.511216,1397.98971 C116.23395,1398.25959 115.726486,1398.46311 115.096936,1398.46311 C113.980514,1398.46311 112.913369,1397.82233 112.913369,1396.37412 C112.913369,1394.94213 113.952567,1394.32937 115.045454,1394.32937 C115.986837,1394.32937 116.598,1394.70101 116.781864,1395.34474 L118.300579,1395.28354 C118.18879,1394.72313 117.900492,1394.33895 117.469515,1394.02852 C116.959844,1393.65983 116.178791,1393.3929 115.024861,1393.3929 C112.070537,1393.3929 111.286541,1395.24888 111.286541,1396.37707 C111.286541,1398.33628 113.006772,1399.47922 115.035157,1399.47922 C116.713467,1399.47922 118.28587,1398.72119 118.424871,1397.41161 L116.837023,1397.38064 M131.237975,1398.5044 C129.369918,1398.5044 129.069852,1396.96918 129.069852,1396.44638 C129.069852,1395.01439 130.173035,1394.36476 131.204144,1394.36476 C132.226427,1394.36476 133.336964,1395.01734 133.336964,1396.44638 C133.336964,1397.06725 133.086909,1397.57752 132.746394,1397.91671 C132.357338,1398.3149 131.86017,1398.49924 131.237975,1398.5044 M131.204144,1399.47111 C133.900323,1399.47111 134.967469,1397.73311 134.967469,1396.42057 C134.967469,1395.05052 133.792211,1393.39953 131.263716,1393.39953 C129.896504,1393.39953 128.949238,1393.78592 128.266735,1394.46578 C127.772509,1394.96499 127.430522,1395.67877 127.430522,1396.44638 C127.430522,1398.0288 128.79994,1399.47111 131.204144,1399.47111 M144.468081,1399.28676 L149.822196,1399.28676 L149.822196,1398.30015 L146.070639,1398.30015 L146.070639,1393.57724 L144.468081,1393.57724 L144.468081,1399.28676 M161.818209,1397.18376 L162.878736,1394.71575 L163.878219,1397.18376 L161.818209,1397.18376 M159.289713,1399.28676 L160.911392,1399.28676 L161.432095,1398.08336 L164.23418,1398.08336 L164.732818,1399.28676 L166.369207,1399.28676 L163.728186,1393.57724 L162.006485,1393.57724 L159.289713,1399.28676 M176.40376,1399.28676 L177.995285,1399.28676 L177.995285,1394.53141 L180.339181,1394.53141 L180.339181,1393.57724 L174.056922,1393.57724 L174.056922,1394.53141 L176.40376,1394.53141 L176.40376,1399.28676 M190.387708,1399.28676 L196.159562,1399.28676 L196.159562,1398.30384 L191.988059,1398.30384 L191.988059,1396.73543 L195.644008,1396.73543 L195.644008,1395.79896 L191.993207,1395.79896 L191.993207,1394.5351 L196.097784,1394.5351 L196.097784,1393.57724 L190.387708,1393.57724 L190.387708,1399.28676 M205.174774,1397.49567 C205.174774,1398.54717 206.238978,1399.48291 208.490207,1399.48291 C210.759086,1399.48291 211.740184,1398.58404 211.740184,1397.62102 C211.740184,1396.90798 211.134904,1396.25466 209.800788,1396.00985 L207.97024,1395.66476 C207.418648,1395.56005 207.363489,1395.50991 207.250229,1395.42364 C207.111963,1395.31524 207.04283,1395.1921 207.04283,1395.04831 C207.04283,1394.71575 207.423796,1394.32052 208.52845,1394.32052 C209.06901,1394.32052 209.480129,1394.45767 209.705914,1394.62211 C209.923609,1394.77917 210.058197,1394.99964 210.075848,1395.24372 L211.613685,1395.25404 C211.540875,1394.62358 211.258461,1394.24383 210.832632,1393.95994 C210.389888,1393.66425 209.561765,1393.38921 208.438725,1393.38921 C206.386804,1393.38921 205.443215,1394.23498 205.443215,1395.16998 C205.443215,1395.8963 205.997013,1396.48915 207.350986,1396.74207 L208.93148,1397.03112 C209.215365,1397.09011 209.625014,1397.12919 209.886101,1397.36737 C210.021425,1397.48977 210.086145,1397.63725 210.086145,1397.74712 C210.086145,1398.11654 209.701501,1398.53537 208.448286,1398.53537 C207.223752,1398.53537 206.722907,1398.06935 206.745706,1397.50157 L205.174774,1397.49567" id="munsons"></path>
            </g>
        </g>
    </g>
</svg>