<?xml version="1.0" encoding="UTF-8"?>
<svg width="81px" height="68px" viewBox="0 0 81 68" version="1.1" xmlns="http://www.w3.org/2000/svg" xmlns:xlink="http://www.w3.org/1999/xlink">
    <title>gci</title>
    <g id="Website" stroke="none" stroke-width="1" fill="none" fill-rule="evenodd" fill-opacity="0.5">
        <g id="about" transform="translate(-510.000000, -4580.000000)" fill="#153C63" fill-rule="nonzero">
            <g id="5" transform="translate(108.000000, 3230.000000)">
                <path d="M446.364079,1353.35776 L451.96394,1362.88735 C460.250264,1359.03257 470.103744,1361.50031 475.595104,1368.80561 C481.086464,1376.11091 480.718525,1386.26204 474.712693,1393.15061 C474.483459,1393.41478 474.243309,1393.67239 473.998792,1393.92346 L482.170441,1410.91298 C483.836209,1414.37769 482.054733,1417.21145 478.21015,1417.21145 L406.968567,1417.21145 C403.126167,1417.21145 401.669985,1414.55889 403.733092,1411.31686 L418.061313,1388.81045 C420.126602,1385.56842 423.401375,1380.20653 425.366238,1376.89901 L439.270922,1353.35776 C441.22487,1350.04151 444.416681,1350.04587 446.364079,1353.35776 Z M475.444059,1411.533 L475.166795,1411.533 L474.856783,1412.42155 C474.843684,1412.45794 474.832768,1412.49069 474.824035,1412.5198 L474.795654,1412.43684 L474.503107,1411.56356 L474.503107,1411.53955 L474.195279,1411.53955 L474.195279,1412.84946 L474.424513,1412.84946 L474.424513,1411.96527 L474.723609,1412.84946 L474.920095,1412.84946 L475.223557,1411.97619 L475.223557,1412.84946 L475.441875,1412.84946 L475.444059,1411.533 Z M414.478712,1407.00726 L412.498566,1407.00726 C411.45355,1407.00726 410.59847,1407.26779 409.933327,1407.78884 C409.284781,1408.27065 408.911015,1409.03772 408.931247,1409.8454 C408.917921,1410.6731 409.291776,1411.45957 409.94206,1411.97182 C410.665896,1412.54944 411.573186,1412.84773 412.498566,1412.81234 L414.478712,1412.81234 C415.405685,1412.84958 416.314974,1412.55114 417.039584,1411.97182 C417.68796,1411.45847 418.060067,1410.67228 418.04603,1409.8454 C418.066684,1409.03914 417.695705,1408.27278 417.050499,1407.78884 C416.388268,1407.26779 415.531005,1407.00726 414.478712,1407.00726 Z M459.677121,1407.00508 L457.696975,1407.00508 C456.653414,1407.00508 455.798335,1407.26561 455.131737,1407.78666 C454.48319,1408.26847 454.109425,1409.03554 454.129656,1409.84322 C454.11633,1410.67092 454.490185,1411.45739 455.140469,1411.96964 C455.864305,1412.54725 456.771595,1412.84555 457.696975,1412.81016 L459.677121,1412.81016 C460.604094,1412.8474 461.513384,1412.54895 462.237993,1411.96964 C462.892445,1411.45622 463.261264,1410.66936 463.24444,1409.84322 C463.265319,1409.03641 462.893335,1408.26965 462.246726,1407.78666 C461.583038,1407.26561 460.726503,1407.00508 459.677121,1407.00508 Z M420.194281,1407.00726 L418.960779,1407.00726 L418.960779,1410.20344 C418.959328,1411.13348 419.30136,1411.81681 419.986879,1412.25345 C420.586526,1412.62605 421.477264,1412.81234 422.659093,1412.81234 L423.095729,1412.81234 C424.276103,1412.81234 425.167569,1412.62605 425.770127,1412.25345 C426.454191,1411.82118 426.796222,1411.13784 426.796222,1410.20344 L426.776574,1407.00726 L425.540893,1407.00726 L425.540893,1410.20781 C425.540893,1410.82347 425.305109,1411.25792 424.835725,1411.5068 C424.462401,1411.70547 423.877308,1411.80371 423.076081,1411.80371 C422.115481,1411.80371 421.447427,1411.7273 421.067554,1411.5854 C420.485372,1411.3598 420.194281,1410.89842 420.194281,1410.20126 L420.194281,1407.00726 Z M440.122363,1407.00726 L436.129324,1407.00726 L436.129324,1412.81016 L440.122363,1412.81016 C441.049226,1412.84661 441.958247,1412.54825 442.683235,1411.96964 C443.331063,1411.45824 443.702398,1410.67197 443.687499,1409.8454 C443.7075,1409.03828 443.334743,1408.2716 442.687601,1407.78884 C442.019548,1407.26779 441.164468,1407.00726 440.122363,1407.00726 Z M449.85062,1407.00508 L447.870475,1407.00508 C446.828369,1407.00508 445.97329,1407.26561 445.305236,1407.78666 C444.657221,1408.26869 444.284228,1409.03585 444.305339,1409.84322 C444.292013,1410.67092 444.665868,1411.45739 445.316152,1411.96964 C446.03913,1412.54728 446.945753,1412.84561 447.870475,1412.81016 L449.85062,1412.81016 C450.778308,1412.84773 451.688396,1412.54928 452.413676,1411.96964 C453.062668,1411.458 453.434844,1410.67086 453.420122,1409.84322 C453.440776,1409.03696 453.069797,1408.27059 452.424591,1407.78666 C451.760904,1407.26561 450.902914,1407.00508 449.85062,1407.00508 Z M468.95346,1407.00726 L463.873196,1407.00726 L463.873196,1412.80579 L465.106694,1412.80579 L465.106694,1408.01589 L469.141213,1408.01589 C470.260458,1408.01589 470.82008,1408.37976 470.82008,1409.10748 C470.822108,1409.46214 470.615045,1409.78472 470.29175,1409.93054 C469.933979,1410.10504 469.539073,1410.18971 469.141213,1410.17724 L468.486259,1410.17724 L468.486259,1411.17714 L470.466404,1412.81016 L472.306827,1412.80579 L470.156393,1411.05925 C470.680849,1410.96422 471.168889,1410.72624 471.566728,1410.37155 C471.925318,1410.05234 472.128979,1409.5941 472.125622,1409.11403 C472.145145,1408.43211 471.769234,1407.80021 471.160656,1407.49193 C470.603945,1407.16882 469.86603,1407.00726 468.95346,1407.00726 Z M434.801949,1407.00726 L427.990423,1407.00726 L427.990423,1408.02244 L430.789261,1408.02244 L430.789261,1412.81016 L432.01621,1412.81016 L432.01621,1408.02026 L434.801949,1408.02026 L434.801949,1407.00726 Z M442.591541,1358.00357 C441.819394,1359.36867 441.035747,1360.74031 440.247382,1362.1087 L439.65533,1363.13424 L438.765326,1364.66825 L438.171633,1365.68674 L437.919414,1366.1183 L437.41542,1366.97876 C437.331486,1367.12185 437.247591,1367.26477 437.163741,1367.4075 L436.661266,1368.26168 C428.883523,1381.46504 421.64666,1392.90693 421.493564,1393.14889 L421.604617,1393.03951 C423.137361,1391.51312 426.872552,1387.90697 430.837064,1384.09654 L431.755125,1383.21443 L432.675938,1382.3302 L433.20974,1381.81782 L433.741599,1381.30744 C438.870105,1376.3868 443.578339,1371.8886 443.578339,1371.8886 C444.152516,1371.23802 444.707044,1371.01097 445.143681,1371.76198 L456.029024,1390.19022 C456.581369,1391.07222 457.358582,1391.31237 458.190374,1390.74911 L459.63564,1389.8933 C461.144219,1388.88686 460.925901,1388.98947 461.908332,1390.38015 L477.663234,1412.80821 L477.602219,1412.6843 C476.714471,1410.90932 473.829766,1404.86405 470.807423,1398.50209 L470.341612,1397.52136 C466.92138,1390.31885 463.447323,1382.9713 462.589485,1381.15621 C462.382083,1380.71739 461.934531,1381.0405 461.934531,1381.0405 L459.373659,1382.78705 C458.48292,1383.39397 457.845431,1383.21277 457.271255,1382.30238 C457.271255,1382.30238 454.041365,1376.71431 450.681224,1370.8955 L450.242461,1370.13566 C446.803687,1364.1802 443.369627,1358.22701 443.246496,1357.99047 C442.997613,1357.51235 442.702884,1357.80708 442.591541,1358.00357 Z M474.118867,1411.53955 L472.667052,1411.53955 L472.667052,1411.75787 L473.254327,1411.75787 L473.254327,1412.7796 L473.516309,1412.7796 L473.516309,1411.75787 L474.110135,1411.75787 L474.118867,1411.53955 Z M414.476528,1408.02244 C415.083644,1407.99781 415.680137,1408.18711 416.161945,1408.55732 C416.585357,1408.88556 416.828299,1409.39493 416.816899,1409.93054 C416.828762,1410.45955 416.58493,1410.96184 416.161945,1411.27975 C415.675726,1411.63966 415.080941,1411.82226 414.476528,1411.79716 L412.498566,1411.79716 C411.89829,1411.82154 411.307873,1411.63887 410.826249,1411.27975 C410.402687,1410.96231 410.158703,1410.45971 410.171294,1409.93054 C410.159193,1409.39478 410.402278,1408.88511 410.826249,1408.55732 C411.303419,1408.18787 411.895564,1407.99848 412.498566,1408.02244 Z M440.322819,1408.02231 C440.855533,1408.04279 441.370529,1408.22892 441.79468,1408.55732 C442.218931,1408.88488 442.462089,1409.3947 442.449635,1409.93054 C442.462592,1410.45979 442.21853,1410.96255 441.79468,1411.27975 C441.313056,1411.63887 440.722639,1411.82154 440.122363,1411.79716 L437.356272,1411.79716 L437.356272,1408.02244 Z M449.85062,1408.02244 C450.45707,1407.99777 451.052891,1408.1871 451.533853,1408.55732 C451.958105,1408.88488 452.201262,1409.3947 452.188808,1409.93054 C452.201765,1410.45979 451.957704,1410.96255 451.533853,1411.27975 C451.048467,1411.63966 450.454362,1411.82228 449.85062,1411.79716 L447.870475,1411.79716 C447.270198,1411.82154 446.679781,1411.63887 446.198157,1411.27975 C445.774307,1410.96255 445.530246,1410.45979 445.543203,1409.93054 C445.530749,1409.3947 445.773906,1408.88488 446.198157,1408.55732 C446.675504,1408.18821 447.267524,1407.99885 447.870475,1408.02244 Z M461.366903,1408.55732 C461.790874,1408.88511 462.03396,1409.39478 462.021858,1409.93054 C462.034449,1410.45971 461.790465,1410.96231 461.366903,1411.27975 C460.881518,1411.63966 460.287412,1411.82228 459.68367,1411.79716 L457.705708,1411.79716 C457.104692,1411.82205 456.513421,1411.63935 456.031208,1411.27975 C455.607357,1410.96255 455.363296,1410.45979 455.376253,1409.93054 C455.363799,1409.3947 455.606956,1408.88488 456.031208,1408.55732 C456.456189,1408.22908 456.97176,1408.04301 457.50504,1408.02238 L459.68367,1408.02244 C460.290121,1407.99777 460.885941,1408.1871 461.366903,1408.55732 Z M445.235374,1394.00641 C442.844063,1394.00496 440.903942,1394.4416 439.415012,1395.31633 C437.926082,1396.19105 437.181617,1397.36488 437.181617,1398.8378 C437.183073,1400.18409 437.923899,1401.31353 439.404096,1402.2261 C440.884293,1403.13867 442.849157,1403.59495 445.298687,1403.59495 C446.990234,1403.62599 448.672414,1403.33711 450.256692,1402.74351 C451.693226,1402.17734 452.649459,1401.37684 453.125393,1400.34201 L451.110316,1399.46874 L451.018622,1399.66741 C450.597996,1400.51594 449.878274,1401.17089 448.859456,1401.63227 C447.786461,1402.1027 446.625177,1402.33794 445.453693,1402.32216 C444.073916,1402.35858 442.710686,1402.01494 441.51305,1401.32881 C440.406177,1400.66949 439.851648,1399.8115 439.849465,1398.77667 C439.849465,1397.75931 440.366152,1396.91587 441.399524,1396.24636 C442.432897,1395.57685 443.755177,1395.2421 445.366365,1395.2421 C446.405768,1395.23699 447.438749,1395.40522 448.42282,1395.73986 C449.392152,1396.07389 450.108236,1396.54109 450.57107,1397.14802 L452.669108,1397.14802 L452.669108,1394.14832 L450.57107,1394.14832 L450.57107,1395.00195 C449.131626,1394.33826 447.353061,1394.00641 445.235374,1394.00641 Z M427.093135,1394.00205 C424.569377,1394.00351 422.571038,1394.45543 421.098118,1395.35781 C419.625198,1396.26019 418.888738,1397.39617 418.888738,1398.76575 C418.888738,1400.0713 419.609916,1401.20146 421.052271,1402.15623 C422.494627,1403.11101 424.68363,1403.5884 427.619282,1403.5884 C430.074633,1403.58695 432.049685,1403.1947 433.544437,1402.41167 C435.043555,1401.62936 435.791658,1400.57998 435.788756,1399.2657 C435.788756,1399.16309 435.775648,1399.06267 435.775648,1398.94477 L429.863592,1398.94477 L429.863592,1400.10841 L432.797789,1400.10841 C432.6275,1400.77646 432.033675,1401.32008 431.022862,1401.7327 C429.917635,1402.16232 428.739406,1402.3729 427.553786,1402.35272 C425.896024,1402.35563 424.484961,1402.03107 423.320597,1401.37902 C422.156234,1400.72698 421.574052,1399.84788 421.574052,1398.74174 C421.572596,1397.77532 422.086372,1396.94935 423.115378,1396.26383 C424.144384,1395.57831 425.545987,1395.23555 427.320186,1395.23555 C428.483282,1395.21488 429.63951,1395.41797 430.725949,1395.83374 C431.718569,1396.23399 432.409182,1396.68955 432.797789,1397.20041 L434.863078,1397.20041 L434.863078,1394.14396 L432.797789,1394.14396 L432.797789,1395.18315 C431.262284,1394.39575 429.360733,1394.00205 427.093135,1394.00205 Z M462.349335,1393.90599 L454.671085,1393.90599 L454.671085,1395.07836 L457.131531,1395.07836 L457.131531,1402.13004 L454.959265,1402.13004 L454.959265,1403.30677 L462.340602,1403.30677 L462.340602,1402.13004 L460.179253,1402.1344 L460.179253,1395.08273 L462.349335,1395.08273 L462.349335,1393.90599 Z M453.505266,1367.89338 C452.623668,1368.34284 451.791683,1368.88359 451.022989,1369.50675 L458.118329,1381.80462 C458.321365,1382.12118 458.443623,1382.17139 458.443623,1382.17139 C458.584434,1382.14038 458.716026,1382.07682 458.827863,1381.98582 L461.382186,1380.25237 C461.735748,1379.99926 462.180391,1379.90874 462.604767,1380.00349 C462.993606,1380.11048 463.31405,1380.38606 463.47804,1380.7545 L463.568091,1380.94518 C464.530035,1382.98173 466.458083,1387.05633 468.623799,1391.62675 C474.355007,1387.14145 475.744215,1379.03773 471.834157,1372.89964 C467.924099,1366.76156 459.992696,1364.59521 453.505266,1367.89338 Z" id="gci"></path>
            </g>
        </g>
    </g>
</svg>