<?xml version="1.0" encoding="UTF-8"?>
<svg width="81px" height="81px" viewBox="0 0 81 81" version="1.1" xmlns="http://www.w3.org/2000/svg" xmlns:xlink="http://www.w3.org/1999/xlink">
    <title>geno</title>
    <g id="Website" stroke="none" stroke-width="1" fill="none" fill-rule="evenodd" fill-opacity="0.5">
        <g id="about" transform="translate(-206.000000, -4421.000000)" fill="#153C63">
            <g id="5" transform="translate(108.000000, 3230.000000)">
                <path d="M138.787343,1191.86954 C160.852523,1191.86954 178.738839,1209.7783 178.738839,1231.86954 C178.738839,1253.96078 160.852523,1271.86954 138.787343,1271.86954 C130.143841,1271.86954 122.148643,1269.11284 115.611719,1264.44148 C115.899128,1264.23383 116.181638,1264.01964 116.460882,1263.80218 C120.742625,1260.46666 123.855134,1256.21552 126.030299,1251.26621 C127.632278,1247.6184 128.590852,1243.82997 128.43735,1239.80447 C128.407956,1239.00329 128.492872,1238.19557 128.525532,1237.37477 C129.711095,1236.77144 130.837869,1236.15012 132.103449,1235.82147 C132.291244,1236.05855 132.441481,1236.25149 132.594984,1236.43789 C133.550292,1237.59878 134.737488,1237.96666 136.176166,1237.48923 C137.265381,1237.12624 138.179865,1236.48857 139.024129,1235.72991 C140.340332,1234.54286 141.395254,1233.13671 142.409351,1231.69623 C142.605311,1231.4199 142.721255,1231.07 143.100112,1230.88687 C143.42998,1231.32343 143.420182,1231.8908 143.681463,1232.34534 C144.155034,1233.16778 144.767412,1233.37706 145.628006,1232.96339 C146.209356,1232.6838 146.658433,1232.23252 147.091179,1231.77144 C148.010562,1230.79204 148.76991,1229.69001 149.537423,1228.59616 C149.689292,1228.38197 149.76931,1228.07621 150.141635,1228.02389 C150.332697,1228.40322 150.358825,1228.82343 150.429044,1229.23547 C150.576015,1230.10205 150.73115,1230.97026 151.152466,1231.75836 C151.570515,1232.54155 152.055518,1232.73122 152.89325,1232.44999 C153.51216,1232.24233 153.985732,1231.81885 154.447872,1231.38556 C155.001461,1230.86562 155.533821,1230.32441 156.121704,1229.74724 C157.692656,1231.25312 159.529788,1231.5131 161.473065,1231.03893 C163.11097,1230.63671 164.521888,1229.75051 165.669891,1228.51768 C166.58764,1227.53337 167.085707,1226.43462 167.346988,1225.42088 C168.194518,1223.74822 169.894478,1223.29204 170.817126,1222.48105 C171.444201,1221.9284 171.636896,1220.95718 171.300496,1220.50263 C168.973462,1221.25476 168.014888,1222.73122 167.182055,1221.04874 C167.159193,1220.99969 167.137963,1220.95064 167.113468,1220.90159 C167.098771,1220.87379 167.085707,1220.84927 167.074276,1220.81984 L167.074276,1220.83292 C166.759106,1220.24593 166.275736,1219.78485 165.519654,1219.54286 C164.551282,1219.2371 163.527387,1219.24691 162.661893,1219.8012 C161.71475,1220.41271 160.68269,1220.84927 159.729014,1221.43462 C159.518357,1221.56379 159.317497,1221.70604 159.124802,1221.85646 C157.418311,1223.21356 156.275206,1224.94672 155.687324,1227.04449 C155.390117,1228.10401 154.836528,1228.97059 153.874687,1229.75051 C153.397849,1228.71388 153.46317,1227.79335 153.508894,1226.89407 C153.564416,1225.83619 153.530123,1224.78157 153.455005,1223.7286 C153.430509,1223.37706 153.383152,1223.03043 153.252512,1222.69688 C152.917746,1221.83684 152.26291,1221.63573 151.528057,1222.22762 C151.175328,1222.51212 150.876488,1222.86692 150.589079,1223.2201 C149.767677,1224.23547 149.093245,1225.35057 148.453107,1226.4853 L147.716984,1227.80667 C147.224542,1228.68645 146.720487,1229.55921 146.155467,1230.39636 C146.008496,1230.61382 145.920314,1230.92938 145.512062,1230.90486 C145.275277,1230.35221 145.427146,1229.81264 145.639437,1229.29596 C145.974203,1228.48498 146.331832,1227.68216 146.704157,1226.88589 C146.989933,1226.27602 147.257746,1225.66123 147.35246,1224.9974 C147.429212,1224.47909 147.483101,1223.91336 146.97197,1223.54874 C146.470637,1223.19067 145.967671,1223.36562 145.481035,1223.61742 C144.217089,1224.27144 143.472438,1225.33259 143.085415,1226.67987 C142.97927,1227.04776 142.935179,1227.432 142.726154,1227.77536 C141.733286,1229.3957 140.799207,1231.05038 139.69856,1232.60368 C139.066587,1233.49479 138.388889,1234.36137 137.479305,1234.98596 C136.432548,1235.70211 135.428249,1235.89341 134.933448,1234.19132 L134.882544,1234.01683 C134.8436,1233.86925 134.823104,1233.71225 134.894256,1233.51604 C135.104914,1233.36235 135.364562,1233.18413 135.612779,1232.99446 C137.542992,1231.50656 139.048624,1229.67857 140.028428,1227.43527 C140.327268,1226.75345 140.531394,1226.04711 140.46444,1225.28681 C140.377891,1224.30087 139.754083,1223.67137 138.762848,1223.61415 C137.858162,1223.56019 137.026962,1223.79727 136.262715,1224.28779 C135.142473,1225.00231 134.278613,1225.96372 133.573154,1227.07392 C132.675001,1228.48498 132.118146,1230.03337 131.765416,1231.66025 C131.690298,1231.99871 131.71316,1232.41892 131.347367,1232.57752 C130.331637,1233.01735 129.417153,1233.67301 128.337736,1234.02618 C127.965411,1233.13507 127.981741,1232.23906 127.813541,1231.38229 C127.212595,1228.346 126.320974,1225.37674 125.783715,1222.32409 C125.414655,1220.23776 125.146842,1218.15306 125.272584,1216.02585 C125.301978,1215.5337 125.444049,1215.16418 125.796779,1214.81918 C126.427119,1214.2044 126.993772,1213.52912 127.436317,1212.76065 C127.828238,1212.0821 128.117281,1211.36431 128.110749,1210.56804 C128.105849,1209.82899 127.893559,1209.1063 127.22076,1208.76294 C126.528366,1208.40813 125.773917,1208.57981 125.135411,1209.04253 C124.322174,1209.63278 123.682036,1210.37674 123.339104,1211.33651 C123.090887,1212.02978 122.867166,1212.73285 122.658141,1213.44083 L122.589669,1213.6746 C122.5288,1213.86594 122.448649,1214.04346 122.276017,1214.16843 C120.633213,1215.35711 118.879365,1216.34469 116.909959,1217.25541 C117.065095,1216.50329 117.419457,1216.01604 117.623583,1215.46993 C117.821177,1214.94181 118.039999,1214.41042 117.915891,1213.83488 C117.778718,1213.19721 117.331275,1213.04188 116.836474,1213.46045 C116.598055,1213.65993 116.400461,1213.92154 116.228995,1214.18314 C115.802781,1214.82736 115.371667,1215.4732 114.994443,1216.14848 C114.367368,1217.27994 113.614553,1218.36562 113.653745,1219.75705 C113.66191,1220.01375 113.474114,1220.28354 113.359804,1220.53861 C111.650046,1224.28125 110.085626,1228.08439 108.673076,1231.94966 C107.779821,1234.39407 106.999244,1236.87281 106.734697,1239.48399 C106.649781,1240.34076 106.692239,1241.18282 107.095592,1241.95456 C107.490779,1242.70669 108.111322,1242.79498 108.725332,1242.20963 C109.296884,1241.66352 109.654513,1240.9768 109.933757,1240.24593 C110.087259,1239.84861 110.013774,1239.49708 109.752493,1239.16189 C109.117254,1238.346 109.048667,1237.42709 109.295251,1236.45751 C109.434057,1235.91303 109.520606,1235.34894 109.706769,1234.82245 C111.205868,1230.58275 112.634749,1226.31526 114.556797,1222.23743 C114.744593,1221.84174 114.92749,1221.5458 115.445153,1221.47386 C116.029769,1221.39374 116.571927,1221.10106 117.102654,1220.81984 C118.405793,1220.12494 119.684437,1219.39243 120.909191,1218.56509 C121.181903,1218.3787 121.433386,1218.09747 121.862867,1218.14161 C121.884096,1218.32147 121.918389,1218.49315 121.920022,1218.66483 C121.949416,1221.35613 122.388695,1223.99021 122.999439,1226.59976 C123.489341,1228.68772 124.033132,1230.76261 124.521401,1232.85057 C124.753288,1233.83651 125.07499,1234.81428 125.034165,1235.94246 C124.774517,1236.09616 124.567125,1236.22369 124.356467,1236.34796 C119.326808,1239.25345 114.84094,1242.83749 110.869469,1247.08046 C108.860872,1249.22729 106.971483,1251.4526 105.514842,1254.00983 C101.29842,1247.66908 98.8374795,1240.0579 98.8374795,1231.86954 C98.8374795,1209.7783 116.723796,1191.86954 138.787343,1191.86954 Z M125.182115,1239.37755 C125.492386,1239.6408 125.402571,1239.94001 125.414002,1240.20653 C125.639357,1244.80921 124.357447,1249.03746 122.172485,1253.02046 C120.056109,1256.87755 117.250604,1260.11987 113.435902,1262.39914 C112.04458,1263.23138 110.579774,1263.91156 108.984327,1264.24675 C107.939203,1264.46748 106.933271,1264.39881 106.17229,1263.52896 C105.610536,1262.88638 105.465198,1262.08847 105.483162,1261.2595 C105.520721,1259.68494 105.943669,1258.20522 106.63933,1256.80398 C107.997991,1254.06853 109.861251,1251.69606 112.007021,1249.54106 C115.669854,1245.86545 119.618463,1242.5561 124.112496,1239.93511 C124.468492,1239.72909 124.804891,1239.48056 125.182115,1239.37755 Z M133.854031,1241.30054 L132.415353,1241.68151 L130.138942,1248.0059 L131.737655,1247.58406 L132.119779,1246.45914 L134.165935,1245.9163 L134.548059,1246.84011 L136.092883,1246.42971 L133.854031,1241.30054 Z M141.096414,1239.42186 L139.613644,1239.81755 L139.603846,1242.94377 C139.602213,1243.39832 139.528728,1243.70244 139.391555,1243.94116 C139.249484,1244.17333 139.032294,1244.33684 138.744885,1244.41205 C138.214158,1244.55267 137.840199,1244.3352 137.714458,1243.85613 C137.668734,1243.68282 137.65567,1243.51441 137.657303,1243.33619 L137.667101,1240.33259 L136.182698,1240.725 L136.176166,1243.61578 C136.168001,1243.92481 136.208826,1244.2322 136.279045,1244.49871 C136.587684,1245.66614 137.551157,1246.15012 138.906552,1245.78877 C139.724689,1245.57294 140.337066,1245.1838 140.68163,1244.59027 C140.954342,1244.12101 141.08335,1243.53239 141.088249,1242.78517 L141.096414,1239.42186 Z M133.151675,1243.33766 L133.750989,1244.80267 L132.560527,1245.1166 L133.151675,1243.33766 Z M145.980735,1238.71388 C145.530026,1238.45227 144.896419,1238.4163 144.017862,1238.65012 L142.017429,1239.17987 L141.988035,1244.86823 L143.467539,1244.47582 L143.472438,1242.75574 L144.003165,1242.61349 L144.124007,1242.58243 L145.254047,1244.00329 L146.875623,1243.5749 L145.577383,1242.00362 C146.073817,1241.70931 146.348162,1241.39864 146.516361,1241.11251 C146.769477,1240.68903 146.810302,1240.19851 146.678029,1239.69655 C146.565351,1239.27307 146.335098,1238.92154 145.980735,1238.71388 Z M148.946274,1237.34371 L147.476569,1237.73285 L147.45534,1243.41957 L148.923412,1243.03043 L148.946274,1237.34371 Z M154.170261,1235.95881 L149.927711,1237.08373 L149.898317,1242.77209 L154.186591,1241.63736 L154.189857,1240.29825 L151.356592,1241.04874 L151.359858,1240.13802 L153.889384,1239.46764 L153.894283,1238.23154 L151.364757,1238.90192 L151.369656,1238.03207 L154.157197,1237.29466 L154.170261,1235.95881 Z M144.283062,1239.93314 C144.594966,1239.85139 144.82522,1239.86284 144.978723,1239.95277 C145.099565,1240.01817 145.176316,1240.12118 145.215509,1240.26343 C145.262866,1240.44655 145.233472,1240.61496 145.146922,1240.77029 C145.013016,1241.00084 144.714176,1241.19214 144.312456,1241.29842 L143.471458,1241.52242 L143.481256,1240.1457 Z M160.663094,1234.24201 L159.010492,1234.67857 L157.751444,1237.21127 L156.503827,1235.34076 L155.025957,1235.73481 L154.996562,1241.42154 L156.453204,1241.0373 L156.467901,1237.77863 L157.793902,1239.6426 L157.824929,1239.63442 L159.177058,1237.05267 L159.163994,1240.31787 L160.640232,1239.92709 L160.663094,1234.24201 Z M167.273503,1232.48923 L165.620901,1232.92742 L164.363486,1235.46012 L163.114236,1233.59125 L161.636366,1233.98203 L161.608604,1239.67039 L163.063613,1239.28615 L163.076677,1236.02749 L164.404311,1237.89145 L164.433705,1237.88328 L165.787467,1235.30152 L165.774403,1238.56673 L167.250641,1238.17595 L167.273503,1232.48923 Z M171.367449,1231.36431 L169.927138,1231.74528 L167.649094,1238.06967 L169.24944,1237.64783 L169.631564,1236.52291 L171.677721,1235.98171 L172.058211,1236.90224 L173.606301,1236.49184 L171.367449,1231.36431 Z M170.664604,1233.39963 L171.262284,1234.86627 L170.071822,1235.18184 L170.664604,1233.39963 Z M137.575326,1225.89505 C137.795782,1225.6923 138.048898,1225.39145 138.390196,1225.61218 C138.747824,1225.84436 138.546964,1226.18282 138.424489,1226.45914 C138.26772,1226.80904 138.089723,1227.15404 137.879065,1227.47124 C137.163808,1228.55692 135.948852,1229.71944 135.013139,1230.59093 C135.013139,1230.59093 135.10622,1230.21486 135.112752,1230.19688 C135.558563,1228.54874 136.301581,1227.06575 137.575326,1225.89505 Z M163.998672,1221.25705 C164.573491,1221.10662 164.944183,1221.34044 165.109117,1221.91761 C165.138511,1222.01898 165.172804,1222.1269 165.163006,1222.22827 C164.934385,1224.81002 164.148909,1227.10728 161.841471,1228.59845 C161.28135,1228.96143 160.861667,1229.07588 160.366867,1229.10368 C159.356036,1229.156 158.789383,1228.62788 158.753456,1227.61088 C158.738759,1227.17922 158.831841,1226.77209 158.985343,1226.37804 C159.811644,1224.25901 161.307478,1222.7286 163.224627,1221.57752 C163.461413,1221.43527 163.730859,1221.32736 163.998672,1221.25705 Z" id="geno"></path>
            </g>
        </g>
    </g>
</svg>