<?xml version="1.0" encoding="UTF-8"?>
<svg width="159px" height="41px" viewBox="0 0 159 41" version="1.1" xmlns="http://www.w3.org/2000/svg" xmlns:xlink="http://www.w3.org/1999/xlink">
    <title>moran</title>
    <g id="Website" stroke="none" stroke-width="1" fill="none" fill-rule="evenodd" fill-opacity="0.5">
        <g id="about" transform="translate(-771.000000, -4441.000000)" fill="#153C63">
            <path d="M823.321854,4471.85357 L823.321854,4471.20417 L823.756135,4471.20417 C823.977322,4471.20417 824.214018,4471.2507 824.214018,4471.511 C824.214018,4471.83334 823.972601,4471.85357 823.702187,4471.85357 L823.321854,4471.85357 Z M823.321854,4472.11994 L823.689375,4472.11994 L824.241667,4473.02896 L824.599746,4473.02896 L824.001598,4472.1078 C824.307079,4472.06936 824.543101,4471.90549 824.543101,4471.52988 C824.543101,4471.11718 824.298986,4470.93443 823.80334,4470.93443 L823.00491,4470.93443 L823.00491,4473.02896 L823.321854,4473.02896 L823.321854,4472.11994 Z M823.706908,4470.46845 C824.528265,4470.46845 825.179012,4471.11718 825.179012,4471.97765 C825.179012,4472.85093 824.528265,4473.49628 823.706908,4473.49628 C822.875435,4473.49628 822.227386,4472.85093 822.227386,4471.97765 C822.227386,4471.11718 822.875435,4470.46845 823.706908,4470.46845 Z M825.543835,4471.97765 C825.543835,4470.93443 824.696852,4470.16567 823.706908,4470.16567 C822.706848,4470.16567 821.861214,4470.93443 821.861214,4471.97765 C821.861214,4473.02896 822.706848,4473.79906 823.706908,4473.79906 C824.696852,4473.79906 825.543835,4473.02896 825.543835,4471.97765 Z M919.575077,4452.18078 L914.031253,4452.18078 C914.17354,4453.7918 914.202537,4454.69138 914.202537,4456.03603 L914.202537,4467.17291 L919.660045,4467.17291 L919.660045,4458.57428 C919.660045,4458.39423 919.314778,4455.31785 922.018244,4455.31785 C923.71086,4455.31785 924.055452,4456.90392 924.115469,4458.36524 L924.115469,4467.17291 L929.575,4467.17291 L929.575,4457.13657 C929.575,4453.82552 927.274795,4451.73436 924.172789,4451.73436 C922.331816,4451.73436 920.896801,4452.32846 919.660045,4453.82552 L919.575077,4452.18078 Z M905.620096,4467.17291 C905.504108,4466.69412 905.504108,4466.21938 905.504108,4465.14177 L905.448811,4465.14177 C904.785926,4466.21938 903.550519,4467.62338 900.850425,4467.62338 C897.432149,4467.62338 895.651867,4465.7116 895.708513,4462.63521 C895.765158,4458.99036 898.984501,4457.49667 903.694155,4457.49667 L905.419814,4457.49667 C905.419814,4456.18507 905.706413,4454.27531 903.52287,4454.36163 C902.202495,4454.41962 901.77226,4455.76697 901.79856,4456.66318 L896.655299,4456.66318 C896.628325,4454.54235 897.68975,4453.31841 899.154437,4452.62922 C900.649469,4451.91374 902.515393,4451.73436 904.126413,4451.73436 C907.05646,4451.73436 910.589375,4453.01967 910.532055,4456.39344 L910.532055,4464.09788 C910.532055,4464.72435 910.647369,4465.38049 910.849673,4467.17291 L905.620096,4467.17291 Z M905.419814,4460.03695 C904.2687,4460.03695 903.178952,4459.97693 902.42975,4460.36468 C901.627275,4460.78278 900.993387,4461.32158 900.993387,4462.3648 C900.993387,4463.44039 901.830254,4464.33592 902.861334,4464.33592 C905.216161,4464.33592 905.419814,4462.03639 905.419814,4460.03695 Z M889.060779,4452.18078 L883.519652,4452.18078 C883.663963,4453.7918 883.690262,4454.69138 883.690262,4456.03603 L883.690262,4467.17291 L889.14777,4467.17291 L889.14777,4461.16985 C889.060779,4458.30252 890.039259,4456.54045 892.880292,4456.51415 C893.253882,4456.51415 893.629494,4456.51415 894.030732,4456.54045 L894.030732,4451.73436 C891.615213,4451.673 889.837629,4452.50919 889.204415,4454.98944 L889.14777,4454.98944 L889.060779,4452.18078 Z M872.537877,4467.62338 C868.030527,4467.62338 864.149648,4465.20044 864.149648,4459.67819 C864.149648,4454.15123 868.030527,4451.73436 872.537877,4451.73436 C877.050621,4451.73436 880.928803,4454.15123 880.928803,4459.67819 C880.928803,4465.20044 877.050621,4467.62338 872.537877,4467.62338 Z M875.327659,4459.67819 C875.327659,4457.55871 874.838756,4455.02046 872.537877,4455.02046 C870.241718,4455.02046 869.751466,4457.55871 869.751466,4459.67819 C869.751466,4461.7997 870.241718,4464.33592 872.537877,4464.33592 C874.838756,4464.33592 875.327659,4461.7997 875.327659,4459.67819 Z M841.359345,4452.18078 L835.954437,4452.18078 C836.096724,4453.7918 836.127744,4454.69138 836.127744,4456.03603 L836.127744,4467.17291 L841.587949,4467.17291 L841.587949,4458.57428 C841.587949,4458.39423 841.239985,4455.31785 843.941428,4455.31785 C845.636741,4455.31785 845.982682,4456.90392 846.040676,4458.36524 L846.040676,4467.17291 L851.499533,4467.17291 L851.499533,4458.57428 C851.499533,4458.39423 851.152917,4455.31785 853.851662,4455.31785 C855.548999,4455.31785 855.891569,4456.90392 855.949563,4458.36524 L855.949563,4467.17291 L861.408419,4467.17291 L861.408419,4457.13657 C861.408419,4453.82552 859.109563,4451.73436 856.006882,4451.73436 C853.851662,4451.79168 851.870425,4452.80927 850.894641,4454.60102 C850.290425,4452.77758 848.308513,4451.8254 846.555879,4451.8254 C844.402682,4451.8254 842.505738,4452.6009 841.500958,4454.65969 L841.441615,4454.65969 L841.359345,4452.18078 Z M771.575,4481.56824 C771.575,4481.56824 777.31506,4478.007 786.524646,4478.35497 C794.076682,4478.64157 800.943579,4481.49271 808.957544,4481.77661 C819.850305,4482.15897 825.79739,4476.64212 825.526302,4476.27325 C825.439985,4476.15524 825.276118,4476.24763 825.091347,4476.32653 C822.733148,4477.33265 821.385798,4477.82695 819.532687,4478.33136 C817.414556,4478.90524 815.276869,4479.55194 810.748615,4479.09001 C803.207369,4478.32125 794.600651,4473.13888 785.807138,4473.16787 C778.901803,4473.18878 773.722128,4476.97929 773.722128,4476.97929 L771.575,4481.56824 Z M797.789648,4452.15043 L792.437339,4452.15043 L792.437339,4454.95438 C792.440711,4454.95573 793.485952,4454.95438 793.485952,4454.95438 L793.485952,4464.4917 L792.437339,4464.4917 L792.437339,4467.18303 L798.0722,4467.18303 L798.0722,4464.47686 L797.080233,4464.47686 L797.080233,4458.29376 L800.874795,4467.15335 L802.516835,4467.15335 L806.11179,4458.26543 L806.11179,4464.4917 L805.090826,4464.4917 L805.085431,4467.18303 L810.894949,4467.18303 L810.894949,4464.47551 C810.894949,4464.47686 809.827454,4464.47551 809.827454,4464.47551 L809.819362,4454.95438 C809.819362,4454.95438 810.925294,4454.95573 810.923274,4454.95438 L810.923274,4452.15043 L805.348427,4452.15043 L801.66783,4460.67151 L797.789648,4452.15043 Z M788.819456,4444.52489 C788.819456,4444.52489 789.719038,4441.94349 792.912755,4441.94349 L816.976904,4441.94349 C818.355948,4441.94349 819.490203,4442.87206 819.490203,4444.52692 C819.490203,4444.53366 819.515828,4476.81341 819.515828,4476.81341 C819.515828,4476.81341 816.644449,4478.10883 810.755359,4477.54238 C804.559439,4476.9476 794.605371,4471.66947 786.557015,4471.59125 C778.951705,4471.52179 774.795017,4474.72495 774.737023,4474.76743 L788.819456,4444.52489 Z" id="moran"></path>
        </g>
    </g>
</svg>