<?xml version="1.0" encoding="UTF-8"?>
<svg width="69px" height="71px" viewBox="0 0 69 71" version="1.1" xmlns="http://www.w3.org/2000/svg" xmlns:xlink="http://www.w3.org/1999/xlink">
    <title>joy susan</title>
    <g id="Website" stroke="none" stroke-width="1" fill="none" fill-rule="evenodd" fill-opacity="0.5">
        <g id="about" transform="translate(-1115.000000, -4579.000000)" fill="#153C63">
            <g id="5" transform="translate(108.000000, 3230.000000)">
                <path d="M1008.7577,1393.34549 C1008.56489,1393.34549 1008.40715,1393.20519 1008.28492,1392.92522 C1008.16204,1392.64482 1008.10093,1392.27705 1008.10093,1391.82191 L1008.10093,1390.21956 C1008.10093,1389.32629 1008.31117,1388.87976 1008.73145,1388.87976 L1009.75599,1388.87976 C1010.42116,1388.87976 1010.91181,1388.60388 1011.22707,1388.05233 C1011.54212,1387.50057 1011.69985,1386.38414 1011.69985,1384.70303 L1011.69985,1359.85247 C1011.69985,1358.69666 1011.91849,1358.11886 1012.35663,1358.11886 L1015.27231,1358.11886 C1015.71002,1358.11886 1015.92909,1358.69666 1015.92909,1359.85247 L1015.92909,1384.62427 C1015.92909,1386.16507 1015.84129,1387.48744 1015.66634,1388.59075 C1015.49117,1389.69406 1015.26327,1390.54774 1014.98352,1391.15222 C1014.70312,1391.75606 1014.33083,1392.22906 1013.86709,1392.57057 C1013.4027,1392.91187 1012.96068,1393.12621 1012.54041,1393.21422 C1012.12013,1393.30159 1011.59484,1393.34549 1010.96432,1393.34549 L1008.7577,1393.34549 Z M1037.94515,1380.90713 C1038.32153,1381.14363 1038.7898,1381.26177 1039.3506,1381.26177 C1039.91075,1381.26177 1040.37514,1381.14363 1040.7427,1380.90713 C1041.11046,1380.67063 1041.45198,1380.21549 1041.76724,1379.54107 C1042.0825,1378.86729 1042.319,1377.84275 1042.47652,1376.46765 C1042.63405,1375.09298 1042.71302,1373.35485 1042.71302,1371.25325 C1042.71302,1369.20437 1042.63405,1367.50584 1042.47652,1366.15721 C1042.319,1364.80879 1042.07798,1363.79737 1041.75411,1363.12295 C1041.42981,1362.44917 1041.08421,1361.9893 1040.71644,1361.74398 C1040.34867,1361.49887 1039.8931,1361.37621 1039.3506,1361.37621 C1038.80744,1361.37621 1038.34778,1361.49887 1037.97141,1361.74398 C1037.5946,1361.9893 1037.24448,1362.44917 1036.92061,1363.12295 C1036.59631,1363.79737 1036.35594,1364.80427 1036.1982,1366.14386 C1036.04067,1367.48367 1035.96191,1369.18716 1035.96191,1371.25325 C1035.96191,1373.35485 1036.03616,1375.08846 1036.18507,1376.45452 C1036.33377,1377.82058 1036.57006,1378.84491 1036.89435,1379.52794 C1037.21822,1380.21098 1037.56835,1380.67063 1037.94515,1380.90713 M1040.87418,1384.75547 C1040.43626,1384.80798 1039.9284,1384.83445 1039.3506,1384.83445 C1038.77258,1384.83445 1038.26042,1384.80798 1037.81389,1384.75547 C1037.36714,1384.70296 1036.85497,1384.5717 1036.27717,1384.36145 C1035.69916,1384.15142 1035.1956,1383.86241 1034.7665,1383.49464 C1034.33719,1383.12687 1033.89518,1382.60158 1033.44004,1381.91855 C1032.98447,1381.23552 1032.6167,1380.43026 1032.33673,1379.50169 C1032.05633,1378.57377 1031.82457,1377.40483 1031.64057,1375.99487 C1031.4568,1374.58534 1031.36469,1373.00473 1031.36469,1371.25325 C1031.36469,1369.5022 1031.4568,1367.9302 1031.64057,1366.5381 C1031.82457,1365.14579 1032.06494,1363.98588 1032.36298,1363.05732 C1032.6606,1362.12939 1033.03698,1361.32822 1033.49255,1360.6538 C1033.94768,1359.97981 1034.38991,1359.46312 1034.81923,1359.10396 C1035.24811,1358.74523 1035.75576,1358.46483 1036.34281,1358.26319 C1036.92922,1358.0622 1037.43708,1357.93502 1037.86639,1357.8823 C1038.29528,1357.82979 1038.7898,1357.80353 1039.3506,1357.80353 C1039.91075,1357.80353 1040.40548,1357.82979 1040.8348,1357.8823 C1041.26368,1357.93502 1041.76724,1358.0622 1042.34526,1358.26319 C1042.92327,1358.46483 1043.4264,1358.74523 1043.8555,1359.10396 C1044.2846,1359.46312 1044.72682,1359.97981 1045.18239,1360.6538 C1045.63753,1361.32822 1046.0096,1362.12939 1046.29861,1363.05732 C1046.5874,1363.98588 1046.82412,1365.14579 1047.00768,1366.5381 C1047.19189,1367.9302 1047.28378,1369.5022 1047.28378,1371.25325 C1047.28378,1373.00473 1047.19189,1374.58534 1047.00768,1375.99487 C1046.82412,1377.40483 1046.59171,1378.57377 1046.31174,1379.50169 C1046.03134,1380.43026 1045.6683,1381.23552 1045.22156,1381.91855 C1044.77503,1382.60158 1044.3371,1383.12687 1043.908,1383.49464 C1043.47891,1383.86241 1042.97578,1384.15142 1042.39776,1384.36145 C1041.81975,1384.5717 1041.31167,1384.70296 1040.87418,1384.75547 M1065.21509,1387.7502 C1065.61772,1387.7502 1065.96784,1387.42202 1066.26589,1386.76503 C1066.5635,1386.10847 1066.71242,1385.17581 1066.71242,1383.96749 C1066.71242,1383.68752 1066.53725,1382.71548 1066.18712,1381.05159 L1061.03836,1359.64244 C1061.00307,1359.39734 1060.98585,1359.20495 1060.98585,1359.06443 C1060.98585,1358.43412 1061.11712,1358.11886 1061.37987,1358.11886 L1064.55831,1358.11886 C1064.80342,1358.11886 1065.00484,1358.20214 1065.16258,1358.36827 C1065.3201,1358.53505 1065.44255,1358.87204 1065.53035,1359.37969 L1068.94528,1377.45266 C1069.01501,1377.66291 1069.05891,1377.76793 1069.07655,1377.76793 C1069.14649,1377.76793 1069.18178,1377.67195 1069.18178,1377.47913 L1071.86118,1359.45845 C1071.93091,1358.93316 1072.04066,1358.57852 1072.18936,1358.39453 C1072.33827,1358.21075 1072.52657,1358.11886 1072.75424,1358.11886 L1074.96086,1358.11886 C1075.25847,1358.11886 1075.40739,1358.46038 1075.40739,1359.14319 C1075.40739,1359.30093 1075.38974,1359.50235 1075.35488,1359.74746 L1070.67911,1384.09876 C1070.31135,1386.11256 1069.90828,1387.65379 1069.47058,1388.72223 C1069.03265,1389.79003 1068.54222,1390.51696 1067.9995,1390.90238 C1067.45656,1391.28736 1066.73867,1391.489 1065.84561,1391.50665 L1065.58286,1391.50665 C1064.16429,1391.50665 1063.20107,1391.12984 1062.69321,1390.37709 C1062.5529,1390.21956 1062.48318,1389.8165 1062.48318,1389.16877 C1062.48318,1387.87243 1062.69321,1387.2249 1063.11349,1387.2249 C1063.14835,1387.2249 1063.46361,1387.31227 1064.05927,1387.48744 C1064.6545,1387.6624 1065.03992,1387.7502 1065.21509,1387.7502 M1007.51275,1415.07793 C1007.51275,1414.65593 1007.69309,1414.31097 1008.05397,1414.04263 C1008.41464,1413.77492 1008.87343,1413.64086 1009.43036,1413.64086 C1009.98729,1413.64086 1010.39357,1413.70843 1010.64923,1413.84314 C1010.90488,1413.97807 1011.0327,1414.1541 1011.0327,1414.37123 C1011.0327,1414.66906 1010.93651,1414.81776 1010.74391,1414.81776 C1010.6772,1414.81776 1010.50031,1414.74588 1010.21324,1414.60235 C1009.92595,1414.45881 1009.64749,1414.38694 1009.37785,1414.38694 C1009.10821,1414.38694 1008.90593,1414.44827 1008.771,1414.57093 C1008.63607,1414.69338 1008.56872,1414.8509 1008.56872,1415.04371 C1008.56872,1415.23631 1008.69826,1415.40783 1008.95758,1415.55846 C1009.04516,1415.61118 1009.32965,1415.73277 1009.81126,1415.92365 C1010.29286,1416.11453 1010.6318,1416.29594 1010.82784,1416.46745 C1011.13256,1416.7373 1011.28491,1417.08743 1011.28491,1417.51825 C1011.28491,1417.94907 1011.10544,1418.3106 1010.74649,1418.60305 C1010.38733,1418.8955 1009.92423,1419.04183 1009.35676,1419.04183 C1008.39355,1419.04183 1007.79638,1418.8544 1007.56526,1418.47974 C1007.49166,1418.36052 1007.45487,1418.25551 1007.45487,1418.16448 C1007.45487,1417.85976 1007.54955,1417.7074 1007.73871,1417.7074 C1007.79466,1417.7074 1008.00039,1417.80101 1008.35589,1417.98845 C1008.71139,1418.17588 1009.02837,1418.26949 1009.30684,1418.26949 C1009.5853,1418.26949 1009.80501,1418.2101 1009.9662,1418.09088 C1010.12738,1417.97166 1010.20786,1417.80984 1010.20786,1417.60476 C1010.20786,1417.4001 1010.08003,1417.21181 1009.82438,1417.04008 C1009.71937,1416.97014 1009.43036,1416.83974 1008.95758,1416.64864 C1008.48479,1416.45776 1008.15382,1416.27829 1007.96466,1416.11022 C1007.66339,1415.84424 1007.51275,1415.49993 1007.51275,1415.07793 M1024.14123,1415.88954 C1024.14123,1416.82822 1024.1763,1417.39569 1024.24624,1417.59174 C1024.39344,1418.00513 1024.65619,1418.21171 1025.03429,1418.21171 C1025.49674,1418.21171 1025.83116,1418.03224 1026.03774,1417.6733 C1026.24433,1417.31435 1026.34784,1416.70384 1026.34784,1415.8422 L1026.35839,1415.55857 L1026.35839,1415.28011 C1026.35839,1415.09095 1026.34526,1414.89857 1026.31901,1414.70209 C1026.29275,1414.50605 1026.27962,1414.39737 1026.27962,1414.3765 C1026.27962,1414.21188 1026.3373,1414.09524 1026.45286,1414.02724 C1026.56842,1413.95859 1026.73821,1413.92459 1026.96244,1413.92459 C1027.18667,1413.92459 1027.33021,1414.00873 1027.39326,1414.1768 C1027.43544,1414.28913 1027.45631,1414.84498 1027.45631,1415.84499 C1027.45631,1416.84479 1027.51054,1417.56914 1027.61922,1418.01739 C1027.66828,1418.20999 1027.69281,1418.30984 1027.69281,1418.31673 L1027.69281,1418.41658 C1027.69281,1418.50761 1027.63923,1418.59175 1027.53249,1418.66879 C1027.42576,1418.74583 1027.27426,1418.78435 1027.078,1418.78435 C1026.88196,1418.78435 1026.6928,1418.74153 1026.51074,1418.65566 C1026.32847,1418.5698 1026.21722,1418.52698 1026.17698,1418.52698 C1026.13673,1418.52698 1025.9521,1418.59003 1025.62285,1418.71613 C1025.29338,1418.84224 1025.00115,1418.90529 1024.7455,1418.90529 L1024.60885,1418.90529 C1024.32866,1418.90529 1024.07452,1418.84138 1023.84706,1418.71355 C1023.61938,1418.58572 1023.44249,1418.40259 1023.31638,1418.16437 C1023.13067,1417.8108 1023.03792,1417.05956 1023.03792,1415.91063 C1023.03792,1415.24159 1023.01511,1414.8282 1022.9697,1414.67067 C1022.96605,1414.65669 1022.94345,1414.59385 1022.90127,1414.48152 C1022.85931,1414.36961 1022.83822,1414.29064 1022.83822,1414.24502 L1022.83822,1414.12946 C1022.83822,1413.93686 1023.02049,1413.84066 1023.3846,1413.84066 L1023.5107,1413.84066 C1023.80143,1413.84066 1023.98887,1413.97882 1024.07301,1414.25556 C1024.11842,1414.4062 1024.14123,1414.95107 1024.14123,1415.88954 M1039.46151,1415.07793 C1039.46151,1414.65593 1039.64184,1414.31097 1040.00272,1414.04263 C1040.36339,1413.77492 1040.82219,1413.64086 1041.37911,1413.64086 C1041.93604,1413.64086 1042.34233,1413.70843 1042.59798,1413.84314 C1042.85342,1413.97807 1042.98167,1414.1541 1042.98167,1414.37123 C1042.98167,1414.66906 1042.88505,1414.81776 1042.69245,1414.81776 C1042.62617,1414.81776 1042.44907,1414.74588 1042.162,1414.60235 C1041.87471,1414.45881 1041.59625,1414.38694 1041.32661,1414.38694 C1041.05697,1414.38694 1040.85468,1414.44827 1040.71976,1414.57093 C1040.58483,1414.69338 1040.51747,1414.8509 1040.51747,1415.04371 C1040.51747,1415.23631 1040.64702,1415.40783 1040.90633,1415.55846 C1040.99391,1415.61118 1041.2784,1415.73277 1041.76001,1415.92365 C1042.24162,1416.11453 1042.58034,1416.29594 1042.77659,1416.46745 C1043.08131,1416.7373 1043.23388,1417.08743 1043.23388,1417.51825 C1043.23388,1417.94907 1043.05441,1418.3106 1042.69503,1418.60305 C1042.33609,1418.8955 1041.87299,1419.04183 1041.30552,1419.04183 C1040.3423,1419.04183 1039.74514,1418.8544 1039.51402,1418.47974 C1039.44042,1418.36052 1039.40362,1418.25551 1039.40362,1418.16448 C1039.40362,1417.85976 1039.49831,1417.7074 1039.68746,1417.7074 C1039.74341,1417.7074 1039.94914,1417.80101 1040.30464,1417.98845 C1040.66015,1418.17588 1040.97713,1418.26949 1041.25559,1418.26949 C1041.53405,1418.26949 1041.75377,1418.2101 1041.91495,1418.09088 C1042.07613,1417.97166 1042.15662,1417.80984 1042.15662,1417.60476 C1042.15662,1417.4001 1042.02879,1417.21181 1041.77314,1417.04008 C1041.66812,1416.97014 1041.37911,1416.83974 1040.90633,1416.64864 C1040.43355,1416.45776 1040.10257,1416.27829 1039.91342,1416.11022 C1039.61214,1415.84424 1039.46151,1415.49993 1039.46151,1415.07793 M1056.54716,1418.30627 L1056.71007,1418.30627 C1057.03587,1418.30627 1057.32273,1418.16639 1057.57171,1417.88599 C1057.70836,1417.73191 1057.77658,1417.44463 1057.77658,1417.02435 L1057.78174,1416.95613 L1057.78174,1416.82465 C1057.78174,1416.56211 1057.67307,1416.43063 1057.45615,1416.43063 L1057.28787,1416.43063 L1057.01478,1416.45172 L1056.87297,1416.46743 C1056.55061,1416.46743 1056.28613,1416.55781 1056.07955,1416.73814 C1055.87274,1416.91848 1055.76966,1417.13303 1055.76966,1417.38158 L1055.76966,1417.56557 C1055.76966,1417.75473 1055.83702,1417.92538 1055.97195,1418.07773 C1056.10666,1418.23009 1056.2984,1418.30627 1056.54716,1418.30627 M1059.20569,1418.55848 C1059.20569,1418.79326 1058.96919,1418.91054 1058.49641,1418.91054 C1058.41226,1418.91054 1058.25904,1418.8675 1058.03653,1418.78164 C1057.81424,1418.69599 1057.67414,1418.65295 1057.61626,1418.65295 C1057.55858,1418.65295 1057.36835,1418.71364 1057.0462,1418.83415 C1056.72384,1418.9553 1056.44021,1419.01556 1056.19511,1419.01556 L1056.07438,1419.01556 C1055.69241,1419.01556 1055.36316,1418.89053 1055.08663,1418.64004 C1054.80989,1418.38955 1054.67152,1418.04718 1054.67152,1417.6127 C1054.67152,1416.73018 1055.23017,1416.18036 1056.34746,1415.96301 C1057.07246,1415.81947 1057.44733,1415.74243 1057.47186,1415.73189 C1057.64337,1415.64452 1057.72923,1415.48613 1057.72923,1415.25652 C1057.72923,1415.02712 1057.6565,1414.83452 1057.51103,1414.67872 C1057.36598,1414.5227 1057.168,1414.4448 1056.91773,1414.4448 C1056.66724,1414.4448 1056.372,1414.52981 1056.0322,1414.6996 C1055.69241,1414.86938 1055.45957,1414.95439 1055.33346,1414.95439 C1055.10579,1414.95439 1054.99195,1414.79837 1054.99195,1414.48677 C1054.99195,1414.29072 1055.17142,1414.10501 1055.53058,1413.92984 C1055.88953,1413.75489 1056.2984,1413.66709 1056.75741,1413.66709 L1057.01995,1413.66709 C1057.36319,1413.66709 1057.6679,1413.73208 1057.9341,1413.86162 C1058.2003,1413.99117 1058.40344,1414.16634 1058.54353,1414.38692 C1058.74323,1414.69873 1058.84308,1415.41146 1058.84308,1416.52531 C1058.84308,1417.15562 1058.856,1417.54814 1058.88268,1417.702 C1058.90872,1417.85608 1058.96919,1418.01124 1059.06366,1418.16725 C1059.15835,1418.32306 1059.20569,1418.45346 1059.20569,1418.55848 M1071.56776,1418.8159 L1071.55205,1418.8159 C1071.14921,1418.8159 1070.94779,1418.67753 1070.94779,1418.40078 C1070.94779,1418.26779 1070.98265,1418.10317 1071.0528,1417.90691 C1071.12295,1417.71087 1071.1632,1417.51203 1071.17374,1417.3106 C1071.18429,1417.10918 1071.18945,1416.80038 1071.18945,1416.38333 L1071.18945,1415.40096 L1071.19999,1415.12766 C1071.20688,1414.94561 1071.21054,1414.81606 1071.21054,1414.73902 L1071.15803,1414.1978 C1071.15803,1414.07536 1071.26735,1414.01403 1071.4862,1414.01403 C1071.70527,1414.01403 1071.93037,1414.07342 1072.16149,1414.19264 C1072.39261,1414.31164 1072.53528,1414.37125 1072.58951,1414.37125 C1072.64396,1414.37125 1072.74703,1414.33617 1072.89961,1414.26602 C1073.05175,1414.19608 1073.2323,1414.12012 1073.44061,1414.0377 C1073.64913,1413.95528 1073.86368,1413.91418 1074.08426,1413.91418 L1074.22091,1413.91418 C1074.48366,1413.91418 1074.71758,1413.98519 1074.92223,1414.12679 C1075.12731,1414.26882 1075.27601,1414.46486 1075.36898,1414.71513 C1075.46173,1414.96562 1075.52714,1415.42549 1075.56588,1416.09454 L1075.58159,1416.38333 L1075.59213,1416.67234 C1075.60268,1416.8404 1075.61494,1417.02267 1075.62893,1417.21872 C1075.64292,1417.41476 1075.69005,1417.6207 1075.77075,1417.8359 C1075.85123,1418.05152 1075.89169,1418.19592 1075.89169,1418.26952 C1075.89169,1418.58112 1075.65325,1418.73714 1075.17702,1418.73714 C1074.97388,1418.73714 1074.82518,1418.69582 1074.73049,1418.61361 C1074.63602,1418.53141 1074.58868,1418.39196 1074.58868,1418.19592 L1074.59922,1418.0016 C1074.59922,1416.63919 1074.50109,1415.71084 1074.30505,1415.21697 C1074.15075,1414.83543 1073.87939,1414.64433 1073.49075,1414.64433 C1073.30482,1414.64433 1073.12363,1414.69082 1072.94674,1414.78378 C1072.77006,1414.87653 1072.63234,1415.02631 1072.53442,1415.23289 C1072.35925,1415.60066 1072.27167,1416.30822 1072.27167,1417.35537 L1072.31385,1418.30631 C1072.31385,1418.45695 1072.24197,1418.5794 1072.09844,1418.67408 C1071.95469,1418.76855 1071.77801,1418.8159 1071.56776,1418.8159 M1007.33655,1403.41453 L1075.9839,1403.41453 L1075.9839,1402.98414 L1007.33655,1402.98414 L1007.33655,1403.41453 Z M1016.24719,1351.48064 C1016.24719,1352.82755 1015.15529,1353.91945 1013.80838,1353.91945 C1012.46147,1353.91945 1011.36936,1352.82755 1011.36936,1351.48064 C1011.36936,1350.13373 1012.46147,1349.04183 1013.80838,1349.04183 C1015.15529,1349.04183 1016.24719,1350.13373 1016.24719,1351.48064" id="joy-susan"></path>
            </g>
        </g>
    </g>
</svg>