<?xml version="1.0" encoding="UTF-8"?>
<svg width="141px" height="80px" viewBox="0 0 141 80" version="1.1" xmlns="http://www.w3.org/2000/svg" xmlns:xlink="http://www.w3.org/1999/xlink">
    <title>infinity</title>
    <g id="Website" stroke="none" stroke-width="1" fill="none" fill-rule="evenodd" fill-opacity="0.5">
        <g id="about" transform="translate(-780.000000, -4564.000000)" fill="#153C63">
            <g id="5" transform="translate(108.000000, 3230.000000)">
                <path d="M767.955374,1397.90439 C766.787632,1397.90439 766.131034,1397.02865 766.131034,1396.12387 C766.131034,1394.98544 767.1525,1394.47457 767.707198,1394.24092 L769.969544,1396.66378 C770.013372,1396.70788 770.0572,1396.75171 770.0572,1396.80978 C770.0572,1396.98482 769.19598,1397.90439 767.955374,1397.90439 L767.955374,1397.90439 Z M768.52459,1391.01518 C769.254326,1391.01518 769.531812,1391.55508 769.531812,1391.97857 C769.531812,1392.92745 768.68511,1393.49666 768.5539,1393.49666 C768.407898,1393.49666 767.50285,1392.79624 767.50285,1391.93474 C767.50285,1391.16118 768.028512,1391.01518 768.52459,1391.01518 L768.52459,1391.01518 Z M773.910501,1392.94196 C773.530841,1392.94196 773.136663,1392.97127 772.771795,1392.97127 C772.377891,1392.97127 771.998232,1392.94196 771.604601,1392.94196 C771.502154,1392.94196 771.385462,1393.0151 771.385462,1393.07317 C771.385462,1393.21918 771.633364,1393.23369 772.246408,1393.33614 C772.392409,1393.36545 772.421719,1393.45283 772.421719,1393.52597 C772.421719,1393.65718 772.17327,1394.13902 771.998232,1394.35761 L770.962248,1395.67135 C770.903628,1395.74449 770.874318,1395.81763 770.801728,1395.81763 C770.7579,1395.81763 770.72859,1395.75901 770.684762,1395.71518 L768.889458,1393.8177 C768.860148,1393.78839 768.81632,1393.75963 768.81632,1393.71553 C768.81632,1393.55501 770.290858,1393.32162 770.290858,1392.0665 C770.290858,1391.19021 769.575366,1390.66483 768.5539,1390.66483 C767.225638,1390.66483 766.656422,1391.56987 766.656422,1392.44589 C766.656422,1393.33614 767.327538,1393.84674 767.327538,1393.90536 C767.327538,1394.13902 764.992328,1394.62058 764.992328,1396.51805 C764.992328,1398.26925 766.495902,1398.60536 767.371366,1398.60536 C769.502776,1398.60536 770.071992,1397.20396 770.24703,1397.20396 C770.305102,1397.20396 770.422068,1397.379 770.56807,1397.53952 C770.8598,1397.84631 771.545982,1398.60536 772.436237,1398.60536 C773.122145,1398.60536 774.027467,1398.21118 774.027467,1397.74387 C774.027467,1397.64197 773.939811,1397.58335 773.823119,1397.58335 C773.662051,1397.58335 773.209801,1397.75866 772.903553,1397.75866 C772.275717,1397.75866 771.122768,1396.48874 771.122768,1396.28439 C771.122768,1396.22577 771.122768,1396.15318 771.151804,1396.12387 L773.180765,1393.58404 C773.385113,1393.32162 773.618771,1393.27752 773.808327,1393.263 C773.998157,1393.24849 774.129367,1393.263 774.129367,1393.10248 C774.129367,1392.98579 774.041711,1392.94196 773.910501,1392.94196 L773.910501,1392.94196 Z M802.099564,1380.82243 L802.099564,1383.14394 C802.099564,1384.79489 801.692512,1385.05786 800.831292,1385.10607 C800.32864,1385.12963 799.70683,1385.3211 799.70683,1385.63228 C799.70683,1385.79965 799.730662,1385.96701 799.922135,1385.96701 C801.070428,1385.96701 802.171059,1385.87141 803.200468,1385.87141 C804.204951,1385.87141 805.353518,1385.96701 806.430317,1385.96701 C806.765327,1385.96701 807.38741,1385.96701 807.38741,1385.65638 C807.38741,1385.17729 807.124169,1385.10607 806.789158,1385.10607 C805.042339,1385.10607 804.922634,1384.62697 804.922634,1382.8807 L804.922634,1381.13361 C804.922634,1379.12382 804.970845,1378.90879 805.903833,1377.73612 L808.870988,1374.07539 C808.990693,1373.90747 810.641638,1372.18476 811.048143,1372.08916 C811.766374,1371.92179 811.957847,1371.89768 811.957847,1371.61061 C811.957847,1371.34737 811.838142,1371.22766 811.5749,1371.22766 C811.048143,1371.22766 810.497828,1371.32381 809.971618,1371.32381 C809.205724,1371.32381 808.464483,1371.22766 807.698589,1371.22766 C806.693285,1371.22766 806.62179,1371.39503 806.62179,1371.61061 C806.62179,1371.85002 806.837095,1372.01739 807.746252,1372.08916 C808.440378,1372.13682 808.535704,1372.18476 808.535704,1372.448 C808.535704,1372.71124 808.464483,1372.90271 808.248904,1373.18979 L805.09055,1377.64024 C804.970845,1377.80789 804.779371,1378.02319 804.563793,1378.02319 C804.301099,1378.02319 804.013477,1377.59258 803.822004,1377.32907 L801.214239,1373.40537 C800.950723,1373.02242 800.783355,1372.73507 800.783355,1372.37623 C800.783355,1372.08916 801.166302,1372.08916 801.668954,1372.08916 C802.267206,1372.08916 802.554006,1372.04149 802.554006,1371.5865 C802.554006,1371.39503 802.482237,1371.22766 802.123396,1371.22766 C801.956028,1371.22766 800.47245,1371.32381 799.299778,1371.32381 C798.27119,1371.32381 796.883486,1371.22766 796.309066,1371.22766 C795.543446,1371.22766 795.423467,1371.25177 795.423467,1371.61061 C795.423467,1371.92179 795.806414,1371.96945 796.28496,1372.08916 C796.763781,1372.20886 797.289991,1372.5677 799.323883,1375.55842 L801.022765,1378.0473 C801.740449,1379.10026 802.099564,1379.79384 802.099564,1380.82243 L802.099564,1380.82243 Z M794.469112,1370.55792 C793.822924,1370.55792 794.612375,1371.65855 792.315515,1371.65855 L783.270789,1371.65855 C780.686855,1371.65855 781.571907,1370.70145 780.925992,1370.70145 C780.66275,1370.70145 780.56715,1370.79705 780.351845,1371.44324 C779.920961,1372.75918 779.275046,1374.33835 779.275046,1374.93688 C779.275046,1375.08014 779.322983,1375.19957 779.609783,1375.19957 C780.399508,1375.19957 780.495382,1372.4721 783.964641,1372.5677 C785.759396,1372.61537 785.807333,1372.66358 785.807333,1373.95568 L785.807333,1383.74192 C785.807333,1384.1487 785.52026,1384.98581 785.256744,1385.10607 C784.539061,1385.4408 783.294894,1385.2255 783.294894,1385.75171 C783.294894,1385.94318 783.342557,1386.06289 783.821104,1386.06289 C784.395524,1386.06289 784.969945,1386.01522 785.567923,1385.96701 C786.142343,1385.91908 786.71649,1385.87141 787.290911,1385.87141 C787.67331,1385.87141 788.295393,1385.89552 788.91775,1385.91908 C789.539834,1385.94318 790.185749,1385.96701 790.544864,1385.96701 C790.999306,1385.96701 791.238716,1385.94318 791.238716,1385.60817 C791.238716,1385.29699 790.831938,1385.10607 789.420129,1385.10607 C788.750382,1385.10607 788.630677,1384.60342 788.630677,1383.43102 L788.630677,1373.14212 C788.630677,1372.66358 788.774488,1372.5677 789.779244,1372.5677 C793.10524,1372.5677 793.583513,1372.99831 793.942629,1374.52983 C794.014397,1374.76896 794.109723,1374.91277 794.301196,1374.91277 C794.612375,1374.91277 794.756186,1374.67336 794.756186,1371.22766 C794.756186,1370.70145 794.660312,1370.55792 794.469112,1370.55792 L794.469112,1370.55792 Z M778.007596,1385.67994 C778.007596,1385.29699 777.720523,1385.2255 777.21787,1385.10607 C776.356651,1384.91459 775.925767,1384.86638 775.925767,1383.62249 L775.925767,1373.09419 C775.925767,1372.18476 776.021914,1372.04149 777.241976,1371.94535 C777.792291,1371.89768 777.983764,1371.73032 777.983764,1371.51474 C777.983764,1371.29971 777.887891,1371.22766 777.314018,1371.22766 C776.524293,1371.22766 776.236945,1371.32381 774.298927,1371.32381 C773.126528,1371.32381 772.480613,1371.22766 771.906193,1371.22766 C771.355878,1371.22766 771.236173,1371.37147 771.236173,1371.65855 C771.236173,1371.94535 771.355878,1372.06505 771.953856,1372.08916 C772.935055,1372.13682 773.102423,1372.448 773.102423,1373.4292 L773.102423,1383.21544 C773.102423,1385.03403 772.552108,1385.05786 771.738825,1385.10607 C770.781457,1385.15373 770.685857,1385.17729 770.685857,1385.51257 C770.685857,1385.79965 770.733794,1385.96701 771.092636,1385.96701 C771.762382,1385.96701 772.504171,1385.87141 773.868317,1385.87141 C775.614862,1385.87141 776.811366,1385.96701 777.457281,1385.96701 C777.959659,1385.96701 778.007596,1385.89552 778.007596,1385.67994 L778.007596,1385.67994 Z M757.049602,1385.10607 C755.54192,1384.77078 755.254846,1384.38784 755.254846,1383.21544 C755.254846,1381.7798 755.158973,1380.27212 755.158973,1378.38203 L755.158973,1373.95568 C755.158973,1373.88391 755.254846,1373.85981 755.302509,1373.90747 L765.065193,1384.86638 C766.141717,1386.08645 766.404959,1386.78057 766.835843,1386.78057 C766.97938,1386.78057 767.099085,1386.68497 767.099085,1386.30202 L767.099085,1381.54066 C767.099085,1378.78909 767.170579,1376.08517 767.290284,1373.76421 C767.362053,1372.4721 767.457926,1372.20886 768.103841,1372.08916 C769.37184,1371.85002 769.42005,1371.80208 769.42005,1371.56295 C769.42005,1371.2756 769.252135,1371.18 768.869735,1371.18 C768.486788,1371.18 767.816768,1371.2756 766.524664,1371.2756 C765.75877,1371.2756 764.849614,1371.18 764.299299,1371.18 C763.748983,1371.18 763.677215,1371.39503 763.677215,1371.68265 C763.677215,1371.96945 763.748983,1372.06505 764.179593,1372.08916 C765.926686,1372.18476 766.094054,1372.3524 766.094054,1373.81214 L766.094054,1381.49245 C766.094054,1381.54066 766.046118,1381.58832 765.974349,1381.58832 C765.926686,1381.58832 765.878749,1381.56449 765.782876,1381.46889 C765.44814,1381.13361 764.610477,1380.46359 762.839827,1378.31027 L757.049602,1371.22766 C756.139898,1371.29971 755.613688,1371.32326 752.216198,1371.32326 C751.880913,1371.32381 751.833251,1371.49118 751.833251,1371.65855 C751.833251,1371.99356 751.880913,1372.04149 752.216198,1372.08916 C753.867143,1372.32829 754.154216,1372.49566 754.154216,1373.59657 L754.154216,1378.35848 C754.154216,1378.64528 754.010406,1382.25834 753.986848,1383.57428 C753.962743,1384.89049 753.555964,1385.03403 752.670639,1385.10607 C751.976513,1385.15373 751.68944,1385.3452 751.68944,1385.60817 C751.68944,1385.96701 752.000619,1385.96701 752.407123,1385.96701 C753.077143,1385.96701 753.699501,1385.87141 754.704531,1385.87141 C755.589583,1385.87141 756.427245,1385.96701 757.288739,1385.96701 C757.719349,1385.96701 757.958759,1385.96701 757.958759,1385.56024 C757.958759,1385.36876 757.719349,1385.24933 757.049602,1385.10607 L757.049602,1385.10607 Z M743.172567,1385.96701 C743.842587,1385.96701 744.584376,1385.87141 745.948248,1385.87141 C747.694793,1385.87141 748.891571,1385.96701 749.537212,1385.96701 C750.039864,1385.96701 750.087527,1385.89552 750.087527,1385.67994 C750.087527,1385.29699 749.800728,1385.2255 749.298076,1385.10607 C748.436582,1384.91459 748.005972,1384.86638 748.005972,1383.62249 L748.005972,1373.09419 C748.005972,1372.18476 748.101846,1372.04149 749.322181,1371.94535 C749.872496,1371.89768 750.06397,1371.73032 750.06397,1371.51474 C750.06397,1371.29971 749.968096,1371.22766 749.393949,1371.22766 C748.604498,1371.22766 748.316877,1371.32381 746.379132,1371.32381 C745.206459,1371.32381 744.560819,1371.22766 743.986398,1371.22766 C743.435809,1371.22766 743.316378,1371.37147 743.316378,1371.65855 C743.316378,1371.94535 743.435809,1372.06505 744.034061,1372.08916 C745.014986,1372.13682 745.182354,1372.448 745.182354,1373.4292 L745.182354,1383.21544 C745.182354,1385.03403 744.632039,1385.05786 743.818756,1385.10607 C742.861388,1385.15373 742.766063,1385.17729 742.766063,1385.51257 C742.766063,1385.79965 742.813726,1385.96701 743.172567,1385.96701 L743.172567,1385.96701 Z M736.186935,1385.10607 C734.632137,1384.86638 734.320958,1384.69902 734.320958,1383.47868 L734.320958,1379.48266 C734.320958,1378.69321 734.440663,1378.59761 735.828093,1378.59761 C738.07729,1378.59761 738.436132,1379.24353 738.675816,1379.93738 C738.843184,1380.41593 738.938784,1380.84654 739.202026,1380.84654 C739.584973,1380.84654 739.60853,1380.75121 739.60853,1378.57351 C739.60853,1375.67812 739.536762,1375.63046 739.17792,1375.63046 C738.843184,1375.63046 738.819079,1376.15694 738.460237,1376.85079 C738.221101,1377.30551 737.64668,1377.78406 735.277778,1377.78406 C734.488326,1377.78406 734.320958,1377.61641 734.320958,1377.1858 L734.320958,1373.66833 C734.320958,1372.16093 734.560095,1372.08916 736.067503,1372.08916 C737.024323,1372.08916 739.369394,1372.20886 740.06352,1373.40537 C740.398256,1373.97951 740.422361,1374.81663 740.733266,1374.81663 C741.092108,1374.81663 741.140044,1374.79307 741.140044,1372.3524 C741.140044,1371.25177 740.972676,1371.22766 740.039414,1371.22766 C738.986447,1371.22766 735.277778,1371.32381 733.913906,1371.32381 C732.837381,1371.32381 731.664708,1371.22766 730.468205,1371.22766 C729.774627,1371.22766 729.559048,1371.32326 729.559048,1371.65855 C729.559048,1371.92179 729.583153,1372.06505 730.516415,1372.08916 C731.209993,1372.11326 731.49734,1372.40034 731.49734,1373.30949 C731.49734,1376.89846 731.353804,1380.51153 731.353804,1384.10076 C731.353804,1384.98581 731.042625,1385.08196 730.707889,1385.10607 C729.367574,1385.15373 729.200206,1385.2255 729.200206,1385.56024 C729.200206,1385.82375 729.29608,1385.96701 729.607259,1385.96701 C730.731446,1385.96701 731.880013,1385.87141 733.004749,1385.87141 C734.177148,1385.87141 735.325715,1385.96701 736.498113,1385.96701 C737.072534,1385.96701 737.144028,1385.91908 737.144028,1385.60817 C737.144028,1385.36876 737.096091,1385.24933 736.186935,1385.10607 L736.186935,1385.10607 Z M724.75194,1381.58832 C724.704277,1381.58832 724.65634,1381.56449 724.560466,1381.46889 C724.22573,1381.13361 723.388068,1380.46359 721.617417,1378.31027 L715.827193,1371.22766 C714.917488,1371.29971 714.391279,1371.32326 710.993788,1371.32326 C710.658504,1371.32381 710.610841,1371.49118 710.610841,1371.65855 C710.610841,1371.99356 710.658504,1372.04149 710.993788,1372.08916 C712.644733,1372.32829 712.931807,1372.49566 712.931807,1373.59657 L712.931807,1378.35848 C712.931807,1378.64528 712.787996,1382.25834 712.764439,1383.57428 C712.740333,1384.89049 712.333555,1385.03403 711.44823,1385.10607 C710.754104,1385.15373 710.467031,1385.3452 710.467031,1385.60817 C710.467031,1385.96701 710.778209,1385.96701 711.184714,1385.96701 C711.854734,1385.96701 712.477091,1385.87141 713.482122,1385.87141 C714.367173,1385.87141 715.204836,1385.96701 716.066329,1385.96701 C716.496939,1385.96701 716.73635,1385.96701 716.73635,1385.56024 C716.73635,1385.36876 716.496939,1385.24933 715.827193,1385.10607 C714.31951,1384.77078 714.032437,1384.38784 714.032437,1383.21544 C714.032437,1381.7798 713.936563,1380.27212 713.936563,1378.38203 L713.936563,1373.95568 C713.936563,1373.88391 714.032437,1373.85981 714.0801,1373.90747 L723.842783,1384.86638 C724.919308,1386.08645 725.18255,1386.78057 725.613434,1386.78057 C725.75697,1386.78057 725.876675,1386.68497 725.876675,1386.30202 L725.876675,1381.54066 C725.876675,1378.78909 725.94817,1376.08517 726.067875,1373.76421 C726.139643,1372.4721 726.235517,1372.20886 726.881432,1372.08916 C728.14943,1371.85002 728.197641,1371.80208 728.197641,1371.56295 C728.197641,1371.2756 728.029725,1371.18 727.647326,1371.18 C727.264379,1371.18 726.594359,1371.2756 725.302255,1371.2756 C724.536361,1371.2756 723.627204,1371.18 723.076889,1371.18 C722.526574,1371.18 722.454806,1371.39503 722.454806,1371.68265 C722.454806,1371.96945 722.526574,1372.06505 722.957184,1372.08916 C724.704277,1372.18476 724.871645,1372.3524 724.871645,1373.81214 L724.871645,1381.49245 C724.871645,1381.54066 724.823708,1381.58832 724.75194,1381.58832 L724.75194,1381.58832 Z M702.596621,1385.10607 C701.638979,1385.15373 701.543653,1385.17729 701.543653,1385.51257 C701.543653,1385.79965 701.591316,1385.96701 701.950158,1385.96701 C702.620178,1385.96701 703.361967,1385.87141 704.725839,1385.87141 C706.472384,1385.87141 707.669162,1385.96701 708.314803,1385.96701 C708.817455,1385.96701 708.865118,1385.89552 708.865118,1385.67994 C708.865118,1385.29699 708.578318,1385.2255 708.075666,1385.10607 C707.214172,1384.91459 706.783563,1384.86638 706.783563,1383.62249 L706.783563,1373.09419 C706.783563,1372.18476 706.879436,1372.04149 708.099772,1371.94535 C708.650087,1371.89768 708.84156,1371.73032 708.84156,1371.51474 C708.84156,1371.29971 708.745687,1371.22766 708.17154,1371.22766 C707.382088,1371.22766 707.094467,1371.32381 705.156723,1371.32381 C703.98405,1371.32381 703.338409,1371.22766 702.763989,1371.22766 C702.2134,1371.22766 702.093968,1371.37147 702.093968,1371.65855 C702.093968,1371.94535 702.2134,1372.06505 702.811652,1372.08916 C703.792577,1372.13682 703.959945,1372.448 703.959945,1373.4292 L703.959945,1383.21544 C703.959945,1385.03403 703.40963,1385.05786 702.596621,1385.10607 L702.596621,1385.10607 Z M806.726977,1398.25474 C805.632374,1398.25474 804.975228,1396.76595 804.975228,1395.67135 C804.975228,1394.05136 805.646892,1392.91265 806.741495,1392.91265 C807.836099,1392.91265 808.492697,1394.40144 808.492697,1395.52535 C808.492697,1397.11658 807.821581,1398.25474 806.726977,1398.25474 L806.726977,1398.25474 Z M806.756287,1392.56258 C804.712808,1392.56258 803.866106,1394.1245 803.866106,1395.61328 C803.866106,1397.17465 804.698016,1398.60536 806.712185,1398.60536 C808.755665,1398.60536 809.602093,1397.04344 809.602093,1395.55466 C809.602093,1393.99274 808.376279,1392.56258 806.756287,1392.56258 L806.756287,1392.56258 Z M802.814508,1392.56258 C802.084772,1392.56258 801.544592,1393.30683 801.369554,1393.30683 C801.252862,1393.30683 801.252862,1393.1611 801.252862,1392.92745 L801.252862,1392.50396 C801.252862,1392.40206 801.194516,1392.32892 801.077824,1392.32892 C800.887994,1392.32892 800.683646,1392.73762 800.289469,1393.08797 C800.026501,1393.32162 799.705735,1393.39421 799.705735,1393.52597 C799.705735,1393.78839 800.27495,1393.6717 800.27495,1394.59127 L800.27495,1396.85361 C800.27495,1397.9189 800.026501,1397.9189 799.472077,1398.05066 C799.427975,1398.06491 799.369903,1398.15256 799.369903,1398.2257 C799.369903,1398.3717 799.588495,1398.40101 799.690943,1398.40101 C800.14374,1398.40101 800.59599,1398.34239 801.048514,1398.34239 C801.486246,1398.34239 801.93877,1398.40101 802.376776,1398.40101 C802.537296,1398.40101 802.712334,1398.38622 802.712334,1398.24049 C802.712334,1398.07942 802.595368,1398.05066 802.522778,1398.05066 C801.442692,1398.05066 801.267106,1397.817 801.267106,1397.34969 L801.267106,1394.46006 C801.267106,1394.02205 801.456936,1393.54049 801.93877,1393.54049 C802.2305,1393.54049 802.58085,1393.87605 802.916682,1393.87605 C803.193894,1393.87605 803.66121,1393.74484 803.66121,1393.21918 C803.66121,1392.679 803.121304,1392.56258 802.814508,1392.56258 L802.814508,1392.56258 Z M798.508135,1392.82527 L796.931697,1392.82527 C796.727349,1392.82527 796.698313,1392.76693 796.698313,1392.63572 L796.698313,1392.09526 C796.698313,1391.93474 796.698313,1391.81805 796.522727,1391.81805 C796.304409,1391.81805 796.420827,1392.0665 795.866129,1392.679 C795.501261,1393.08797 794.800835,1393.20438 794.800835,1393.43804 C794.800835,1393.52597 794.873699,1393.55501 794.917527,1393.55501 L795.238567,1393.55501 C795.486743,1393.55501 795.559881,1393.59856 795.559881,1393.80291 C795.559881,1394.94162 795.530571,1395.94884 795.530571,1396.95551 C795.530571,1398.05066 796.041441,1398.45908 797.136045,1398.45908 C798.201339,1398.45908 798.624827,1397.94821 798.624827,1397.80249 C798.624827,1397.70004 798.566755,1397.65648 798.464307,1397.65648 C798.172577,1397.65648 798.172577,1397.817 797.559259,1397.817 C796.785695,1397.817 796.552037,1397.46693 796.552037,1396.8684 C796.552037,1396.05074 796.596139,1394.83944 796.596139,1394.05136 C796.596139,1393.58404 796.639967,1393.46735 797.048663,1393.46735 L798.522653,1393.46735 C798.756037,1393.46735 798.770555,1393.33614 798.770555,1393.14631 C798.770555,1392.85431 798.654137,1392.82527 798.508135,1392.82527 L798.508135,1392.82527 Z M791.195162,1393.86153 C791.195162,1393.30683 791.588792,1392.97127 792.14349,1392.97127 C793.296714,1392.97127 793.165504,1394.1245 793.588718,1394.1245 C793.70541,1394.1245 793.719928,1394.02205 793.719928,1393.45283 C793.719928,1392.79624 793.70541,1392.56258 792.158008,1392.56258 C790.844538,1392.56258 790.34846,1393.42352 790.34846,1394.24092 C790.34846,1395.94884 793.106884,1395.91953 793.106884,1397.21848 C793.106884,1397.90439 792.522876,1398.19666 791.939416,1398.19666 C791.107232,1398.19666 790.713328,1397.32038 790.669226,1397.21848 C790.611154,1397.08727 790.552808,1396.83909 790.436116,1396.83909 C790.275322,1396.83909 790.26053,1397.01413 790.26053,1397.29162 L790.26053,1398.02135 C790.26053,1398.54674 791.63262,1398.60536 792.056108,1398.60536 C793.632272,1398.60536 794.099588,1397.62717 794.099588,1396.89744 C794.099588,1395.39414 791.195162,1394.95613 791.195162,1393.86153 L791.195162,1393.86153 Z M788.698611,1389.97919 C788.698611,1389.6576 788.391815,1389.35136 788.070775,1389.35136 C787.750009,1389.35136 787.443213,1389.6576 787.443213,1389.97919 C787.443213,1390.29996 787.750009,1390.60648 788.070775,1390.60648 C788.391815,1390.60648 788.698611,1390.29996 788.698611,1389.97919 L788.698611,1389.97919 Z M789.150861,1398.05066 C788.785993,1397.9189 788.566853,1397.94821 788.566853,1397.51021 L788.566853,1393.40873 C788.566853,1393.1611 788.625473,1392.91265 788.625473,1392.66448 C788.625473,1392.5771 788.581645,1392.56258 788.523573,1392.56258 C788.421125,1392.56258 788.363053,1392.679 787.647561,1393.14631 C787.267901,1393.39421 786.873723,1393.35066 786.873723,1393.54049 C786.873723,1393.83222 787.574697,1393.59856 787.574697,1394.10971 L787.574697,1397.23327 C787.574697,1397.80249 787.355831,1397.9337 786.771823,1398.05066 C786.552957,1398.09422 786.508855,1398.18187 786.508855,1398.24049 C786.508855,1398.40101 786.669923,1398.40101 786.786615,1398.40101 C787.195311,1398.40101 787.589489,1398.34239 787.997637,1398.34239 C788.377297,1398.34239 788.742165,1398.40101 789.121551,1398.40101 C789.253308,1398.40101 789.486419,1398.40101 789.486419,1398.24049 C789.486419,1398.09422 789.267826,1398.09422 789.150861,1398.05066 L789.150861,1398.05066 Z M782.873872,1397.72935 C782.567076,1397.817 782.24631,1397.84631 781.95458,1397.84631 C780.55318,1397.84631 780.377868,1397.46693 780.377868,1396.83909 L780.377868,1393.80291 C780.377868,1393.71553 780.597008,1393.70101 780.888738,1393.70101 C782.494486,1393.70101 784.128995,1393.93467 784.128995,1395.86091 C784.128995,1396.78047 783.632918,1397.51021 782.873872,1397.72935 L782.873872,1397.72935 Z M780.407178,1390.25613 C780.407178,1389.89126 780.626318,1389.81867 781.297434,1389.81867 C782.202208,1389.81867 783.647709,1389.84743 783.647709,1391.46797 C783.647709,1392.37275 783.019874,1393.14631 782.05648,1393.21918 C781.808304,1393.23369 781.501782,1393.263 781.297434,1393.263 C780.888738,1393.263 780.509078,1393.21918 780.407178,1393.17562 L780.407178,1390.25613 Z M783.793437,1393.13179 C783.793437,1392.98579 784.785593,1392.86883 784.785593,1391.45318 C784.785593,1390.48979 783.88082,1389.35136 781.691612,1389.35136 C781.38509,1389.35136 780.013,1389.46805 778.626392,1389.46805 C778.363698,1389.46805 777.86762,1389.54119 777.86762,1389.71622 C777.86762,1389.89126 778.071694,1389.90605 778.48039,1389.9644 C778.918396,1390.02302 779.152054,1390.03726 779.152054,1390.43144 C779.152054,1390.56293 779.137536,1390.79631 779.137536,1391.01518 L779.005778,1397.525 C779.005778,1397.87562 778.684738,1397.97752 778.363698,1397.99204 C778.056902,1398.00683 777.736136,1398.00683 777.736136,1398.18187 C777.736136,1398.3717 777.911174,1398.3717 778.261524,1398.3717 C778.597356,1398.3717 779.035088,1398.34239 779.385164,1398.34239 C781.54561,1398.34239 783.019874,1398.29856 783.414052,1398.16735 C785.048561,1397.62717 785.442739,1396.85361 785.442739,1395.54014 C785.442739,1393.68649 783.793437,1393.35066 783.793437,1393.13179 L783.793437,1393.13179 Z M760.860993,1398.05066 C760.218639,1397.88987 759.941427,1397.8318 759.941427,1397.46693 L759.941427,1390.31475 C759.941427,1389.94988 759.970737,1389.59953 759.970737,1389.26397 C759.970737,1389.16153 759.970737,1388.9717 759.838979,1388.9717 C759.751597,1388.9717 759.634631,1389.00101 759.547249,1389.03032 L758.36499,1389.43901 C758.292126,1389.46805 758.248298,1389.54119 758.248298,1389.59953 C758.248298,1389.71622 758.948724,1389.81867 758.948724,1390.13971 L758.948724,1396.98482 C758.948724,1397.86083 758.700548,1397.90439 758.17516,1398.05066 C758.07326,1398.07942 757.868638,1398.06491 757.868638,1398.24049 C757.868638,1398.34239 757.970812,1398.40101 758.07326,1398.40101 C758.569338,1398.40101 759.079934,1398.34239 759.576559,1398.34239 C760.014017,1398.34239 760.466815,1398.40101 760.904821,1398.40101 C760.992203,1398.40101 761.079859,1398.34239 761.079859,1398.21118 C761.079859,1398.07942 760.977411,1398.07942 760.860993,1398.05066 L760.860993,1398.05066 Z M757.0948,1398.05066 C756.452172,1397.88987 756.175234,1397.8318 756.175234,1397.46693 L756.175234,1390.31475 C756.175234,1389.94988 756.204544,1389.59953 756.204544,1389.26397 C756.204544,1389.16153 756.204544,1388.9717 756.072786,1388.9717 C755.985404,1388.9717 755.868438,1389.00101 755.781056,1389.03032 L754.598796,1389.43901 C754.525932,1389.46805 754.482104,1389.54119 754.482104,1389.59953 C754.482104,1389.71622 755.18253,1389.81867 755.18253,1390.13971 L755.18253,1396.98482 C755.18253,1397.86083 754.934354,1397.90439 754.408966,1398.05066 C754.306792,1398.07942 754.102444,1398.06491 754.102444,1398.24049 C754.102444,1398.34239 754.204618,1398.40101 754.306792,1398.40101 C754.803144,1398.40101 755.31374,1398.34239 755.810366,1398.34239 C756.247824,1398.34239 756.700622,1398.40101 757.138628,1398.40101 C757.22601,1398.40101 757.313666,1398.34239 757.313666,1398.21118 C757.313666,1398.07942 757.211218,1398.07942 757.0948,1398.05066 L757.0948,1398.05066 Z M751.780657,1396.53257 C751.780657,1397.04344 751.445099,1397.817 750.540325,1397.817 C750.014937,1397.817 749.751969,1397.39352 749.751969,1397.02865 C749.751969,1395.75901 751.518237,1395.35031 751.591375,1395.35031 C751.678757,1395.35031 751.780657,1395.39414 751.780657,1395.86091 L751.780657,1396.53257 Z M753.824684,1397.33517 C753.605545,1397.33517 753.605545,1397.61266 753.196849,1397.61266 C752.802671,1397.61266 752.729533,1397.36448 752.729533,1397.14534 L752.729533,1393.93467 C752.729533,1393.5698 752.729533,1392.64996 751.343199,1392.64996 C749.591449,1392.64996 748.628055,1394.13902 748.628055,1394.43075 C748.628055,1394.60578 748.671883,1394.7811 748.949643,1394.7811 C749.927007,1394.7811 749.357791,1393.08797 750.890675,1393.08797 C751.795449,1393.08797 751.824759,1393.65718 751.824759,1394.53265 C751.824759,1394.70796 751.780657,1394.85423 751.751895,1394.97065 C751.445099,1395.04379 751.153369,1395.16048 750.671535,1395.33552 C750.554843,1395.37962 748.671883,1395.91953 748.671883,1397.40831 C748.671883,1398.15256 749.212063,1398.48839 749.795797,1398.48839 C750.759191,1398.48839 751.080231,1398.10873 751.649447,1397.67128 C751.809967,1397.87562 752.131555,1398.34239 752.758843,1398.34239 C753.591027,1398.34239 753.985204,1397.61266 753.985204,1397.46693 C753.985204,1397.379 753.897275,1397.33517 753.824684,1397.33517 L753.824684,1397.33517 Z M747.225834,1389.87674 C747.853122,1389.81867 748.072262,1389.83319 748.072262,1389.61432 C748.072262,1389.40998 747.79505,1389.40998 747.648774,1389.40998 C747.283906,1389.40998 746.671136,1389.46805 746.174784,1389.46805 C745.663914,1389.46805 745.255218,1389.40998 744.788176,1389.40998 C744.583828,1389.40998 744.364962,1389.40998 744.364962,1389.6576 C744.364962,1389.81867 744.54,1389.84743 744.744348,1389.87674 C745.503394,1390.00823 745.503394,1390.08109 745.503394,1390.621 L745.503394,1393.39421 C745.503394,1393.5698 745.415738,1393.59856 744.6419,1393.59856 L740.686973,1393.59856 C740.380177,1393.59856 740.322105,1393.48187 740.322105,1393.117 L740.322105,1390.48979 C740.322105,1390.0663 740.526453,1389.90605 740.847493,1389.87674 C741.168259,1389.84743 741.518609,1389.86195 741.518609,1389.61432 C741.518609,1389.4538 741.431227,1389.40998 741.095121,1389.40998 C740.555215,1389.40998 740.015309,1389.46805 739.475129,1389.46805 C739.037123,1389.46805 738.614183,1389.40998 738.176177,1389.40998 C738.015657,1389.40998 737.855137,1389.43901 737.855137,1389.59953 C737.855137,1389.81867 738.030449,1389.84743 738.205487,1389.87674 C739.008361,1390.00823 739.066433,1390.02302 739.066433,1390.59169 L739.066433,1397.29162 C739.066433,1397.78769 738.716083,1397.84631 738.307387,1397.9337 C738.044967,1397.99204 737.665581,1398.00683 737.665581,1398.24049 C737.665581,1398.40101 737.942519,1398.40101 738.044967,1398.40101 C738.176177,1398.40101 738.468455,1398.34239 739.796169,1398.34239 C740.599043,1398.34239 741.051841,1398.40101 741.343571,1398.40101 C741.459989,1398.40101 741.664611,1398.3717 741.664611,1398.21118 C741.664611,1397.99204 741.343571,1397.96301 741.183051,1397.9337 C740.642871,1397.8318 740.322105,1397.74387 740.322105,1397.379 L740.322105,1394.44526 C740.322105,1394.18257 740.497143,1394.09519 741.547919,1394.09519 L744.788176,1394.09519 C745.400946,1394.10971 745.503394,1394.13902 745.503394,1394.46006 L745.503394,1396.75171 C745.503394,1397.68579 745.357666,1397.88987 744.744348,1397.9337 C744.423308,1397.94821 744.087476,1397.99204 744.087476,1398.21118 C744.087476,1398.3717 744.24827,1398.40101 744.37948,1398.40101 C744.54,1398.40101 744.846522,1398.34239 745.999472,1398.34239 C747.079558,1398.34239 747.444426,1398.40101 747.634256,1398.40101 C747.79505,1398.40101 748.05747,1398.38622 748.05747,1398.19666 C748.05747,1397.96301 747.751222,1397.94821 747.400872,1397.9337 C747.006968,1397.9189 746.758518,1397.78769 746.758518,1397.379 L746.758518,1390.47527 C746.758518,1390.0663 746.962866,1389.89126 747.225834,1389.87674 L747.225834,1389.87674 Z M732.175852,1392.56258 C729.942817,1392.56258 728.906833,1394.19709 728.906833,1395.74449 C728.906833,1397.11658 729.811607,1398.60536 731.635946,1398.60536 C732.62865,1398.60536 733.518906,1397.99204 733.518906,1397.74387 C733.518906,1397.65648 733.460834,1397.62717 733.431524,1397.62717 C733.256486,1397.62717 733.022828,1397.96301 732.11778,1397.96301 C730.950038,1397.96301 729.899263,1397.36448 729.899263,1395.7297 C729.899263,1393.71553 731.154386,1392.91265 731.855086,1392.91265 C732.62865,1392.91265 732.701788,1393.6717 733.299766,1393.6717 C733.548216,1393.6717 733.708736,1393.55501 733.708736,1393.29231 C733.708736,1392.66448 732.65796,1392.56258 732.175852,1392.56258 L732.175852,1392.56258 Z M727.869753,1398.05066 C727.504885,1397.9189 727.285745,1397.94821 727.285745,1397.51021 L727.285745,1393.40873 C727.285745,1393.1611 727.344365,1392.91265 727.344365,1392.66448 C727.344365,1392.5771 727.300537,1392.56258 727.242465,1392.56258 C727.140017,1392.56258 727.081945,1392.679 726.366453,1393.14631 C725.986793,1393.39421 725.592615,1393.35066 725.592615,1393.54049 C725.592615,1393.83222 726.293589,1393.59856 726.293589,1394.10971 L726.293589,1397.23327 C726.293589,1397.80249 726.074723,1397.9337 725.490715,1398.05066 C725.271849,1398.09422 725.227747,1398.18187 725.227747,1398.24049 C725.227747,1398.40101 725.388815,1398.40101 725.505507,1398.40101 C725.914203,1398.40101 726.308381,1398.34239 726.716529,1398.34239 C727.096189,1398.34239 727.461057,1398.40101 727.840443,1398.40101 C727.972201,1398.40101 728.205311,1398.40101 728.205311,1398.24049 C728.205311,1398.09422 727.986719,1398.09422 727.869753,1398.05066 L727.869753,1398.05066 Z M726.162105,1389.97919 C726.162105,1390.29996 726.468627,1390.60648 726.789667,1390.60648 C727.110707,1390.60648 727.417503,1390.29996 727.417503,1389.97919 C727.417503,1389.6576 727.110707,1389.35136 726.789667,1389.35136 C726.468627,1389.35136 726.162105,1389.6576 726.162105,1389.97919 L726.162105,1389.97919 Z M721.57852,1393.86153 C721.57852,1393.30683 721.972698,1392.97127 722.527396,1392.97127 C723.68062,1392.97127 723.54941,1394.1245 723.972624,1394.1245 C724.089316,1394.1245 724.103834,1394.02205 724.103834,1393.45283 C724.103834,1392.79624 724.089316,1392.56258 722.542188,1392.56258 C721.228444,1392.56258 720.732366,1393.42352 720.732366,1394.24092 C720.732366,1395.94884 723.49079,1395.91953 723.49079,1397.21848 C723.49079,1397.90439 722.907056,1398.19666 722.323596,1398.19666 C721.491412,1398.19666 721.097234,1397.32038 721.053132,1397.21848 C720.995334,1397.08727 720.936714,1396.83909 720.820022,1396.83909 C720.659228,1396.83909 720.644984,1397.01413 720.644984,1397.29162 L720.644984,1398.02135 C720.644984,1398.54674 722.0168,1398.60536 722.440014,1398.60536 C724.016178,1398.60536 724.483493,1397.62717 724.483493,1396.89744 C724.483493,1395.39414 721.57852,1394.95613 721.57852,1393.86153 L721.57852,1393.86153 Z M718.308405,1398.48839 C718.439889,1398.48839 719.038414,1398.35691 720.05988,1398.19666 C720.278746,1398.16735 720.351884,1398.13804 720.351884,1398.02135 C720.351884,1397.87562 720.162054,1397.87562 719.592838,1397.87562 C719.461354,1397.87562 719.213452,1397.8318 719.213452,1397.525 C719.213452,1396.05074 719.271524,1394.57675 719.271524,1393.10248 C719.271524,1392.83952 719.067177,1392.79624 718.965003,1392.79624 C718.673273,1392.79624 718.395787,1392.82527 718.104057,1392.82527 C717.855881,1392.82527 717.607705,1392.79624 717.359803,1392.79624 C717.198735,1392.79624 717.038215,1392.82527 717.038215,1392.91265 C717.038215,1393.02935 717.345011,1393.117 717.461703,1393.14631 C718.147611,1393.32162 718.220749,1393.32162 718.220749,1393.49666 C718.220749,1394.53265 718.191439,1395.58397 718.191439,1396.61995 C718.176921,1397.21848 718.060229,1397.90439 716.440237,1397.90439 C715.724745,1397.90439 715.287013,1397.56883 715.287013,1396.9703 C715.287013,1395.67135 715.316323,1394.37213 715.316323,1393.07317 C715.316323,1392.86883 715.287013,1392.79624 715.097457,1392.79624 C714.878317,1392.79624 714.659451,1392.82527 714.454829,1392.82527 C714.235963,1392.82527 714.031615,1392.79624 713.827267,1392.79624 C713.623193,1392.79624 713.462399,1392.79624 713.462399,1392.92745 C713.462399,1393.02935 713.550055,1393.05866 713.900405,1393.14631 C714.075443,1393.19014 714.323619,1393.21918 714.323619,1393.42352 C714.323619,1394.28502 714.294583,1395.64204 714.294583,1396.53257 C714.294583,1397.77318 714.673969,1398.60536 716.046059,1398.60536 C717.228045,1398.60536 717.855881,1397.74387 718.089539,1397.74387 C718.162129,1397.74387 718.191439,1397.80249 718.191439,1397.9189 L718.191439,1398.25474 C718.191439,1398.38622 718.191439,1398.48839 718.308405,1398.48839 L718.308405,1398.48839 Z M712.483118,1389.90605 C712.745812,1389.86195 713.168752,1389.92057 713.168752,1389.61432 C713.168752,1389.54119 713.066852,1389.43901 712.993714,1389.43901 C712.600084,1389.43901 712.191388,1389.46805 711.79721,1389.46805 C711.621898,1389.46805 710.819024,1389.43901 710.643986,1389.43901 C710.424846,1389.43901 710.293636,1389.81867 710.220498,1389.99371 L707.637112,1395.84639 C707.622594,1395.89022 707.578766,1395.93404 707.535212,1395.93404 C707.491384,1395.93404 707.447556,1395.90501 707.432764,1395.86091 L704.543131,1389.57022 C704.499303,1389.48257 704.411373,1389.43901 704.294681,1389.43901 C703.915295,1389.43901 703.535909,1389.46805 703.156249,1389.46805 C702.820691,1389.46805 702.499651,1389.43901 702.163545,1389.43901 C701.813469,1389.43901 701.798677,1389.52639 701.798677,1389.62884 C701.798677,1389.78936 702.017817,1389.78936 702.455823,1389.90605 C703.258697,1390.12492 703.389907,1390.15423 703.389907,1390.47527 C703.389907,1390.88397 703.389907,1390.98587 703.375389,1391.13214 L702.893281,1397.43762 C702.879311,1397.65648 702.528413,1397.87562 701.959197,1397.9337 C701.638157,1397.96301 701.463119,1397.99204 701.463119,1398.21118 C701.463119,1398.35691 701.623639,1398.40101 701.755397,1398.40101 C702.265993,1398.40101 702.864519,1398.34239 703.375389,1398.34239 C703.915295,1398.34239 704.513821,1398.40101 704.995381,1398.40101 C705.199729,1398.40101 705.404077,1398.40101 705.404077,1398.2257 C705.404077,1398.03614 705.184937,1398.03614 704.601203,1397.9337 C704.236335,1397.87562 703.740257,1397.72935 703.740257,1397.45214 L703.740257,1393.49666 C703.740257,1392.7231 703.740257,1391.32197 703.842157,1391.32197 C703.929813,1391.32197 705.097555,1393.84674 705.184937,1394.06588 L706.498681,1397.16013 C706.557301,1397.32038 706.834239,1398.07942 707.082688,1398.07942 C707.155826,1398.07942 707.242935,1398.05066 707.272245,1397.97752 L709.958078,1391.77422 C709.987388,1391.7156 710.030942,1391.68684 710.07477,1391.68684 C710.147908,1391.68684 710.191462,1391.77422 710.191462,1392.0665 L710.191462,1397.34969 C710.191462,1397.77318 710.10408,1397.80249 709.418172,1397.9337 C709.242586,1397.96301 708.877718,1397.99204 708.877718,1398.15256 C708.877718,1398.38622 709.082066,1398.40101 709.242586,1398.40101 C709.797558,1398.40101 710.498258,1398.34239 711.198684,1398.34239 C711.534242,1398.34239 711.782418,1398.40101 712.410254,1398.40101 C712.891814,1398.40101 713.096162,1398.40101 713.096162,1398.21118 C713.096162,1398.05066 712.803884,1397.97752 712.570774,1397.9337 C711.63669,1397.75866 711.44686,1397.62717 711.44686,1397.07275 L711.44686,1391.04449 C711.44686,1390.0663 711.651208,1390.03726 712.483118,1389.90605 L712.483118,1389.90605 Z M679.122627,1391.71286 C679.060172,1391.74957 677.059972,1392.98524 676.471856,1393.34628 C677.183512,1393.21233 680.529231,1392.58011 680.980385,1392.49492 C680.587577,1392.32892 679.190286,1391.74327 679.122627,1391.71286 L679.122627,1391.71286 Z M679.523653,1388.27072 C679.761967,1388.81912 681.124196,1391.9709 681.265815,1392.29851 C681.387986,1391.98186 681.951175,1390.4539 681.985142,1390.3594 C681.908443,1390.29174 679.964672,1388.64655 679.523653,1388.27072 L679.523653,1388.27072 Z M682.639548,1395.44016 C682.730492,1395.44646 685.358801,1395.64916 685.885832,1395.6919 C685.4292,1395.38373 681.876394,1393.0288 681.46715,1392.75843 C681.656158,1393.18822 682.602569,1395.35661 682.639548,1395.44016 L682.639548,1395.44016 Z M680.268728,1397.93342 C680.381038,1397.26779 681.042566,1393.36819 681.133235,1392.83431 C680.815483,1393.23232 679.57652,1394.77863 679.528583,1394.83396 C679.548306,1394.90546 680.118618,1397.30641 680.268728,1397.93342 L680.268728,1397.93342 Z M684.142026,1392.66283 C684.185033,1392.5623 685.199924,1390.09013 685.389754,1389.63295 C684.978319,1389.92906 681.829826,1392.22428 681.508513,1392.45903 C681.890912,1392.48862 684.033826,1392.65653 684.142026,1392.66283 L684.142026,1392.66283 Z M812.46406,1384.17171 L812.166852,1384.17171 L811.851838,1385.04087 C811.769935,1385.26577 811.705836,1385.46381 811.657352,1385.64269 L811.654338,1385.64269 C811.607223,1385.45477 811.545316,1385.26248 811.472726,1385.04087 L811.164561,1384.17171 L810.8742,1384.17171 L810.742442,1385.96208 L810.967609,1385.96208 L811.016641,1385.19619 C811.027324,1384.92665 811.043212,1384.62779 811.050608,1384.39934 L811.052799,1384.39934 C811.102106,1384.61903 811.171957,1384.84447 811.258791,1385.10278 L811.554904,1385.95387 L811.725285,1385.95387 L812.041942,1385.0847 C812.133159,1384.8368 812.205749,1384.61081 812.268752,1384.39934 L812.273409,1384.39934 C812.273409,1384.62779 812.290118,1384.92884 812.302171,1385.18058 L812.347094,1385.96208 L812.575,1385.96208 L812.46406,1384.17171 Z M809.273931,1384.36866 L809.81822,1384.36866 L809.81822,1385.96208 L810.0527,1385.96208 L810.0527,1384.36866 L810.600002,1384.36866 L810.600002,1384.17171 L809.273931,1384.17171 L809.273931,1384.36866 Z M682.545318,1395.56123 C682.506695,1395.6067 680.287903,1398.36732 680.287903,1398.36732 L680.178881,1398.501 C680.178881,1398.501 679.324235,1394.91559 679.301774,1394.83013 C679.222061,1394.80082 675.946742,1393.54898 675.946742,1393.54898 L675.785126,1393.48598 C675.785126,1393.48598 678.896365,1391.56522 678.971694,1391.52139 C678.975529,1391.43455 679.16755,1387.75136 679.16755,1387.75136 C679.16755,1387.75136 681.981307,1390.13396 682.05061,1390.18957 C682.13087,1390.16738 685.66231,1389.2122 685.66231,1389.2122 C685.66231,1389.2122 684.264197,1392.61544 684.231052,1392.69762 C684.278989,1392.77405 686.212077,1395.70258 686.212077,1395.70258 L686.308772,1395.85105 C686.308772,1395.85105 682.60613,1395.56178 682.545318,1395.56123 L682.545318,1395.56123 Z M686.822108,1383.4543 C686.822108,1369.73614 697.943732,1358.61096 711.66463,1358.61096 C713.816858,1358.61096 715.905261,1358.88461 717.895326,1359.39986 C713.313658,1356.46722 707.876249,1354.76176 702.034801,1354.76176 C685.76147,1354.76176 672.575,1367.9518 672.575,1384.22458 C672.575,1400.49435 685.76147,1413.68657 702.034801,1413.68657 C709.570748,1413.68657 716.441606,1410.85309 721.657136,1406.19609 C718.5963,1407.5449 715.221271,1408.296 711.66463,1408.296 C697.943732,1408.296 686.822108,1397.17684 686.822108,1383.4543 L686.822108,1383.4543 Z M760.979603,1351.83679 C761.232161,1352.42272 762.69766,1355.80706 762.852975,1356.15686 C762.975146,1355.81364 763.584081,1354.17748 763.619691,1354.0764 C763.537513,1354.00381 761.456232,1352.23727 760.979603,1351.83679 L760.979603,1351.83679 Z M764.322856,1359.53107 C764.415443,1359.53491 767.243169,1359.7524 767.807729,1359.79733 C767.316307,1359.46998 763.500534,1356.94138 763.064719,1356.64965 C763.267423,1357.11067 764.282041,1359.44314 764.322856,1359.53107 L764.322856,1359.53107 Z M765.968049,1356.65075 L767.432999,1353.07165 L763.72433,1354.07312 L760.76375,1351.56807 L760.563511,1355.44356 L757.296956,1357.45801 L760.907834,1358.83694 L761.803569,1362.61026 L764.235748,1359.59106 L768.094802,1359.88443 L765.968049,1356.65075 Z M766.231291,1356.62527 L768.554722,1360.15398 L764.340661,1359.83376 L761.68359,1363.11729 L760.708965,1359.01116 L756.771021,1357.50731 L760.336427,1355.30879 L760.554471,1351.0846 L763.782128,1353.81535 L767.828821,1352.72212 L766.231291,1356.62527 Z M765.934356,1356.55104 C765.98065,1356.44394 767.07224,1353.79015 767.273575,1353.299 C766.833104,1353.61402 763.452323,1356.08126 763.108547,1356.33081 C763.516421,1356.36203 765.818486,1356.54447 765.934356,1356.55104 L765.934356,1356.55104 Z M761.773985,1362.20622 C761.898347,1361.49347 762.613839,1357.30461 762.707521,1356.73265 C762.364567,1357.16052 761.03247,1358.81969 760.984807,1358.87968 C761.002338,1358.95172 761.618943,1361.53456 761.773985,1362.20622 L761.773985,1362.20622 Z M760.547897,1355.53094 C760.479142,1355.57094 758.333488,1356.89482 757.6999,1357.28187 C758.467164,1357.1408 762.058319,1356.45845 762.545905,1356.36833 C762.116939,1356.1922 760.619939,1355.55779 760.547897,1355.53094 L760.547897,1355.53094 Z M769.298154,1342.84357 C769.390741,1342.8474 772.218467,1343.0649 772.783026,1343.10982 C772.291605,1342.78248 768.475831,1340.25388 768.040017,1339.96215 C768.242721,1340.42317 769.257339,1342.75564 769.298154,1342.84357 L769.298154,1342.84357 Z M765.954901,1335.14929 C766.207459,1335.73521 767.672957,1339.11956 767.828273,1339.46936 C767.950443,1339.12613 768.559378,1337.48998 768.594989,1337.3889 C768.512811,1337.31631 766.43153,1335.55004 765.954901,1335.14929 L765.954901,1335.14929 Z M770.943347,1339.96325 L772.408297,1336.38414 L768.699628,1337.38561 L765.739048,1334.88057 L765.538809,1338.75606 L762.272254,1340.7705 L765.883132,1342.14944 L766.778867,1345.92276 L769.211046,1342.90356 L773.0701,1343.19693 L770.943347,1339.96325 Z M771.206589,1339.93777 L773.53002,1343.46647 L769.315959,1343.14625 L766.658888,1346.42979 L765.684263,1342.32366 L761.746318,1340.81981 L765.311725,1338.62129 L765.529769,1334.39709 L768.757426,1337.12812 L772.804119,1336.03461 L771.206589,1339.93777 Z M766.749283,1345.51872 C766.873645,1344.80596 767.589136,1340.6171 767.682819,1340.04515 C767.339865,1340.47302 766.007768,1342.13218 765.960105,1342.19217 C765.977636,1342.26421 766.594241,1344.84705 766.749283,1345.51872 L766.749283,1345.51872 Z M770.909654,1339.86354 C770.955947,1339.75643 772.047538,1337.10265 772.248873,1336.61177 C771.808402,1336.92651 768.427621,1339.39376 768.083845,1339.6433 C768.491719,1339.67453 770.793784,1339.85696 770.909654,1339.86354 L770.909654,1339.86354 Z M765.523195,1338.84344 C765.45444,1338.88343 763.308786,1340.20759 762.675198,1340.59437 C763.442461,1340.4533 767.033617,1339.77095 767.521203,1339.68083 C767.092237,1339.5047 765.595237,1338.87029 765.523195,1338.84344 L765.523195,1338.84344 Z M786.230821,1359.7009 C786.419829,1358.60137 787.516625,1352.15646 787.67057,1351.27607 C787.138334,1351.9376 785.09102,1354.48921 785.014869,1354.58426 C785.044726,1354.69301 785.990041,1358.66656 786.230821,1359.7009 L786.230821,1359.7009 Z M788.214037,1351.14897 C788.531242,1351.8598 790.090971,1355.4474 790.147399,1355.58354 C790.29888,1355.5923 794.646616,1355.92649 795.515779,1355.9936 C794.758925,1355.49287 788.890084,1351.60012 788.214037,1351.14897 L788.214037,1351.14897 Z M795.954059,1356.12454 L792.683944,1351.1528 L794.942455,1345.64089 L789.232764,1347.18938 L784.673832,1343.3265 L784.367858,1349.29066 L779.332297,1352.39478 L784.897629,1354.5177 L786.277936,1360.3197 L790.017559,1355.67613 L795.954059,1356.12454 Z M796.679412,1356.54036 L790.179175,1356.04921 L786.094133,1361.10422 L784.591107,1354.78614 L778.534353,1352.46381 L784.017782,1349.0833 L784.351149,1342.58169 L789.321242,1346.79219 L795.551664,1345.10262 L793.089353,1351.11363 L796.679412,1356.54036 Z M785.007199,1343.74122 L787.886149,1350.39129 C788.082006,1349.86289 789.013076,1347.34525 789.072518,1347.19048 C788.947334,1347.0768 785.736113,1344.357 785.007199,1343.74122 L785.007199,1343.74122 Z M784.341561,1349.42872 C784.236648,1349.48789 780.935853,1351.5289 779.959585,1352.12305 C781.138557,1351.90637 786.662527,1350.85587 787.412807,1350.71535 C786.758948,1350.44389 784.45387,1349.47063 784.341561,1349.42872 L784.341561,1349.42872 Z M788.284984,1350.657 C788.812563,1350.2757 794.016862,1346.47718 794.689896,1345.99096 C794.38173,1346.74782 792.700927,1350.82902 792.63135,1350.99941 C792.451929,1350.98434 788.913642,1350.70795 788.284984,1350.657 L788.284984,1350.657 Z" id="infinity"></path>
            </g>
        </g>
    </g>
</svg>