<svg xmlns="http://www.w3.org/2000/svg" width="51.9" height="54.76" viewBox="0 0 37 39.003">
  <path id="Fill-1" d="M18.464,38.985l6.378,.018c-2.457-3.26-5.276-6.556-5.475-12.562v-.054s-.073-1.793,.766-1.825c.625-.024,.904,.57,.904,.57l1.255,1.822,.003-.022c1.445,2.167,3.891,3.592,6.666,3.592,4.44,0,8.039-3.648,8.039-8.148s-3.599-8.147-8.039-8.147c-1.535,0-2.999,.45-4.219,1.207-.005,.003-1.436,1.016-1.851,.458-.492-.661,.795-1.538,.795-1.538l.02,.002c1.734-1.495,2.834-3.722,2.834-6.209C26.539,3.648,22.94,0,18.5,0S10.461,3.648,10.461,8.148c0,2.488,1.1,4.715,2.834,6.209l.019-.002s1.287,.877,.795,1.538c-.415,.559-1.846-.455-1.851-.458-1.22-.757-2.684-1.207-4.219-1.207C3.6,14.229,0,17.876,0,22.376s3.6,8.148,8.039,8.148c2.775,0,5.221-1.425,6.665-3.592l.003,.022,1.256-1.822s.278-.594,.904-.57c.839,.032,.766,1.825,.766,1.825v.054c-.199,6.007-3.017,9.302-5.475,12.562l6.378-.018h-.072Z" fill="#d19000" fill-rule="evenodd"/>
</svg>
