<svg xmlns="http://www.w3.org/2000/svg" width="41.28" height="51.95" viewBox="0 0 29.432 37">
  <path id="Fill-1" d="M27.236,13.039H15.96V1.663s11.822,0,11.822,0c-.02,2.002-.114,7.225-.546,11.376h0Zm-.798,4.513c-.052,.156-.112,.351-.184,.582-.764,2.467-2.981,9.618-10.292,15.787V15.581s10.936,0,10.936,0c-.132,.773-.285,1.446-.46,1.971h0Zm-12.825,16.503C6.186,27.86,3.947,20.626,3.18,18.142c-.073-.235-.134-.433-.186-.591-.175-.525-.327-1.198-.46-1.971H13.614v18.474ZM2.298,11.11h-.204v-.089l-.144-.254v-.088l.144-.242v-.087h.204v.119h.878s0-.952,0-.952h-.11v-.222h.082l.235-.156h.081l.222,.156h.081v.222h-.11v.952h.836v-.119h.204v.087l.144,.242v.088l-.144,.254v.089h-.204v-.12h-.836v.907h.11v.221h-.082l-.235,.156h-.081l-.223-.156h-.081v-.221h.11v-.906h-.878s0,.118,0,.118Zm-.306-7.783l.144-.241v-.087h.204v.119h.878s0-.952,0-.952h-.11v-.221h.082l.234-.156h.081l.222,.156h.081v.221h-.11v.952h.836v-.119h.204v.087l.144,.242v.088l-.144,.254v.089h-.204v-.119h-.836v.906h.11v.221h-.082l-.235,.156h-.081l-.223-.156h-.081v-.221h.11v-.906h-.878s0,.119,0,.119h-.204v-.089l-.144-.254v-.088Zm3.168,.433h.082l.235-.156h.081l.223,.156h.081v.221h-.11v.952h.836v-.119h.204v.088l.144,.241v.088l-.144,.254v.089h-.204v-.119h-.836v.906h.11v.221h-.082l-.235,.156h-.081l-.224-.156h-.08v-.221h.11v-.906h-.878s0,.118,0,.118h-.204v-.089l-.144-.255v-.088l.144-.242v-.087h.204v.119h.878s0-.952,0-.952h-.11v-.221Zm.591,5.37v.906h.11v.222h-.082l-.235,.156h-.081l-.224-.156h-.08v-.222h.11v-.906h-.878v.119h-.204v-.088l-.144-.255v-.088l.144-.242v-.087h.204v.119h.878s0-.952,0-.952h-.11v-.222h.082l.235-.156h.081l.223,.156h.081v.222h-.11v.952h.836v-.119h.204v.088l.144,.241v.088l-.144,.254v.089h-.204v-.119h-.836Zm1.46-3.555h.082l.235-.156h.081l.223,.156h.08v.221h-.11v.952h.836v-.119h.204v.087l.144,.242v.088l-.144,.255v.088h-.204v-.119h-.836v.906h.11v.222h-.082l-.235,.156h-.081l-.223-.156h-.081v-.222h.11v-.906h-.878s0,.118,0,.118h-.204v-.089l-.144-.254v-.088l.144-.241v-.088h.204v.119h.878s0-.952,0-.952h-.11v-.221Zm.81-.478l.144-.241v-.088h.204v.119h.879s0-.952,0-.952h-.11v-.221h.082l.235-.156h.081l.223,.156h.081v.221h-.11v.952h.836v-.119h.204v.087l.144,.242v.088l-.144,.254v.089h-.204v-.119h-.836v.906h.11v.221h-.082l-.235,.156h-.081l-.223-.156h-.081v-.221h.11v-.906h-.879s0,.118,0,.118h-.204v-.089l-.144-.254v-.088Zm2.094-1.861l.144-.242v-.087h.204v.119h.878s0-.952,0-.952h-.11v-.221h.082l.235-.156h.081l.222,.156h.081v.221h-.11v.952h.836v-.119h.204v.087l.144,.242v.088l-.144,.254v.089h-.204v-.119h-.836v.906h.11v.222h-.082l-.235,.156h-.081l-.224-.156h-.08v-.222h.11v-.906h-.878s0,.118,0,.118h-.204v-.089l-.144-.254v-.088Zm-.15,6.755v.222h-.083l-.234,.156h-.081l-.223-.156h-.081v-.222h.11v-.906h-.879v.119h-.204v-.089l-.144-.254v-.088l.144-.242v-.087h.204v.119h.879s0-.951,0-.951h-.11v-.222h.082l.235-.156h.081l.223,.156h.081v.222h-.11v.951h.836v-.119h.204v.087l.144,.242v.088l-.144,.254v.089h-.204v-.119h-.836v.906h.11Zm1.941,.909v.906h.11v.221h-.081l-.235,.156h-.081l-.224-.156h-.081v-.221h.11v-.906h-.878s0,.118,0,.118h-.204v-.089l-.144-.254v-.088l.144-.242v-.087h.204v.119h.878s0-.952,0-.952h-.11v-.221h.082l.235-.156h.081l.223,.156h.081v.221h-.11v.952h.836v-.119h.204v.087l.144,.242v.088l-.144,.254v.089h-.204v-.119h-.836ZM0,0V.831c0,.529,.017,12.99,1.436,17.251,.049,.148,.107,.334,.175,.555,.859,2.781,3.473,11.245,12.612,18.003l.485,.359,.485-.359c9.148-6.764,11.769-15.229,12.63-18.011,.067-.217,.124-.401,.173-.548,1.419-4.262,1.436-16.723,1.436-17.251V0H0Z" fill="#fff" fill-rule="evenodd"/>
</svg>
