<?xml version="1.0" encoding="UTF-8"?>
<svg id="Layer_1" data-name="Layer 1" xmlns="http://www.w3.org/2000/svg" width=".514in" height=".542in" viewBox="0 0 37 39">
  <path d="m1.354,33.6V5.45c-.017-1.743,1.368-3.176,3.11-3.22h28.09c1.735.049,3.108,1.484,3.08,3.22v28.15c.017,1.726-1.364,3.143-3.09,3.17H4.454c-1.73-.022-3.117-1.44-3.1-3.17Zm21.06-.37c-.198,0-.36-.162-.36-.36v-.65c0-.198.162-.36.36-.36h.643c.198,0,.36.162.359.36v.65c-.002.198-.164.36-.362.36h-.64Zm-4.282,0c-.198,0-.36-.162-.36-.36v-.65c0-.198.163-.36.361-.36h.611c.198,0,.36.162.36.36v.65c0,.198-.162.36-.36.36h-.612Zm-4.318,0c-.198,0-.36-.162-.36-.36v-.65c0-.198.162-.36.36-.36h.644c.198,0,.36.162.359.36v.65c-.002.198-.164.36-.362.36h-.641Zm4.289-4.34c-.198,0-.36-.162-.36-.36v-.67c0-.198.163-.36.361-.36h.64c.198,0,.36.162.36.36v.67c0,.198-.162.36-.36.36h-.641Zm4.311-4.37c-.198,0-.36-.162-.36-.36v-.65c0-.198.163-.36.361-.36h.643c.198,0,.36.162.359.36v.65c-.002.198-.164.36-.362.36h-.641Zm-4.281,0c-.198,0-.36-.162-.36-.36v-.65c0-.198.163-.36.361-.36h.611c.198,0,.36.162.36.36v.65c0,.198-.162.36-.36.36h-.612Zm-4.318,0c-.198,0-.36-.162-.36-.36v-.65c0-.198.162-.36.36-.36h.644c.198,0,.36.162.359.36v.65c-.002.198-.164.36-.362.36h-.641Zm-4.282-4.29c-.198,0-.36-.162-.36-.36v-.64c0-.198.163-.36.361-.36h.641c.198,0,.36.162.36.36v.64c0,.198-.162.36-.36.36h-.642Zm17.182-.07c-.198,0-.36-.162-.36-.36v-.62c0-.198.162-.36.36-.36h.671c.198,0,.36.162.36.36v.62c0,.198-.163.36-.361.36h-.67Zm-4.3,0c-.198,0-.36-.162-.36-.36v-.64c0-.198.162-.36.36-.36h.643c.198,0,.36.162.359.36v.64c-.002.198-.164.36-.362.36h-.64Zm-4.282,0c-.198,0-.36-.162-.36-.36v-.64c0-.198.163-.36.361-.36h.614c.198,0,.36.162.359.36v.64c-.002.198-.164.36-.362.36h-.612Zm-4.318,0c-.198,0-.36-.162-.36-.36v-.64c0-.198.162-.36.36-.36h.643c.198,0,.36.162.359.36v.64c-.002.198-.164.36-.362.36h-.64Zm17.318-4.37c-.198,0-.36-.162-.36-.36v-.64c0-.198.163-.36.361-.36h.613c.198,0,.36.162.359.36v.64c-.001.198-.163.36-.361.36h-.612Zm-8.718,0c-.198,0-.36-.162-.36-.36v-.64c0-.198.162-.36.36-.36h.642c.198,0,.36.162.36.36v.64c0,.198-.163.36-.361.36h-.64Zm-4.282,0c-.198,0-.36-.162-.36-.36v-.64c0-.198.163-.36.361-.36h.613c.198,0,.36.162.359.36v.64c-.002.198-.164.36-.362.36h-.612Zm-4.318,0c-.198,0-.36-.162-.36-.36v-.64c0-.198.162-.36.36-.36h.643c.198,0,.36.162.359.36v.64c-.002.198-.164.36-.362.36h-.64Zm-8.572,0c-.198,0-.36-.162-.36-.36v-.64c0-.198.163-.36.361-.36h.643c.198,0,.36.162.36.36v.64c0,.198-.163.36-.361.36h-.642Zm25.89-4.33c-.198,0-.36-.162-.36-.36v-.64c0-.198.163-.36.361-.36h.614c.198,0,.36.162.359.36v.64c-.002.198-.164.36-.362.36h-.612Zm-4.418,0c-.198,0-.36-.162-.36-.36v-.61c0-.198.162-.36.36-.36h.671c.198,0,.36.162.36.36v.61c0,.198-.162.36-.36.36h-.67Zm-4.3,0c-.198,0-.36-.162-.36-.36v-.61c0-.198.162-.36.36-.36h.64c.198,0,.36.162.36.36v.61c0,.198-.162.36-.36.36h-.64Zm-4.282,0c-.198,0-.36-.162-.36-.36v-.64c0-.198.163-.36.361-.36h.614c.198,0,.36.162.359.36v.64c-.002.198-.164.36-.362.36h-.612Zm-4.318,0c-.198,0-.36-.162-.36-.36v-.64c0-.198.162-.36.36-.36h.643c.198,0,.36.162.359.36v.64c-.002.198-.164.36-.362.36h-.64Zm-4.28,0c-.198,0-.36-.162-.36-.36v-.61c0-.198.162-.36.36-.36h.641c.198,0,.36.162.36.36v.61c0,.198-.162.36-.36.36h-.64Zm-4.29,0c-.198,0-.36-.162-.36-.36v-.61c0-.198.162-.36.36-.36h.641c.198,0,.36.162.36.36v.61c0,.198-.162.36-.36.36h-.64Zm17.17-4.33c-.198,0-.36-.162-.36-.36v-.64c0-.198.162-.36.36-.36h.643c.198,0,.36.162.359.36v.64c-.002.198-.164.36-.362.36h-.64Zm-4.282,0c-.198,0-.36-.162-.36-.36v-.65c0-.198.163-.36.361-.36h.611c.198,0,.36.162.36.36v.65c0,.198-.162.36-.36.36h-.612Zm-4.318,0c-.198,0-.36-.162-.36-.36v-.64c0-.198.162-.36.36-.36h.643c.198,0,.36.162.359.36v.64c-.002.198-.164.36-.362.36h-.64Zm-6.57,24.44v2c.023.342-.236.637-.577.66,0,0-.002,0-.003,0h-2.2c-.342-.021-.602-.316-.58-.657,0,0,0-.002,0-.003v-2c-.019-.354.238-.664.59-.71h2.2c.349.047.6.359.57.71Zm0-4.34v2c.023.342-.236.637-.577.66,0,0-.002,0-.003,0h-2.2c-.342-.021-.602-.316-.58-.657,0,0,0-.002,0-.003v-2c-.019-.354.238-.664.59-.71h2.2c.349.047.6.359.57.71Zm0-4.37v2c.023.342-.236.637-.577.66,0,0-.002,0-.003,0h-2.2c-.342-.021-.602-.316-.58-.657,0,0,0-.002,0-.003v-2c-.019-.354.238-.664.59-.71h2.2c.349.047.6.359.57.71Zm0-4.36v2c.023.342-.236.637-.577.66,0,0-.002,0-.003,0h-2.2c-.342-.021-.602-.316-.58-.657,0,0,0-.002,0-.003v-2c-.013-.351.242-.654.59-.7h2.2c.347.042.599.351.57.7Zm4.29,13.07v2c.023.342-.236.637-.577.66,0,0-.002,0-.003,0h-2.2c-.342-.021-.602-.316-.58-.657,0,0,0-.002,0-.003v-2c-.018-.358.244-.668.6-.71h2.2c.348.047.596.361.56.71Zm0-4.34v2c.023.342-.236.637-.577.66,0,0-.002,0-.003,0h-2.2c-.342-.021-.602-.316-.58-.657,0,0,0-.002,0-.003v-2c-.018-.358.244-.668.6-.71h2.2c.348.047.596.361.56.71Zm0-4.37v2c.017.341-.24.633-.58.66h-2.2c-.342-.021-.602-.316-.58-.657,0,0,0-.002,0-.003v-2c-.018-.358.244-.668.6-.71h2.2c.348.047.596.361.56.71Zm4.28,4.37v2c.023.342-.236.637-.577.66,0,0-.002,0-.003,0h-2.2c-.339-.027-.593-.321-.57-.66v-2c-.019-.354.238-.664.59-.71h2.2c.348.047.596.361.56.71Zm-4.28-13.1v2c.023.342-.236.637-.577.66,0,0-.002,0-.003,0h-2.2c-.342-.021-.602-.316-.58-.657,0,0,0-.002,0-.003v-2c-.013-.354.248-.659.6-.7h2.2c.343.047.59.355.56.7Zm12.88,13.1v2c.023.342-.236.637-.577.66,0,0-.002,0-.003,0h-2.2c-.342-.021-.601-.316-.58-.657,0,0,0-.002,0-.003v-2c-.019-.354.238-.664.59-.71h2.2c.349.047.6.359.57.71Zm4.33,4.34v2c.023.339-.231.633-.57.66h-2.21c-.342-.005-.616-.287-.61-.63,0-.003,0-.007,0-.01v-2c-.018-.358.244-.668.6-.71h2.2c.351.032.613.338.59.69Zm0-4.34v2c.023.339-.231.633-.57.66h-2.21c-.342-.005-.616-.286-.611-.629,0-.01,0-.021.001-.031v-2c-.018-.358.244-.668.6-.71h2.2c.357.037.619.352.59.71Zm0-4.37v2c.023.339-.231.633-.57.66h-2.21c-.342-.005-.616-.287-.61-.63,0-.003,0-.007,0-.01v-2c-.018-.358.244-.668.6-.71h2.2c.349.037.608.34.59.69Zm0-8.73v2c.023.339-.231.633-.57.66h-2.21c-.342-.005-.615-.287-.61-.63,0,0,0,0,0,0v-2c-.013-.354.248-.659.6-.7h2.2c.341.036.597.327.59.67Zm4.36,17.44v2c.023.342-.236.637-.577.66,0,0-.002,0-.003,0h-2.17c-.342-.021-.601-.316-.58-.657,0,0,0-.002,0-.003v-2c-.019-.351.232-.659.58-.71h2.2c.344.052.586.364.55.71Zm0-4.34v2c.023.342-.236.637-.577.66,0,0-.002,0-.003,0h-2.17c-.342-.005-.616-.286-.611-.629,0-.01,0-.021.001-.031v-2c-.029-.369.242-.693.61-.73h2.2c.349.056.592.379.55.73Zm0-4.37v2c.023.342-.236.637-.577.66,0,0-.002,0-.003,0h-2.17c-.342-.021-.601-.316-.58-.657,0,0,0-.002,0-.003v-2c-.019-.351.232-.659.58-.71h2.2c.344.052.586.364.55.71Zm0-4.36v2c.023.342-.236.637-.577.66,0,0-.002,0-.003,0h-2.17c-.342-.021-.601-.316-.58-.657,0,0,0-.002,0-.003v-2c-.013-.351.242-.654.59-.7h2.2c.335.056.571.361.54.7ZM7.244,5.47v2c.023.342-.236.637-.577.66,0,0-.002,0-.003,0h-2.2c-.342-.021-.602-.316-.58-.657,0,0,0-.002,0-.003v-2c-.013-.351.242-.654.59-.7h2.2c.347.042.599.351.57.7Zm4.29,0v2c.023.342-.236.637-.577.66,0,0-.002,0-.003,0h-2.2c-.342-.021-.602-.316-.58-.657,0,0,0-.002,0-.003v-2c-.013-.354.248-.659.6-.7h2.2c.343.047.59.355.56.7Zm17.21,0v2c.023.339-.231.633-.57.66h-2.21c-.342-.005-.616-.287-.61-.63,0-.003,0-.007,0-.01v-2c-.013-.354.248-.659.6-.7h2.2c.347.032.608.332.59.68Zm4.36,0v2c.023.342-.236.637-.577.66,0,0-.002,0-.003,0h-2.17c-.342-.021-.601-.316-.58-.657,0,0,0-.002,0-.003v-2c-.019-.351.232-.659.58-.71h2.2c.344.052.586.364.55.71Z" fill="#d19000" fill-rule="evenodd" stroke-width="0"/>
</svg>