<?xml version="1.0" encoding="utf-8"?>
<!-- Generator: Adobe Illustrator 26.5.0, SVG Export Plug-In . SVG Version: 6.00 Build 0)  -->
<svg version="1.1" id="logo" xmlns="http://www.w3.org/2000/svg" xmlns:xlink="http://www.w3.org/1999/xlink" x="0px" y="0px"
	 viewBox="0 0 260 39.8" style="enable-background:new 0 0 260 39.8;" xml:space="preserve">
<style type="text/css">
	.st0{fill:#C5003E;}
	.st1{fill:#4698CB;}
	.st2{fill:#005C96;}
</style>
<g id="logo-icon">
	<path id="magenta" class="st0" d="M31.5,36.2l-0.1,0.1c-8.5,5.9-20,4.3-26.7-3.5c-2-2.3-3.4-5.1-4.1-8.1c1-2.3,2.7-4.3,4.8-5.7
		c1-0.7,2.1-1.3,3.2-1.8c1.5,2.8,3.2,5.4,5.3,7.9c2.2,2.7,4.7,5,7.5,7.1C24.3,34.4,27.8,35.8,31.5,36.2z"/>
	<path id="lt-blue" class="st1" d="M25.5,0.8c1.3,1.6,3,5,2.5,10.7c-3.2-0.1-6.3,0.1-9.4,0.6c-3.4,0.6-6.7,1.6-9.9,3
		c-1.5,0.6-2.9,1.4-4.3,2.3c-1.7,1.2-3.2,2.6-4.3,4.3C-1,10.9,7,1.2,17.9,0.1C20.5-0.2,23,0.1,25.5,0.8z"/>
	<path id="dk-blue" class="st2" d="M28.2,1.8c9.4,4.3,14,15.2,10.4,25c-1.1,2.9-2.8,5.5-5,7.6c-2,0.3-5.9,0.1-10.5-3.2
		c1.7-2.7,3.1-5.5,4.2-8.5c1.2-3.2,2-6.6,2.4-10C30.2,8.9,29.7,5.2,28.2,1.8z"/>
</g>
<g id="logo-text">
	<path d="M44.8,10h2.6L52.5,27h0.1L57.4,10h2.8L65.1,27h0.1L70.2,10h2.6l-6.4,19.9h-2.7l-4.9-16.8h-0.1l-4.9,16.8h-2.7L44.8,10z"/>
	<path d="M76.3,20.6c0,3.6,1.9,7.9,6.6,7.9c3.6,0,5.5-2.1,6.3-5.1h2.4c-1,4.5-3.7,7.2-8.7,7.2c-6.3,0-9-4.9-9-10.6
		c0-5.3,2.7-10.6,9-10.6s9,5.6,8.8,11.2L76.3,20.6z M89.2,18.5c-0.1-3.7-2.4-7.1-6.3-7.1s-6.2,3.5-6.6,7.1H89.2z"/>
	<path d="M94.8,2.3h2.4v11.4h0.1c1.2-2.8,3.9-4.5,6.9-4.4c6.1,0,9,4.9,9,10.6s-2.9,10.6-9,10.6c-3,0.1-5.9-1.6-7.1-4.4h-0.1v3.8
		h-2.2V2.3z M104.2,11.4c-5.2,0-7,4.4-7,8.5s1.8,8.5,7,8.5c4.6,0,6.5-4.4,6.5-8.5S108.9,11.4,104.2,11.4L104.2,11.4z"/>
	<path d="M130.6,15.8c-0.1-3-2.4-4.4-5.2-4.4c-2.2,0-4.7,0.9-4.7,3.4c0,2.2,2.5,2.9,4.1,3.4L128,19c2.8,0.4,5.7,2,5.7,5.5
		c0,4.3-4.3,6-8,6c-4.6,0-7.8-2.2-8.2-7h2.4c0.2,3.3,2.6,5,5.9,5c2.3,0,5.5-1,5.5-3.8c0-2.3-2.2-3.1-4.4-3.6l-3.1-0.7
		c-3.2-0.9-5.6-1.9-5.6-5.3c0-4.1,4-5.6,7.5-5.6c4,0,7.1,2.1,7.3,6.4L130.6,15.8z"/>
	<path d="M154.9,19.9c0,5.7-3.3,10.6-9.4,10.6s-9.4-4.8-9.4-10.6s3.3-10.6,9.4-10.6S154.9,14.2,154.9,19.9z M138.5,19.9
		c0,4.2,2.3,8.5,7,8.5s7-4.3,7-8.5s-2.3-8.5-7-8.5S138.5,15.7,138.5,19.9L138.5,19.9z"/>
	<path d="M180.6,29.9h-2.2v-3.6h-0.1c-1.3,2.6-4,4.3-6.9,4.2c-5,0-7-2.9-7-7.6V10h2.4v12.9c0.1,3.6,1.5,5.5,5.3,5.5c4.2,0,6-4,6-8
		V10h2.4L180.6,29.9z"/>
	<path d="M189.3,10h4.1V12h-4.1v13.5c0,1.6,0.2,2.5,2,2.6c0.7,0,1.4,0,2.1-0.1v2.1c-0.7,0-1.4,0.1-2.2,0.1c-3.2,0-4.4-1.1-4.3-4.5
		V12h-3.5v-2h3.5V4h2.4L189.3,10z"/>
	<path d="M158.1,2.3h2.4v27.6h-2.4V2.3z"/>
	<path d="M197,2.3h2.5v3.9h-2.4L197,2.3z M197,10h2.5v20h-2.4L197,10z"/>
	<path d="M221.5,19.9c0,5.7-3.3,10.6-9.4,10.6s-9.4-4.8-9.4-10.6s3.3-10.6,9.4-10.6S221.5,14.2,221.5,19.9z M205.1,19.9
		c0,4.2,2.3,8.5,7,8.5s7-4.3,7-8.5s-2.3-8.5-7-8.5S205.1,15.7,205.1,19.9z"/>
	<path d="M224.6,10h2.4v3.4h0.1c1.1-2.5,3.6-4.1,6.4-4c5.6,0,7.3,2.9,7.3,7.7v12.8h-2.4V17.5c0-3.4-1.1-6-5.1-6s-6.2,2.9-6.3,6.8
		v11.6h-2.4V10z"/>
	<path d="M256.9,15.8c-0.1-3-2.4-4.4-5.2-4.4c-2.2,0-4.7,0.9-4.7,3.4c0,2.2,2.5,2.9,4.1,3.4l3.2,0.7c2.8,0.4,5.7,2,5.7,5.5
		c0,4.3-4.3,6-8,6c-4.6,0-7.8-2.2-8.2-7h2.4c0.2,3.3,2.6,5,5.9,5c2.3,0,5.5-1,5.5-3.8c0-2.3-2.2-3.1-4.4-3.6l-3.1-0.7
		c-3.2-0.9-5.6-1.9-5.6-5.3c0-4.1,4-5.6,7.5-5.6c4,0,7.2,2.1,7.3,6.4L256.9,15.8z"/>
	<path d="M36.6,34.9c-1,0-1.8,0.8-1.8,1.8s0.8,1.8,1.8,1.8c1,0,1.8-0.8,1.8-1.8v0l0,0C38.4,35.7,37.6,34.9,36.6,34.9z M36.6,38.3
		c-0.9,0-1.6-0.7-1.6-1.6v0c0-0.9,0.7-1.6,1.6-1.6c0.9,0,1.6,0.7,1.6,1.6c0,0,0,0,0,0l0,0C38.2,37.5,37.5,38.2,36.6,38.3L36.6,38.3z
		"/>
	<path d="M37.4,36.2c0-0.4-0.2-0.6-0.7-0.6H36v2.1h0.2v-1h0.5l0.6,1h0.2l-0.6-1C37.2,36.7,37.4,36.4,37.4,36.2z M36.6,36.5h-0.4
		v-0.8h0.6c0.4,0,0.5,0.2,0.5,0.4S37,36.5,36.6,36.5z"/>
</g>
</svg>
