<?xml version="1.0" encoding="UTF-8"?>
<svg id="logo" xmlns="http://www.w3.org/2000/svg" viewBox="0 0 260.00114 39.88029">
  <g id="logo-icon">
    <path id="magenta" d="M31.50114,36.21584l-.1.1c-8.5,5.9-20,4.3-26.7-3.5-2-2.3-3.4-5.1-4.1-8.1,1-2.3,2.7-4.3,4.8-5.7,1-.7,2.1-1.3,3.2-1.8,1.5,2.8,3.2,5.4,5.3,7.9,2.2,2.7,4.7,5,7.5,7.1,2.9,2.2,6.4,3.6,10.1,4Z" fill="#c5003e"/>
    <path id="lt-blue" d="M25.50114.81584c1.3,1.6,3,5,2.5,10.7-3.2-.1-6.3.1-9.4.6-3.4.6-6.7,1.6-9.9,3-1.5.6-2.9,1.4-4.3,2.3-1.7,1.2-3.2,2.6-4.3,4.3C-.99886,10.91584,7.00114,1.21584,17.90114.11584c2.6-.3,5.1,0,7.6.7Z" fill="#4698cb"/>
    <path id="dk-blue" d="M28.20114,1.81584c9.4,4.3,14,15.2,10.4,25-1.1,2.9-2.8,5.5-5,7.6-2,.3-5.9.1-10.5-3.2,1.7-2.7,3.1-5.5,4.2-8.5,1.2-3.2,2-6.6,2.4-10,.5-3.8,0-7.5-1.5-10.9Z" fill="#005c96"/>
  </g>
  <g id="logo-text">
    <path d="M44.80114,10.01584h2.6l5.1,17h.1l4.8-17h2.8l4.9,17h.1l5-17h2.6l-6.4,19.9h-2.7l-4.9-16.8h-.1l-4.9,16.8h-2.7l-6.29999-19.9Z" fill="#fff"/>
    <path d="M76.30114,20.61584c0,3.6,1.9,7.9,6.6,7.9,3.6,0,5.5-2.1,6.3-5.1h2.4c-1,4.5-3.7,7.2-8.7,7.2-6.3,0-9-4.9-9-10.6,0-5.3,2.7-10.6,9-10.6s9,5.6,8.8,11.2h-15.40001ZM89.20113,18.51584c-.1-3.7-2.4-7.1-6.3-7.1s-6.2,3.5-6.6,7.1h12.9Z" fill="#fff"/>
    <path d="M94.80114,2.31584h2.4v11.4h.1c1.2-2.8,3.9-4.5,6.9-4.4,6.1,0,9,4.9,9,10.6s-2.9,10.6-9,10.6c-3,.1-5.9-1.6-7.1-4.4h-.1v3.8h-2.2s0-27.6,0-27.6ZM104.20113,11.41584c-5.2,0-7,4.4-7,8.5s1.8,8.5,7,8.5c4.6,0,6.5-4.4,6.5-8.5s-1.8-8.5-6.5-8.5h0Z" fill="#fff"/>
    <path d="M130.60114,15.81584c-.10001-3-2.39999-4.4-5.2-4.4-2.2,0-4.7.9-4.7,3.4,0,2.2,2.5,2.9,4.1,3.4l3.19999.8c2.8.4,5.7,2,5.7,5.5,0,4.3-4.3,6-8,6-4.6,0-7.8-2.2-8.2-7h2.4c.2,3.3,2.6,5,5.9,5,2.3,0,5.5-1,5.5-3.8,0-2.3-2.2-3.1-4.4-3.6l-3.1-.7c-3.2-.9-5.6-1.9-5.6-5.3,0-4.1,4-5.6,7.5-5.6,4.00001,0,7.1,2.1,7.3,6.4l-2.39999-.1Z" fill="#fff"/>
    <path d="M154.90113,19.91584c0,5.7-3.3,10.6-9.39999,10.6s-9.39999-4.8-9.39999-10.6,3.3-10.6,9.39999-10.6,9.39999,4.9,9.39999,10.6ZM138.50114,19.91584c0,4.2,2.3,8.5,7,8.5s7-4.3,7-8.5-2.3-8.5-7-8.5-7,4.3-7,8.5h0Z" fill="#fff"/>
    <path d="M180.60114,29.91584h-2.2v-3.6h-.10001c-1.3,2.6-4,4.3-6.89999,4.2-5,0-7-2.9-7-7.6v-12.9h2.39999v12.9c.10001,3.6,1.5,5.5,5.3,5.5,4.2,0,6-4,6-8v-10.4h2.39999l.10001,19.9Z" fill="#fff"/>
    <path d="M189.30114,10.01584h4.10001v2h-4.10001v13.5c0,1.6.2,2.5,2,2.6.7,0,1.39999,0,2.10001-.1v2.1c-.7,0-1.39999.1-2.2.1-3.2,0-4.39999-1.1-4.3-4.5v-13.7h-3.5v-2h3.5v-6h2.39999v6Z" fill="#fff"/>
    <path d="M158.10114,2.31584h2.39999v27.6h-2.39999V2.31584Z" fill="#fff"/>
    <path d="M197.00114,2.31584h2.5v3.9h-2.39999l-.10001-3.9ZM197.00114,10.01584h2.5v20h-2.39999l-.10001-20Z" fill="#fff"/>
    <path d="M221.50114,19.91584c0,5.7-3.3,10.6-9.39999,10.6s-9.39999-4.8-9.39999-10.6,3.3-10.6,9.39999-10.6,9.39999,4.9,9.39999,10.6ZM205.10114,19.91584c0,4.2,2.3,8.5,7,8.5s7-4.3,7-8.5-2.3-8.5-7-8.5-7,4.3-7,8.5Z" fill="#fff"/>
    <path d="M224.60114,10.01584h2.39999v3.4h.10001c1.10001-2.5,3.60001-4.1,6.39999-4,5.60001,0,7.3,2.9,7.3,7.7v12.8h-2.39999v-12.4c0-3.4-1.10001-6-5.10001-6s-6.2,2.9-6.3,6.8v11.6h-2.39999V10.01584Z" fill="#fff"/>
    <path d="M256.90113,15.81584c-.10001-3-2.39999-4.4-5.2-4.4-2.2,0-4.7.9-4.7,3.4,0,2.2,2.5,2.9,4.10001,3.4l3.2.7c2.8.4,5.7,2,5.7,5.5,0,4.3-4.3,6-8,6-4.60001,0-7.8-2.2-8.2-7h2.39999c.2,3.3,2.60001,5,5.89999,5,2.3,0,5.49998-1,5.49998-3.8,0-2.3-2.2-3.1-4.39999-3.6l-3.10001-.7c-3.2-.9-5.60001-1.9-5.60001-5.3,0-4.1,4-5.6,7.5-5.6,4,0,7.20001,2.1,7.29999,6.4h-2.39996Z" fill="#fff"/>
    <path d="M36.60114,34.91584c-1,0-1.8.8-1.8,1.8s.8,1.8,1.8,1.8,1.8-.8,1.8-1.8h0c0-1-.8-1.8-1.8-1.8ZM36.60114,38.31584c-.9,0-1.6-.7-1.6-1.6h0c0-.9.7-1.6,1.6-1.6s1.6.7,1.6,1.6h0c0,.8-.7,1.5-1.6,1.6h0Z"/>
    <path d="M37.40114,36.21584c0-.4-.2-.6-.7-.6h-.7v2.1h.2v-1h.5l.6,1h.2l-.6-1c.3,0,.5-.3.5-.5ZM36.60114,36.51584h-.4v-.8h.6c.4,0,.5.2.5.4s-.3.4-.7.4Z"/>
  </g>
</svg>