<svg xmlns="http://www.w3.org/2000/svg" width="82.75" height="21.81" viewBox="0 0 59 15.532">
  <path id="Combined-Shape" d="M59,0l-5.647,15.532H0V0H59ZM19.644,3.565c-2.203,0-3.865,1.747-3.865,4.064,0,2.371,1.626,4.094,3.865,4.094,1.545,0,2.842-.774,3.56-2.121h0l.111-.21h-1.47c-.523,.712-1.269,1.114-2.104,1.114-.765,0-1.451-.271-1.938-.761-.449-.457-.702-1.061-.738-1.76h6.41l.002-.276c.008-1.232-.411-2.333-1.183-3.098-.687-.684-1.604-1.046-2.649-1.046Zm15.325,.279c-.027,0-.052,0-.079,0h-.039s-.04,0-.04,0c-.862,0-1.576,.217-2.13,.587,.314,.356,.533,.784,.648,1.266,.2-.189,.443-.345,.735-.455,.235-.073,.524-.119,.843-.119,.252,0,.486,.028,.689,.075,.947,.304,1.473,1.006,1.473,2.08h0v4.436h1.336V7.001c0-1.807-1.267-3.157-3.435-3.157Zm-5.726,0c-.027,0-.053,0-.079,0h-.039s-.038,0-.038,0c-2.17,0-3.436,1.35-3.436,3.157h0v4.714h1.335V7.278c0-1.027,.481-1.707,1.353-2.037,.234-.073,.522-.119,.842-.119,.251,0,.484,.028,.689,.075,.947,.304,1.474,1.006,1.474,2.08h0v4.436h1.335V7.001c0-1.807-1.266-3.157-3.436-3.157Zm14.951-.271c-2.251,0-3.823,1.627-3.823,3.956,0,2.346,1.621,4.049,3.854,4.049,.957,0,1.895-.377,2.525-.978h0v.822h1.251V3.729h-1.251v.813c-.659-.616-1.571-.97-2.557-.97Zm-33.86,.022c-.026,0-.052,.002-.079,.002h0l-.078-.002c-2.17,0-3.437,1.351-3.437,3.157h0v4.714h1.337V7.031c0-1.028,.481-1.709,1.353-2.038,.234-.073,.523-.118,.842-.118,.252,0,.485,.028,.689,.075,.947,.304,1.474,1.007,1.474,2.081h0v4.434h1.336V6.752c0-1.806-1.267-3.157-3.436-3.157Zm33.83,1.165c1.55,0,2.634,1.107,2.634,2.694,0,1.461-.801,2.938-2.588,2.938-1.68,0-2.586-1.475-2.586-2.862,0-1.332,.97-2.77,2.54-2.77Zm-24.503,.024c1.317,0,2.211,.972,2.476,1.985h-5.026c.26-1.119,1.342-1.985,2.551-1.985Z" fill="#fff" fill-rule="evenodd"/>
</svg>
