<svg xmlns="http://www.w3.org/2000/svg" width="51.81" height="51.86" viewBox="0 0 36.94 36.94">
  <path id="Combined-Shape" d="M18.47,0c10.201,0,18.47,8.269,18.47,18.47s-8.27,18.47-18.47,18.47S0,28.671,0,18.47,8.269,0,18.47,0Zm0,1.587C9.146,1.587,1.587,9.146,1.587,18.47c0,4.006,1.395,7.686,3.726,10.581,.004,0,.007,.001,.011,.002,.416,.135,.579-.032,.934,.094,.303,.33-.234,.231-.186,.747v.036c3.084,3.335,7.497,5.423,12.398,5.423,1.706,0,3.352-.253,4.904-.723,.593-.314,1.477-.382,2.04-.905-.137-.428-.963,.161-1.308-.187,.08-.227,.202-.412,.334-.586l.268-.346c.088-.117,.17-.239,.238-.376,.772-.1,1.519-.226,1.962-.654-.202-1.005-1.04-1.374-1.906-1.715l-.346-.136c-.403-.161-.794-.333-1.112-.578-.351,.147-.399,.597-.467,1.028-.659-.509-.153-1.927-.094-2.429,.634,.207,.925,.757,1.401,1.121,.665,.175,.999,.683,1.682,.841,.831,.672,2.011,1.349,3.166,1.771,3.738-3.098,6.119-7.775,6.119-13.008C35.352,9.146,27.794,1.587,18.47,1.587Zm9.186,30.83c-.658-.083-1.483,.437-1.869,.934,.073,.02,.108,.078,.093,.186,.176-.076,.372-.131,.569-.187,.384-.206,.759-.427,1.124-.661,.039-.08,.067-.17,.082-.273ZM9.342,7.75c1.107-.948,3.269-3.846,4.485-3.083,1.216,.762,1.029,1.961,1.682,2.803-.028,.434,.001,.809,.186,1.028,.472,.067,.683-.128,1.028-.187,.347,.027,.253,.494,.654,.467,.445,.009,.56-.312,.935-.374,.645,.279,1.031,.062,1.681-.094h0v.561c.47,.021,.856-.041,1.224-.121l.548-.124c.368-.081,.752-.145,1.217-.128,.574,.586,1.39,1.86,2.43,1.121,.195-.241-.033-.905,.187-1.121,.509-.259,.73,.491,1.027,.747,.212,.088,.397,.201,.577,.321l.358,.24c.608,1.862-.197,3.885-.747,5.419,.017,.764,.034,1.529-.187,2.056-.497,.218-1.403,.03-1.588,.56-.748-.123-1.675-.069-2.056-.56-.109-.514,.355-.455,.467-.747-.085-.614,.109-.95,.28-1.308,.983,.022,.724,1.755,1.682,1.495,.279-.408-.301-.756-.281-1.215,.368-.722-.222-1.282,.281-1.869-.042-.101-.178-.109-.329-.103l-.183,.01c-.18,.007-.335-.01-.33-.188-.228-.433,.223-.514,.686-.564l.197-.02c.162-.017,.314-.035,.424-.07,.095-.812-.416-1.016-.56-1.589-1.28-.361-2.218-.937-3.831-.747-.503,.432-1.602,.267-1.682,1.121,.165,.631,.792,.587,1.473,.498l.294-.039c.491-.064,.98-.107,1.317,.102,.202,.335,.569,.763,.374,1.214-.483,.016-.432-.502-.935-.467-.47-.034-.191,.68-.747,.56,.045,.357-.026,.596-.187,.747-.553,.117-.668-.204-.934-.374-.859,.028-1.323-.328-2.149-.094-.151,.049-.229,.171-.296,.305l-.078,.162c.09,1.405,1.851,1.139,2.148,2.336,.049,.485-.293,.579-.374,.934,.191,.899,.71,1.471,1.121,2.149-.059,1.118,.807,1.311,1.308,1.869,.854,.423,2.401,.152,2.803,1.027-.051,.364-.324,.507-.618,.628l-.222,.09c-.183,.076-.355,.164-.468,.311-.096,.714-.228,1.392-.374,2.056-.228,.196-.199,.133-.561,.093-.376,.62-.81,1.183-1.308,1.682-.541,.074-.58-.354-1.121-.28-.614-.819-1.558-1.307-1.682-2.616-.218-.031-.386-.112-.561-.187-.409,.089-.55,.447-.747,.747-.123,1.963,1.331,2.839,1.215,4.485-.525-.16-.795-.575-1.028-1.028-.215-.44-.191-.68-.747-1.215-1.032-.992-1.843,1.441-2.99,1.869-.542-.175-1.125,.018-1.495,.28,.418,.751,1.504,.833,2.639,.868l.639,.019c.495,.017,.976,.047,1.393,.142,.334,.195,.387,.672,.747,.841,1.878-.009,2.728,1.009,3.457,2.149-.376,.132-.671-.149-.933-.442l-.154-.174c-.075-.085-.149-.163-.222-.224-.327-.161-.689-.287-1.06-.404l-.746-.23c-.494-.156-.972-.329-1.371-.581-1.186,.244-1.934-.447-3.27-.187-.328,.233-.463,.658-.934,.747-.09-.377-.125-.809-.374-1.028-.462-.379-1.062-.62-1.495-1.027-.427-.259-1.411,.04-1.495-.561,.529-.374,1.741-.065,1.868-.841-1.213-.185-2.232,.632-3.363,.841-.123-.59,.183-.728,.56-.841,1.955-.587,3.815-1.729,4.672-3.644,.04-1.205,.307-2.184,.28-3.457-.606-.421-1.491-.564-1.681-1.401,.021-1.1,.696-1.546,.56-2.803-.715-1.829-.798-4.364-.187-6.353-.046-.359-.276-.534-.467-.748-.885,.162-1.43-.554-1.962-1.027-.539,.002-.925,.14-1.402,0,.124-.749,.948-.797,1.402-1.215Zm15.604,12.987c-.472,.077-1.453-.088-1.775-.467v-.28c.681-.196,1.932-.201,1.775,.747Zm-1.121-1.962c.505,.107,1.293,.362,1.028,.934-.68-.322-1.495-.042-2.149-.467,.002-.528,.928-.131,1.121-.467Zm-.467-4.859c.284,.03,.379,.528,.187,.747-.284-.029-.379-.528-.187-.747Zm-8.783-4.298c-.391-.079-.37,.253-.561,.374,.072,.302,.258,.489,.561,.561,.228-.34,.113-.545,0-.934Zm5.326-4.205c-.107,.578-.878,.493-1.308,.747-.226,.179-.588,.222-.747,.467-.612-.023-1.035,.438-1.495,.28-.175-.891,.975-1.182,1.589-1.589,.703,.041,1.463-.283,1.962,.094Z" fill="#fff" fill-rule="evenodd"/>
</svg>
