<svg xmlns="http://www.w3.org/2000/svg" width="51.72" height="55.66" viewBox="0 0 36.875 39.645">
  <path id="Combined-Shape" d="M36.875,0V39.645H0V0H36.875ZM18.607,25.394c-1.689,0-2.563,.922-2.563,2.388,0,2.388,3.638,2.412,3.638,4.019,0,.639-.437,1.017-1.004,1.017-.484,0-1.075-.367-1.264-1.395h0l-1.606,.342c.437,1.679,1.464,2.4,2.787,2.4,1.713,0,2.717-.969,2.717-2.435,0-2.672-3.637-2.767-3.637-4.055,0-.579,.319-.934,.898-.934,.567,0,.921,.343,1.193,1.147h0l1.465-.425c-.283-1.206-1.17-2.069-2.622-2.069Zm-9.376,.118h-1.63v5.982c0,1.88,1.099,2.672,2.776,2.672s2.787-.792,2.787-2.672h0v-5.982h-1.63v5.971c0,.816-.366,1.242-1.157,1.242s-1.146-.426-1.146-1.242h0v-5.971Zm18.493,0h-2.09l-2.114,8.536h1.571l.461-1.797h2.255l.413,1.797h1.559l-2.055-8.536Zm-1.051,1.844l.791,3.452h-1.618l.803-3.452h.024ZM11.614,4.656c-3.386,0-5.762,1.619-5.762,6.122h0v6.526c0,4.503,2.376,6.122,5.762,6.122,1.314,0,2.325-.708,3.26-1.771h0l.531,1.517h1.819V13.814h-5.939v2.884h2.452v1.113c0,1.568-.809,2.53-2.123,2.53-1.39,0-2.274-.557-2.274-2.58h0v-7.437c0-2.024,.885-2.58,2.274-2.58,1.264,0,2.123,.759,2.123,3.111h3.487c-.126-4.149-2.047-6.198-5.61-6.198Zm13.04,.253h-4.852V23.173h4.852c3.993,0,6.216-1.72,6.368-6.324h0v-5.616c-.152-4.604-2.376-6.324-6.368-6.324h0Zm-.152,3.086c2.173,0,3.033,1.062,3.033,3.643h0v4.806c0,2.732-1.112,3.643-3.033,3.643h-1.213V7.996h1.213Z" fill="#fff" fill-rule="evenodd"/>
</svg>
